<svg width="40" height="38" viewBox="0 0 40 38" fill="none" xmlns="http://www.w3.org/2000/svg"><g clip-path="url(#clip0_181_2687)"><path d="M34.846 5.18C38.282 8.358 40 13.05 40 19.23c0 6.18-1.718 10.873-5.154 14.026C31.41 36.41 26.462 38 20 38c-6.461 0-11.41-1.59-14.846-4.744C1.718 30.103 0 25.41 0 19.231 0 13.05 1.718 8.359 5.154 5.179 8.59 2 13.539.41 20 .41 26.462.41 31.41 2 34.846 5.18z" fill="#075762"/><g clip-path="url(#clip1_181_2687)"><g clip-path="url(#clip2_181_2687)"><path d="M21.172 19l-4.95-4.95 1.414-1.414L24 19l-6.364 6.364-1.414-1.414 4.95-4.95z" fill="#fff"/></g></g></g><defs><clipPath id="clip0_181_2687"><path fill="#fff" transform="rotate(-180 20 19)" d="M0 0h40v38H0z"/></clipPath><clipPath id="clip1_181_2687"><path fill="#fff" transform="rotate(-90 19.5 11.5)" d="M0 0h24v24H0z"/></clipPath><clipPath id="clip2_181_2687"><path fill="#fff" transform="rotate(-90 19.5 11.5)" d="M0 0h24v24H0z"/></clipPath></defs></svg>