<svg width="93" height="93" viewBox="0 0 93 93" fill="none" xmlns="http://www.w3.org/2000/svg"><g clip-path="url(#clip0_164_698)" fill-rule="evenodd" clip-rule="evenodd" fill="#61A380"><path d="M89.232 27.181C72.87 57.23 38.68 62.14 7.636 54.67a.995.995 0 00-.465 1.933c31.914 7.682 66.989 2.419 83.807-28.471a.994.994 0 10-1.746-.95z"/><path d="M7.987 55.776c1.68-.479 3.795-1.057 4.033-1.13 6.453-1.968 12.255-4.831 17.84-8.642a.996.996 0 00-1.122-1.644c-5.414 3.697-11.04 6.476-17.3 8.384-.364.111-5.12 1.408-6.062 1.743-.387.135-.564.332-.6.382a.961.961 0 00-.219.714c.022.225.147.587.538.892.41.317 1.417.763 1.662.896 3.691 2.02 7.988 3.954 11.592 6.546 3.437 2.472 6.247 5.548 7.148 9.964a.996.996 0 001.95-.398c-1.008-4.938-4.095-8.417-7.935-11.18-3.583-2.577-7.83-4.523-11.525-6.527z"/></g><defs><clipPath id="clip0_164_698"><path fill="#fff" transform="rotate(20.256 12.463 69.773)" d="M0 0h72v72H0z"/></clipPath></defs></svg>