<svg width="242" height="242" viewBox="0 0 242 242" fill="none" xmlns="http://www.w3.org/2000/svg"><g clip-path="url(#clip0_164_269)"><path d="M76.23 139.053c-10.407-9.583-15.586-23.716-15.586-42.399 0-18.682 5.18-32.766 15.585-42.301 10.358-9.535 25.314-14.327 44.77-14.327 19.457 0 34.413 4.792 44.77 14.327 10.358 9.535 15.585 23.667 15.585 42.301 0 18.683-5.179 32.816-15.585 42.399-10.357 9.583-25.313 14.375-44.77 14.375-19.456 0-34.412-4.792-44.77-14.375zm25.264-68.293c-4.114 5.373-6.195 13.988-6.195 25.846s2.081 20.522 6.195 25.942c4.114 5.47 10.648 8.18 19.505 8.18 8.906 0 15.392-2.71 19.554-8.18 4.162-5.469 6.244-14.132 6.244-25.942 0-11.858-2.082-20.473-6.244-25.846-4.162-5.372-10.696-8.082-19.554-8.082-8.905 0-15.391 2.71-19.505 8.082z" fill="#2D363A"/><path d="M151.734 178.451l-28.121 28.12a3.738 3.738 0 01-5.275 0l-28.12-28.12c-2.324-2.323-.678-6.341 2.613-6.341h56.192c3.388 0 5.034 4.018 2.711 6.341z" fill="#E37B0B"/><mask id="mask0_164_269" style="mask-type:alpha" maskUnits="userSpaceOnUse" x="54" y="49" width="112" height="83"><path d="M86.636 111.078c-6.292-16.214-42.834-20.328-29.282-43.56l36.3-18.392 41.14 1.936c11.858 10.245 33.686 29.524 30.976 36.3-2.227 5.566-8.228 15.488-22.506 30.734-2.904 4.84-6.534 11.834-20.57 12.826-17.908 1.266-30.773-6.223-36.058-19.844z" fill="#C4C4C4"/></mask><g mask="url(#mask0_164_269)"><path d="M111.223 133.535c-2.275 10.357 6.582 12.826 0 21.151-6.437 8.179-10.309 1.645-20.231 4.694-.823.242-1.694 1.356-1.162 1.985 3.195 3.872 4.647 5.566 6.631 6.921 1.065.726 9.293 4.356 9.68 3.92 7.696-8.324 4.84-4.598 9.825-14.229 5.615-10.842 1.839-12.391-.048-24.442-.387-2.662-4.211-2.275-4.695 0z" fill="#E37B0B"/><path d="M105.367 50.19h.145c10.454 0 19.07 8.519 19.263 18.973.097 5.518.339 6.825.339 14.52 0 5.421-.145 5.421-.145 10.842 0 4.84-4.792 8.47-.097 9.535 18.634 4.307 22.361-6.68 37.171-1.646 2.904 1.016 4.695 4.017 4.066 7.018-3.437 17.666-24.394 29.572-43.076 29.572-12.875 0-24.297-4.356-30.928-14.326-3.92-5.856-5.953-12.971-5.953-20.57 0-4.84-.145-4.84-.145-9.632 0-5.42.242-5.42.242-10.841 0-7.502-.097-8.906-.145-14.085-.097-10.648 8.566-19.36 19.263-19.36z" fill="#E8E8E8"/><path d="M119.79 96.025c-7.937 3.243-6.001 11.035-.048 17.182 16.214 16.747 23.329 7.986 40.22-14.955 1.113-1.55 6.873-10.068 6.389-11.907-4.356-16.553-28.217 2.178-46.561 9.68z" fill="#BCBCBC"/><path d="M134.455 133.487c-2.275 10.648 5.808 12.487.048 21.732-6.05 9.728-10.454 4.743-20.086 10.938-.822.533-.58 1.162.533 1.791 9.583 5.421 16.988 9.922 20.86 11.229 1.597.532 3.437.919 3.485-.145 1.065-22.748 1.936-22.845-.097-45.545-.193-2.662-4.259-2.226-4.743 0z" fill="#E37B0B"/><path d="M93.944 68.728c0 2.807-1.113 5.082-2.517 5.082-1.403 0-2.565-2.275-2.565-5.082s1.162-5.034 2.566-5.034c1.355 0 2.516 2.275 2.516 5.034z" fill="#2D363A"/><path d="M93.944 68.728c0 2.807-1.113 5.082-2.517 5.082-1.403 0-2.565-2.275-2.565-5.082s1.162-5.034 2.566-5.034c1.355 0 2.516 2.275 2.516 5.034zm21.005 0c0 2.807-1.064 5.034-2.42 5.034-1.355 0-2.42-2.275-2.42-5.034s1.065-5.034 2.42-5.034c1.356 0 2.42 2.275 2.42 5.034z" fill="#2D363A"/><path d="M114.949 68.728c0 2.807-1.064 5.034-2.42 5.034-1.355 0-2.42-2.275-2.42-5.034s1.065-5.034 2.42-5.034c1.356 0 2.42 2.275 2.42 5.034z" fill="#2D363A"/><path d="M93.8 81.36c-16.263 0-16.263-.049-32.526-.049h.049c0-4.162 7.792-6.63 11.955-6.824 12.632-.581 7.598-.726 19.602-.726 2.613 0 4.114 2.275 4.21 4.5" fill="#E37B0B"/><path d="M68.244 91.38a3.786 3.786 0 001.694.87c3 .533 7.792-1.597 10.938-3.436 8.518-4.985 4.888-2.613 13.407-7.599 3.582-2.13 3.63-3.872.823-4.791-1.065-.34-.968.58-1.888 1.113-12.197 7.163-14.036 5.517-26.184 12.68-.097-.048.677.63 1.21 1.162z" fill="#E37B0B"/><path d="M124.824 107.641c-.194 0-.436-.048-.581-.242-.387-.338-.435-.871-.097-1.258.533-.629 13.456-15.391 28.944-19.166.484-.097.968.193 1.064.677.097.484-.193.968-.677 1.065-14.956 3.678-27.879 18.489-28.024 18.634a.778.778 0 01-.629.29zm7.356 2.081c-.435 0-.726-.048-.774-.048-.484-.048-.871-.484-.823-.968.049-.484.484-.871.968-.823.049 0 5.711.436 6.921-3.436.968-3.098 3.776-2.953 5.615-2.807.774.048 1.742.096 2.033-.146.145-.145.145-.484.145-.629 0-2.855 2.759-3.485 4.598-3.872.532-.145 1.355-.29 1.645-.484 0 0 0-.048-.048-.097a.887.887 0 01.436-1.161.887.887 0 011.161.435c.339.726.194 1.259.049 1.598-.436.92-1.598 1.161-2.856 1.452-2.71.629-3.194 1.161-3.194 2.129 0 .871-.242 1.501-.726 1.985-.823.774-2.13.726-3.388.629-2.033-.145-3.292-.097-3.776 1.549-.677 2.226-2.468 3.726-5.13 4.404-1.065.194-2.178.29-2.856.29z" fill="#2D363A"/></g></g><defs><clipPath id="clip0_164_269"><path fill="#fff" d="M0 0h242v242H0z"/></clipPath></defs></svg>