<svg width="79" height="83" viewBox="0 0 79 83" fill="none" xmlns="http://www.w3.org/2000/svg"><path d="M43.79 56.26c5.83 4.97 9.9.86 13.6 7.4 3.9 6.89-.83 7.78-.42 15.59.04.67.51.73 1.31.28 6.87-3.8 12.36-6.64 14.58-8.47.91-.76 1.82-1.7 1.16-2.1-13.81-8.41-13.59-8.94-28.49-15.5-1.77-.78-2.97 1.75-1.74 2.8z" fill="#E27C0D"/><path d="M31.83 0h.11c7.53-.01 13.78 5.81 13.9 12.92.07 3.78.26 4.66.26 9.91 0 3.7-.11 3.7-.11 7.39 0 3.29-3.46 5.78-.06 6.51 13.45 2.92 16.15-4.54 26.84-1.11 2.11.68 3.37 2.74 2.95 4.8-2.5 12.04-17.61 20.15-31.1 20.15-9.29 0-17.55-2.98-22.34-9.77-2.82-4-4.3-8.85-4.3-14.02 0-3.29-.1-3.29-.1-6.58 0-3.7.16-3.7.16-7.39 0-5.11-.07-6.08-.09-9.62C17.88 5.96 24.14.01 31.83 0z" fill="#E8E8E8"/><path d="M50.64 25.93c-5.27-1.26-7.27 3.52-6.6 8.95 1.82 14.78 8.79 12.86 26.15 7.19 1.17-.38 7.34-2.69 7.8-3.84 4.11-10.27-15.18-9.38-27.35-12.3z" fill="#BABAB9"/><path d="M23.59 12.66c0 1.9-.81 3.45-1.83 3.45s-1.86-1.55-1.86-3.45c0-1.9.83-3.45 1.86-3.45 1.02.01 1.83 1.55 1.83 3.45z" fill="#2E3539"/><path d="M23.59 12.66c0 1.9-.81 3.45-1.83 3.45s-1.86-1.55-1.86-3.45c0-1.9.83-3.45 1.86-3.45 1.02.01 1.83 1.55 1.83 3.45zm15.19 0c0 1.9-.78 3.44-1.74 3.44s-1.74-1.54-1.74-3.44.78-3.44 1.74-3.44 1.74 1.54 1.74 3.44z" fill="#2E3539"/><path d="M38.78 12.66c0 1.9-.78 3.44-1.74 3.44s-1.74-1.54-1.74-3.44.78-3.44 1.74-3.44 1.74 1.54 1.74 3.44z" fill="#2E3539"/><path d="M40.86 55.85c-1.63 7.05 4.75 8.75.01 14.41-4.66 5.57-7.44 1.11-14.62 3.2-.59.17-1.23.91-.83 1.37 2.31 2.64 3.37 3.79 4.8 4.7.77.5 6.7 2.99 7 2.67 5.57-5.67 3.5-3.15 7.09-9.7 4.04-7.38 1.34-8.44-.03-16.65-.31-1.8-3.07-1.54-3.42 0z" fill="#E27C0D"/><path d="M49.27 33.16a.53.53 0 01-.21-.33c-.07-.31.13-.62.44-.69.51-.12 12.71-3 22.04.79.29.12.42.45.3.75-.12.29-.46.44-.75.32-8.99-3.66-21.23-.77-21.35-.74a.636.636 0 01-.47-.1zm2.95 3.82c-.23-.17-.36-.28-.37-.3a.58.58 0 01-.04-.81c.21-.24.57-.27.81-.06.03.02 2.72 2.36 4.83.78 1.68-1.26 3.03-.12 3.93.63.38.32.85.71 1.09.68.12-.02.26-.18.33-.28 1.09-1.49 2.73-.78 3.82-.32.33.14.82.35 1.02.35.01-.01.01-.03.02-.06a.59.59 0 01.68-.45c.31.06.5.37.43.68-.12.5-.39.74-.6.85-.58.3-1.25.02-2.02-.31-1.62-.7-2.06-.59-2.43-.07-.32.44-.7.69-1.12.75-.73.1-1.35-.42-1.95-.92-.97-.81-1.62-1.28-2.52-.6-1.2.9-2.68 1.03-4.27.38a8.44 8.44 0 01-1.64-.92z" fill="#2E3539"/><path d="M19.35 8.19l.91-2.11-8.31 4.06 3.37-.57 4.03-1.38z" fill="#1E1E1C"/><path d="M47.72 9.61c1.08-.67.45-2-.25-1.5l-6.39 3.78c-6.81-4.66-12.8-.95-12.8-.95-.85-1.21-3.32-.29-3.32-.29-5.73-4.37-11.08-.96-11.08-.96l-1.93.44-.04 1.28 1.71.63c1.04 7.05 5.73 6.99 8.75 6.38 3.56-.72 3.15-5.48 3.15-5.48 1.22-2.1 2.88-.13 2.88-.13.73 7.62 5.6 7.87 8.87 7.34 4.36-.72 3.02-6.94 3.02-6.94l.85.32 6.58-3.92zm-25.16 7.76c-1.63.67-5.59.77-7.06-1.88-.74-1.34-.95-2.99-1.08-3.88-.13-.85.52-1.5 1.35-1.75 1.74-.53 4.81-1.17 7.85 1.15.27.2.46.48.56.8.46 1.35.62 4.64-1.62 5.56zm14.42 1.69c-2.96.18-5.32.03-6.78-2.62-.99-1.79-1.12-3.53-1.07-4.29a.93.93 0 01.57-.8c1.42-.61 5.65-2 9.39 1.16 0 0 1.36 6.34-2.11 6.55z" fill="#203458"/><path d="M23.49 21.25c-11.75 0-11.75-.02-23.49-.02h.02c0-2.85 5.62-4.53 8.63-4.66 9.13-.39 5.5-.48 14.16-.48 1.88 0 2.98 1.55 3.03 3.07" fill="#E27C0D"/><path d="M5.06 28.08c.34.29.75.51 1.21.59 2.17.36 5.62-1.09 7.89-2.35 6.15-3.41 3.51-1.77 9.66-5.17 2.6-1.45 2.61-2.63.59-3.28-.76-.25-.68.39-1.37.78-8.8 4.88-10.12 3.75-18.92 8.64-.01-.02.55.46.94.79z" fill="#E27C0D"/></svg>