<svg width="181" height="110" viewBox="0 0 181 110" fill="none" xmlns="http://www.w3.org/2000/svg"><path d="M145.06 88.427c7.57 3.5 10.328-2.189 16.253 3.674 6.246 6.184 1.756 8.621 4.761 16.87.26.705.755.619 1.423-.098 5.702-6.234 10.327-11.02 11.96-13.68.68-1.1 1.286-2.4.482-2.622-16.808-4.688-16.759-5.33-34.05-7.693-2.053-.285-2.436 2.807-.829 3.55z" fill="#E27C0D"/><path d="M121.177 28.577l.124-.012c7.94-1.014 15.336 4.65 16.462 12.566.606 4.205.928 5.17 1.67 11.02.519 4.119.396 4.144.927 8.262.458 3.674-2.832 6.902.854 7.273 14.582 1.472 16.376-7.21 28.126-4.799 2.312.47 3.933 2.61 3.772 4.96-.94 13.766-15.72 24.823-29.932 26.617-9.783 1.237-18.911-.99-24.91-7.928-3.537-4.082-5.776-9.302-6.505-15.065-.458-3.674-.569-3.649-1.027-7.322-.519-4.119-.346-4.144-.866-8.262-.717-5.702-.927-6.778-1.447-10.711-1.101-8.102 4.651-15.572 12.752-16.599z" fill="#E8E8E8"/><path d="M114.275 43.79c.272 2.127-.359 3.958-1.448 4.094-1.076.136-2.176-1.484-2.436-3.611-.272-2.128.396-3.958 1.472-4.095 1.076-.123 2.139 1.497 2.412 3.612z" fill="#2E3539"/><path d="M114.275 43.79c.272 2.127-.359 3.958-1.448 4.094-1.076.136-2.176-1.484-2.436-3.611-.272-2.128.396-3.958 1.472-4.095 1.076-.123 2.139 1.497 2.412 3.612zm16.005-2.017c.272 2.128-.334 3.946-1.349 4.07-1.014.123-2.053-1.485-2.325-3.612-.272-2.127.334-3.945 1.348-4.07 1.014-.123 2.053 1.497 2.326 3.612z" fill="#2E3539"/><path d="M130.28 41.773c.272 2.128-.334 3.946-1.349 4.07-1.014.123-2.053-1.485-2.325-3.612-.272-2.127.334-3.945 1.348-4.07 1.014-.123 2.053 1.497 2.326 3.612z" fill="#2E3539"/><path d="M115.376 53.388c-12.368 1.558-12.381 1.533-24.749 3.104h.025c-.396-3.179 5.281-5.8 8.435-6.345 9.561-1.645 5.727-1.274 14.854-2.424 1.992-.248 3.365 1.336 3.624 3.018" fill="#E27C0D"/><path d="M96.923 63.456c.395.285.865.47 1.348.495 2.338.111 5.764-1.954 7.978-3.673 5.998-4.626 3.45-2.437 9.449-7.063 2.536-1.954 2.375-3.278.161-3.735-.829-.173-.668.532-1.336 1.051-8.584 6.617-10.13 5.529-18.713 12.146l1.113.78zm37.748 22.658c-5.516 5.95-.668 11.032-8.225 13.964-7.446 2.882-7.433-2.944-15.201-4.8-.643-.148-1.645.223-1.546.867.606 3.81.915 5.491 1.695 7.149.42.903 4.415 6.505 4.873 6.369 8.336-2.486 4.997-1.15 12.034-5.565 7.916-4.972 6.048-7.459 9.499-16.141.755-1.905-1.917-3.142-3.129-1.843z" fill="#E27C0D"/><path d="M148.486 77.519c-1.769 1.657-4.403 1.744-6.679 1.558-2.708-.222-5.516-.84-7.792-2.412-2.004-1.372-3.389-3.55-3.389-6.01 0-2.647 1.299-5.27 2.993-7.26.928-1.09 2.004-2.079 3.216-2.846 1.051-.667 2.536-1.36 3.735-.692 1.423.791 2.697-1.385 1.274-2.177-3.104-1.731-6.604.581-8.843 2.696-2.338 2.227-4.23 5.27-4.737 8.497-.26 1.67-.21 3.414.42 5.01a10.288 10.288 0 002.61 3.822c2.511 2.312 5.813 3.314 9.128 3.747 3.401.445 7.198.334 9.845-2.14 1.188-1.113-.606-2.894-1.781-1.793z" fill="#C81432"/><path d="M157.281 44.434c3.896.445 8.274.717 10.835 3.698 2.634 3.08 2.337 7.706 1.199 11.59-.21.692-.457 1.422-.989 1.904-.693.618-1.695.717-2.635.717-7.495.037-14.792-3.463-22.238-2.585-.569.062-1.163.149-1.682-.074-.619-.26-.99-.903-1.274-1.509a21.945 21.945 0 01-2.128-11.07c-.012 0 8.25-3.871 18.912-2.671z" fill="#C81432"/><path d="M136.575 62.07c-5.726 3.228-3.5 8.98 1.621 13.086 13.951 11.193 18.515 3.834 29.164-15.25.718-1.287 4.255-8.325 3.711-9.685-4.935-12.183-21.286 4.378-34.496 11.849z" fill="#BABAB9"/><path d="M141.51 70.42a.655.655 0 01-.47-.112.682.682 0 01-.185-.952c.346-.532 8.757-12.987 20.185-17.378a.686.686 0 01.891.396.685.685 0 01-.396.89c-11.02 4.218-19.456 16.722-19.53 16.846a.745.745 0 01-.495.31zm5.802.851a9.72 9.72 0 01-.582.05.7.7 0 01-.717-.668.7.7 0 01.668-.718c.049 0 4.378-.198 4.923-3.277.445-2.45 2.585-2.585 4.007-2.684.594-.037 1.348-.087 1.534-.31.099-.11.074-.37.062-.507-.273-2.176 1.768-2.906 3.116-3.4.408-.15 1.015-.372 1.2-.533a.27.27 0 01-.037-.061.686.686 0 011.175-.705c.322.531.272.952.173 1.224-.26.742-1.088 1.039-2.053 1.385-2.016.73-2.313 1.188-2.214 1.93.087.643-.037 1.175-.359 1.558-.569.68-1.546.742-2.498.804-1.546.099-2.499.223-2.734 1.546-.309 1.757-1.508 3.08-3.463 3.822a9.33 9.33 0 01-2.201.544z" fill="#2E3539"/><path d="M47.707 52.543c6.63 3.067 9.041-1.917 14.236 3.216 5.467 5.417 1.534 7.544 4.18 14.78.223.618.668.544 1.25-.087 4.997-5.466 9.053-9.647 10.476-11.985.593-.964 1.125-2.102.42-2.3-14.718-4.107-14.681-4.675-29.82-6.74-1.818-.248-2.152 2.46-.742 3.116z" fill="#E27C0D"/><path d="M26.78.113l.099-.012C33.83-.777 40.31 4.171 41.3 11.109c.532 3.686.817 4.527 1.46 9.66.458 3.611.346 3.623.804 7.235.408 3.216-2.474 6.048.742 6.37 12.764 1.286 14.335-6.32 24.638-4.205 2.028.42 3.45 2.288 3.315 4.34-.817 12.06-13.766 21.745-26.221 23.315-8.572 1.076-16.562-.865-21.818-6.95-3.092-3.575-5.059-8.152-5.702-13.198-.408-3.216-.495-3.203-.903-6.419-.458-3.612-.31-3.636-.755-7.236-.63-4.996-.816-5.936-1.274-9.387C14.646 7.559 19.68 1.016 26.78.114z" fill="#E8E8E8"/><path d="M20.732 13.446c.235 1.856-.322 3.463-1.262 3.587-.94.124-1.904-1.299-2.14-3.154-.234-1.855.347-3.463 1.287-3.587.94-.111 1.88 1.299 2.115 3.154z" fill="#2E3539"/><path d="M20.732 13.446c.235 1.856-.322 3.463-1.262 3.587-.94.124-1.904-1.299-2.14-3.154-.234-1.855.347-3.463 1.287-3.587.94-.111 1.88 1.299 2.115 3.154zm14.014-1.767c.235 1.855-.297 3.45-1.187 3.562-.89.111-1.794-1.299-2.029-3.154-.235-1.855.297-3.451 1.188-3.562.89-.112 1.793 1.298 2.028 3.154z" fill="#2E3539"/><path d="M34.746 11.679c.235 1.855-.297 3.45-1.187 3.562-.89.111-1.794-1.299-2.029-3.154-.235-1.855.297-3.451 1.188-3.562.89-.112 1.793 1.298 2.028 3.154z" fill="#2E3539"/><path d="M21.697 21.857C10.861 23.23 10.861 23.205.015 24.577h.024c-.346-2.782 4.626-5.083 7.397-5.553 8.373-1.447 5.009-1.113 13.011-2.115 1.744-.222 2.944 1.163 3.179 2.647" fill="#E27C0D"/><path d="M5.53 30.677c.347.247.755.408 1.188.433 2.041.099 5.046-1.72 6.988-3.216 5.257-4.045 3.03-2.14 8.275-6.184 2.214-1.72 2.078-2.87.148-3.278-.73-.148-.581.458-1.175.915-7.52 5.801-8.868 4.849-16.4 10.637.012.012.581.408.977.693zm33.075 19.84c-4.837 5.207-.582 9.66-7.211 12.232-6.518 2.523-6.506-2.573-13.309-4.193-.556-.136-1.447.198-1.348.767.532 3.34.804 4.811 1.484 6.258.371.792 3.872 5.702 4.267 5.578 7.298-2.177 4.379-1.014 10.538-4.873 6.927-4.354 5.306-6.53 8.312-14.137.668-1.682-1.682-2.758-2.733-1.633z" fill="#E27C0D"/><path d="M50.7 42.995c-1.558 1.447-3.87 1.521-5.875 1.36-2.4-.198-4.898-.754-6.889-2.177-1.707-1.224-2.882-3.092-2.87-5.231.013-2.326 1.163-4.626 2.648-6.358.828-.965 1.793-1.843 2.881-2.51.903-.557 2.153-1.126 3.179-.557 1.25.692 2.362-1.225 1.113-1.905-2.696-1.497-5.726.47-7.68 2.313-2.066 1.93-3.724 4.601-4.194 7.409-.482 2.906.409 5.702 2.548 7.73 2.19 2.078 5.12 2.98 8.065 3.364 2.98.396 6.32.297 8.633-1.88 1.039-.965-.52-2.535-1.559-1.558z" fill="#273257"/><path d="M57.973 14.338c3.377.63 7.112 1.249 9.35 3.859 2.314 2.696 2.561 6.666 1.56 10.08-.174.606-.396 1.25-.867 1.67-.606.544-1.484.618-2.3.63-6.555.037-12.9-3.982-19.418-3.215-.495.062-1.015.136-1.485-.062-.544-.235-.866-.792-1.125-1.324a19.277 19.277 0 01-1.868-9.697c.025-.321.062-.667.285-.902.222-.235 2.647-.89 4.576-1.2.012.012 5.776-.866 11.292.16z" fill="#273257"/><path d="M40.261 29.45c-5.009 2.832-3.067 7.866 1.423 11.466 12.22 9.808 16.227 3.351 25.54-13.358.631-1.126 4.107-6.53 3.711-8.67-2.078-11.305-19.097 4.031-30.674 10.562z" fill="#BABAB9"/><path d="M44.59 36.773a.612.612 0 01-.408-.099.624.624 0 01-.173-.84c.31-.459 7.669-11.38 17.687-15.214a.603.603 0 11.433 1.125C52.48 25.444 45.098 36.39 45.023 36.502a.688.688 0 01-.433.272zm5.071.743c-.297.037-.482.05-.507.05a.597.597 0 01-.618-.582.597.597 0 01.58-.619c.038 0 3.835-.173 4.318-2.882.383-2.152 2.263-2.263 3.512-2.35.52-.037 1.175-.074 1.336-.272.087-.099.062-.321.05-.445-.236-1.905 1.545-2.548 2.733-2.98.358-.137.89-.322 1.051-.47-.012-.013-.012-.038-.037-.063a.595.595 0 01.21-.828.595.595 0 01.829.21c.284.458.235.841.16 1.076-.222.643-.952.903-1.793 1.212-1.768.631-2.028 1.04-1.941 1.695.074.569-.038 1.026-.322 1.373-.495.593-1.36.655-2.19.705-1.347.086-2.188.198-2.399 1.36-.272 1.534-1.323 2.697-3.042 3.352a8.734 8.734 0 01-1.93.458z" fill="#2E3539"/></svg>