<svg width="107" height="96" viewBox="0 0 107 96" fill="none" xmlns="http://www.w3.org/2000/svg"><path d="M64.857 70.896c8.947 4.137 12.207-2.588 19.21 4.342 7.382 7.31 2.075 10.19 5.628 19.94.307.834.892.731 1.681-.117 6.74-7.368 12.207-13.025 14.137-16.169.804-1.3 1.52-2.836.57-3.099-19.867-5.54-19.809-6.3-40.247-9.093-2.426-.336-2.88 3.319-.98 4.196z" fill="#E27C0D"/><path d="M36.627.154l.147-.015C46.159-1.059 54.9 5.636 56.232 14.992c.716 4.971 1.096 6.111 1.973 13.026.614 4.868.468 4.898 1.097 9.766.54 4.342-3.348 8.157 1.008 8.596 17.236 1.74 19.356-8.523 33.244-5.672 2.734.555 4.65 3.084 4.46 5.862-1.112 16.27-18.582 29.34-35.38 31.46-11.563 1.462-22.352-1.17-29.442-9.37-4.181-4.825-6.827-10.994-7.69-17.807-.54-4.342-.672-4.313-1.213-8.654-.614-4.868-.41-4.898-1.023-9.766-.848-6.74-1.097-8.011-1.71-12.66-1.303-9.576 5.495-18.406 15.07-19.619z" fill="#E8E8E8"/><path d="M28.47 18.135c.321 2.515-.425 4.678-1.711 4.84-1.272.16-2.573-1.755-2.88-4.27-.322-2.514.468-4.678 1.74-4.838 1.271-.147 2.529 1.768 2.85 4.268z" fill="#2E3539"/><path d="M28.47 18.135c.321 2.515-.425 4.678-1.711 4.84-1.272.16-2.573-1.755-2.88-4.27-.322-2.514.468-4.678 1.74-4.838 1.271-.147 2.529 1.768 2.85 4.268zm18.918-2.382c.321 2.514-.395 4.663-1.594 4.81-1.199.146-2.427-1.755-2.748-4.27-.322-2.514.394-4.663 1.593-4.81 1.199-.145 2.427 1.77 2.748 4.27z" fill="#2E3539"/><path d="M47.388 15.753c.321 2.514-.395 4.663-1.594 4.81-1.199.146-2.427-1.755-2.748-4.27-.322-2.514.394-4.663 1.593-4.81 1.199-.145 2.427 1.77 2.748 4.27z" fill="#2E3539"/><path d="M29.772 29.48c-14.62 1.842-14.634 1.813-29.253 3.67h.03c-.469-3.758 6.242-6.857 9.97-7.5 11.3-1.944 6.768-1.506 17.557-2.865 2.354-.293 3.977 1.578 4.283 3.567" fill="#E27C0D"/><path d="M7.96 41.38c.468.336 1.023.555 1.593.585 2.763.131 6.813-2.31 9.43-4.342 7.09-5.468 4.078-2.88 11.169-8.348 2.997-2.31 2.806-3.874.19-4.415-.98-.204-.79.629-1.58 1.243-10.145 7.821-11.972 6.535-22.118 14.356 0 0 .775.54 1.316.92zm44.618 26.782c-6.52 7.032-.79 13.04-9.722 16.505-8.8 3.407-8.786-3.479-17.967-5.672-.76-.175-1.944.263-1.827 1.023.716 4.503 1.082 6.491 2.003 8.45.497 1.067 5.219 7.69 5.76 7.53 9.853-2.94 5.906-1.36 14.224-6.58 9.356-5.876 7.149-8.815 11.227-19.077.892-2.252-2.266-3.714-3.698-2.179z" fill="#E27C0D"/><path d="M68.907 58.002c-2.09 1.959-5.205 2.061-7.894 1.842-3.202-.263-6.52-.994-9.21-2.85-2.369-1.624-4.006-4.197-4.006-7.106 0-3.128 1.535-6.227 3.538-8.581 1.096-1.287 2.368-2.456 3.8-3.363 1.243-.789 2.998-1.608 4.416-.818 1.68.935 3.186-1.638 1.505-2.573-3.67-2.047-7.806.687-10.452 3.187-2.763 2.631-5 6.227-5.6 10.043-.306 1.974-.248 4.035.498 5.92a12.155 12.155 0 003.084 4.518c2.968 2.734 6.871 3.918 10.79 4.43 4.02.526 8.508.394 11.636-2.53 1.403-1.315-.716-3.42-2.105-2.12z" fill="#C81432"/><path d="M79.301 18.896c4.605.526 9.78.848 12.806 4.37 3.114 3.641 2.763 9.109 1.418 13.7-.248.818-.54 1.68-1.17 2.25-.818.731-2.002.848-3.113.848-8.86.044-17.485-4.093-26.285-3.055-.673.073-1.374.175-1.988-.088-.731-.307-1.17-1.067-1.506-1.783a25.945 25.945 0 01-2.515-13.084c-.014 0 9.751-4.576 22.353-3.158z" fill="#C81432"/><path d="M54.83 39.743c-6.77 3.815-4.138 10.613 1.914 15.467 16.49 13.23 21.885 4.532 34.472-18.026.848-1.52 5.03-9.838 4.386-11.446-5.833-14.4-25.16 5.175-40.773 14.005z" fill="#BABAB9"/><path d="M60.662 49.61a.773.773 0 01-.556-.131.806.806 0 01-.219-1.126c.41-.628 10.35-15.35 23.859-20.54a.81.81 0 011.052.468.81.81 0 01-.468 1.053c-13.025 4.985-22.996 19.765-23.083 19.911a.88.88 0 01-.585.366zm6.856 1.01c-.41.043-.658.058-.687.058a.827.827 0 01-.848-.79.827.827 0 01.79-.847c.058 0 5.175-.234 5.818-3.875.526-2.894 3.055-3.055 4.736-3.172.702-.044 1.594-.102 1.813-.365.117-.132.088-.439.073-.6-.321-2.573 2.09-3.435 3.684-4.02.483-.175 1.199-.439 1.418-.629a.32.32 0 01-.044-.073.808.808 0 01.278-1.11.811.811 0 011.111.277c.38.629.322 1.126.205 1.447-.307.877-1.287 1.228-2.427 1.638-2.383.862-2.734 1.403-2.617 2.28.103.76-.043 1.389-.424 1.842-.672.804-1.827.877-2.953.95-1.827.117-2.953.264-3.23 1.828-.366 2.076-1.784 3.64-4.094 4.517a11.01 11.01 0 01-2.602.643z" fill="#2E3539"/></svg>