<svg width="137" height="150" viewBox="0 0 137 150" fill="none" xmlns="http://www.w3.org/2000/svg"><path d="M30.328 37.602c2.693 0 4.877-2.194 4.877-4.9 0-2.705-2.184-4.899-4.877-4.899-2.693 0-4.876 2.194-4.876 4.9 0 2.705 2.183 4.899 4.876 4.899z" fill="#E7D911"/><path d="M30.458 28.587c1.425 0 2.58-1.17 2.58-2.613s-1.155-2.613-2.58-2.613c-1.424 0-2.579 1.17-2.579 2.613s1.155 2.613 2.58 2.613z" fill="#E7D911"/><path d="M27.5 132.236l.683-2.047 25.931.969 6.752-25.596 5.559 1.48-7.77 29.484-25.824 7.817-1.192-1.002c-2.275-1.916-5.71-6.412-4.14-11.105z" fill="#EE8207"/><path d="M49.162.192c10.23 0 18.595 8.405 18.595 18.683v48.831h63.34c0 25.585-28.944 43.55-54.41 43.55-16.027 0-30.148-5.444-38.416-17.91-4.865-7.338-7.705-16.157-7.705-25.64V18.875C30.566 8.597 38.932.192 49.162.192z" fill="#ECECEC"/><path d="M53.323 17.482c0 2.983.943 5.4 2.102 5.4 1.16 0 2.103-2.417 2.103-5.4 0-2.984-.943-5.4-2.102-5.4-1.16 0-2.103 2.416-2.103 5.4zm-22.692 0c0 2.983.943 5.4 2.103 5.4 1.16 0 2.102-2.417 2.102-5.4 0-2.984-.943-5.4-2.102-5.4-1.16 0-2.103 2.416-2.103 5.4z" fill="#1E1E1C"/><path d="M67.747 67.695V93.76s35.999 11.312 63.34-26.065h-63.34z" fill="#C7C6C6"/><path d="M110.345 53.791v12.02l11.498 2.602.065.98c.152 2.243-1.875 3.81-3.099 4.388l-.64.294-10.435-6.446V53.78h2.611v.011z" fill="#EE8207"/><path d="M116.176 6.453h-5.072c-4.638 0-8.442 3.821-8.442 8.481v22.167H78.974c0 11.617 13.144 19.772 24.707 19.772 7.282 0 13.687-2.472 17.447-8.133a20.99 20.99 0 003.5-11.639V14.934c-.011-4.67-3.814-8.481-8.452-8.481z" fill="#ECECEC"/><path d="M102.651 37.1v9.745s-13.459 4.224-23.688-9.744h23.688z" fill="#C7C6C6"/><path d="M97.136 53.791V66.16l11.432 6.151-.357 1.056c-2.027 5.923-9.482 6.391-11.78 6.391-.368 0-.606-.01-.672-.01l-1.224-.077v-25.88h2.6z" fill="#EE8207"/><path d="M120.802 16.98c0 1.59.499 2.875 1.117 2.875.617 0 1.116-1.285 1.116-2.874 0-1.59-.499-2.875-1.116-2.875-.618 0-1.117 1.285-1.117 2.875zm-12.06 0c0 1.59.498 2.875 1.116 2.875.618 0 1.116-1.285 1.116-2.874 0-1.59-.498-2.875-1.116-2.875-.618 0-1.116 1.285-1.116 2.875z" fill="#1E1E1C"/><path d="M118.267 23.502h18.4c0-2.373-1.929-4.311-4.291-4.311h-13.578c-1.474 0-1.81 1.688-1.842 2.95" fill="#EE8207"/><path d="M132.419 29.469c-.596 1.023-2.752.87-4.789-.338l-9.634-5.672c-2.037-1.209-.444-2.765-.444-2.765l1.083.642 13.784 8.133zm-45.567 72.587l24.902 23.397-3.24 24.073-24.783-3.267 19.094-17.55-19.766-23.387 3.793-3.266z" fill="#EE8207"/><path d="M66.013 35.827c2.849 0 5.158-2.32 5.158-5.182 0-2.863-2.31-5.183-5.158-5.183-2.849 0-5.158 2.32-5.158 5.183 0 2.862 2.31 5.182 5.158 5.182z" fill="#E7D911"/><path d="M66.154 26.268c1.508 0 2.73-1.238 2.73-2.765 0-1.528-1.222-2.766-2.73-2.766s-2.73 1.238-2.73 2.766c0 1.527 1.222 2.765 2.73 2.765z" fill="#E7D911"/><path d="M.333 28.424c0-5.226 4.258-9.505 9.46-9.505h29.909c5.201 0 3.934 9.505 3.934 9.505H.331z" fill="#EE8207"/></svg>