<svg width="291" height="219" viewBox="0 0 291 219" fill="none" xmlns="http://www.w3.org/2000/svg"><path d="M182.415 130.366c-5.744 15.179 7.132 20.965-4.692 32.129-11.631 10.972-15.996.153-31.834 2.572-1.287.193-2.87 1.655-2.218 2.791 4.002 6.608 5.817 9.502 8.568 11.987 1.44 1.362 13.099 8.719 13.845 8.118 13.59-10.903 8.423-5.922 18.131-19.422 10.94-15.178 5.613-18.372 5.427-37.108-.103-4.118-5.971-4.383-7.227-1.067zm.246 54.247c3.119 16.653 33.548 23.227 34.139 22.931.184-.136.269-.343.362-.602 6.761-34.285 8.078-34.31 10.058-69.191.234-4.178-6.017-4.445-7.22-1.122-5.814 15.662 5.981 20.249-4.826 33.039-11.337 13.424-16.959 4.825-32.974 12.142-.062.045-.115.038-.123.091-1.12.546.308 1.249.584 2.712z" fill="#E37B0B"/><path d="M181.66 11.055c8.268-3.756 18.091-1.375 23.582 5.891 3.666 4.808 3.95 11.032 4.532 17.463 1.653 19.172.017 52.464-1.216 60.815-1.1 7.441-14.275-4.461-7.711-.756 17.281 9.664 19.58 2.619 39.173 5.513 2.784.412 5.233.5 7.43.442 17.935-.688 27.306 21.046 14.366 33.467-3.445 3.32-7.308 6.141-11.389 8.219-14.07 7.111-31.134 9.678-46.498 7.408-19.862-2.934-36.611-11.754-44.566-28.629-4.66-9.933-6.082-21.412-4.358-33.083l2.199-14.883c1.233-8.351 1.287-8.343 2.521-16.695 2.111-14.294 2.165-14.286 4.276-28.58 1.139-7.709 10.511-13.38 17.659-16.592z" fill="#E8E8E8"/><path d="M191.726 29.938c-.546 3.694.197 6.812 1.642 7.026 1.446.214 3.059-2.557 3.604-6.25.546-3.695-.189-6.867-1.634-7.08-1.446-.214-3.074 2.664-3.612 6.304z" fill="#2D363A"/><path d="M191.726 29.938c-.546 3.694.197 6.812 1.642 7.026 1.446.214 3.059-2.557 3.604-6.25.546-3.695-.189-6.867-1.634-7.08-1.446-.214-3.074 2.664-3.612 6.304zm-28.052-4.144c-.546 3.694.197 6.812 1.642 7.026 1.446.213 3.058-2.557 3.604-6.251.546-3.694-.189-6.866-1.635-7.08-1.445-.213-3.074 2.664-3.611 6.305z" fill="#2D363A"/><path d="M163.674 25.794c-.546 3.694.197 6.812 1.642 7.026 1.446.213 3.058-2.557 3.604-6.251.546-3.694-.189-6.866-1.635-7.08-1.445-.213-3.074 2.664-3.611 6.305z" fill="#2D363A"/><path d="M123.777 30.731c.949-6.424 6.579-8.984 13.056-8.027 18.524 2.737 18.516 2.79 36.985 5.519 6.424.949 6.958 6.224 3.201 12.398-.925 1.45-5.563-.11-7.223-.356-25.153-3.77-46.019-9.534-46.019-9.534z" fill="#E37B0B"/><path d="M206.109 88.845c-15.189 5.797-19.332 19.025-4.676 32.022 17.025 15.097 36.915 5.617 44.581 2.975 9.444-3.2 20.042-7.542 30.514-16.225 4.741-3.949 2.482-11.613-3.653-12.3-8.23-.943-14.4 4.163-27.702-.592-19.597-6.943-19.582-13.341-39.064-5.88z" fill="#BCBCBC"/><path d="M229.749 117.665c5.943.878 11.448.269 15.923-.766 10.765-2.512 18.253-8.025 18.56-8.253a1.11 1.11 0 00-1.323-1.782c-.123.091-7.488 5.513-17.793 7.874-6.007 1.411-11.878 1.528-17.39.331-6.888-1.51-13.262-5.023-18.968-10.461-.427-.446-1.147-.388-1.592.038-.446.427-.389 1.147.038 1.592 7.527 7.185 15.372 10.367 22.545 11.427z" fill="#2D363A"/><path d="M234.756 112.661c8.833 1.305 20.671-4.769 21.315-5.057.537-.303.747-.984.497-1.513-.303-.537-.984-.747-1.513-.497-.061.046-4.327 2.26-9.515 3.682-4.621 1.287-10.894 2.274-14.593-.46-.496-.347-1.215-.289-1.57.26-.347.496-.289 1.216.26 1.57 1.426 1.086 3.191 1.73 5.119 2.015zm-179.069 9.313c.302 0 .528-.076.754-.302.528-.452.528-1.206.151-1.734-.754-.829-18.02-20.66-38.83-25.711-.68-.151-1.282.226-1.433.904-.151.679.226 1.282.904 1.433 20.057 4.901 37.399 24.731 37.625 24.957.15.302.528.453.83.453zm-9.878 2.789h.98c.679-.075 1.131-.678 1.056-1.281-.076-.679-.679-1.131-1.282-1.056-.075 0-7.615.603-9.274-4.599-1.282-4.147-5.052-3.921-7.54-3.77-1.056.075-2.337.15-2.714-.227-.151-.15-.227-.603-.227-.904 0-3.846-3.694-4.675-6.183-5.203-.753-.151-1.809-.377-2.186-.679 0 0 0-.075.075-.15.302-.604 0-1.282-.603-1.584-.603-.301-1.282 0-1.583.603-.453.981-.302 1.735-.076 2.187.604 1.206 2.111 1.583 3.846 1.96 3.619.83 4.297 1.584 4.297 2.866 0 1.131.302 2.035.98 2.639 1.132 1.055 2.866.98 4.525.829 2.714-.151 4.373-.151 5.127 2.111.905 2.941 3.317 4.977 6.861 5.881a21.6 21.6 0 003.921.377z" fill="#2D363A"/><path d="M73.933 156.733c3.016 13.873-8.822 17.191 0 28.35 8.671 10.933 13.798 2.187 27.144 6.334 1.131.377 2.262 1.809 1.583 2.714-4.297 5.203-6.258 7.465-8.897 9.274-1.432.98-12.44 5.881-12.969 5.278-10.33-11.159-6.484-6.183-13.194-19.076-7.465-14.552-2.489-16.588.075-32.723.528-3.695 5.655-3.243 6.258-.151z" fill="#E37B0B"/><path d="M81.85 44.915h-.226c-14.024 0-25.636 11.461-25.862 25.41-.15 7.465-.452 9.199-.452 19.528 0 7.239.226 7.239.226 14.553 0 6.484 6.409 11.385.15 12.818-24.957 5.73-30.008-8.973-49.839-2.187a8.359 8.359 0 00-5.504 9.425c4.675 23.675 32.724 39.66 57.756 39.66 17.267 0 32.573-5.881 41.47-19.227 5.203-7.841 7.993-17.417 7.993-27.596 0-6.484.15-6.484.15-12.969 0-7.238-.301-7.238-.301-14.552 0-10.028.151-11.989.151-18.925.15-14.25-11.461-25.938-25.712-25.938z" fill="#E8E8E8"/><path d="M62.473 106.441c10.632 4.374 8.068 14.779.076 23.073-21.79 22.469-31.291 10.706-53.986-20.057-1.508-2.035-9.2-13.496-8.52-15.984 5.805-22.243 37.85 2.865 62.43 12.968z" fill="#BCBCBC"/><path d="M42.718 156.657c3.016 14.251-7.766 16.739-.076 29.18 8.068 13.044 14.025 6.334 26.918 14.703 1.131.754.754 1.508-.754 2.413-12.893 7.314-22.846 13.346-27.973 15.08-2.111.754-4.6 1.282-4.675-.226-1.433-30.462-2.564-30.688.15-61.074.378-3.619 5.807-3.092 6.41-.076z" fill="#E37B0B"/><path d="M97.156 69.797c0 3.77 1.508 6.786 3.393 6.786 1.885 0 3.468-3.016 3.468-6.786 0-3.77-1.583-6.786-3.468-6.786s-3.393 3.092-3.393 6.786z" fill="#2D363A"/><path d="M97.156 69.797c0 3.77 1.508 6.786 3.393 6.786 1.885 0 3.468-3.016 3.468-6.786 0-3.77-1.583-6.786-3.468-6.786s-3.393 3.092-3.393 6.786zm-28.199 0c0 3.77 1.433 6.786 3.242 6.786 1.81 0 3.242-3.016 3.242-6.786 0-3.77-1.432-6.786-3.242-6.786-1.81.075-3.242 3.091-3.242 6.786z" fill="#2D363A"/><path d="M68.957 69.797c0 3.77 1.433 6.786 3.242 6.786 1.81 0 3.242-3.016 3.242-6.786 0-3.77-1.432-6.786-3.242-6.786-1.81.075-3.242 3.091-3.242 6.786z" fill="#2D363A"/><path d="M97.308 86.762c21.79 0 21.79-.075 43.656-.075 0-5.58-10.405-8.897-16.06-9.199-16.965-.754-10.179-.98-26.315-.98-3.468 0-5.58 3.016-5.655 6.032" fill="#E37B0B"/><path d="M131.538 100.183c-.603.604-1.432.981-2.262 1.131-3.996.679-10.405-2.11-14.627-4.6-11.386-6.71-6.56-3.467-17.945-10.178-4.826-2.865-4.826-5.203-1.131-6.484 1.432-.453 1.282.754 2.563 1.508 16.362 9.575 18.775 7.389 35.137 16.965.075 0-.981.98-1.735 1.658z" fill="#E37B0B"/></svg>