<svg width="140" height="152" viewBox="0 0 140 152" fill="none" xmlns="http://www.w3.org/2000/svg"><path d="M76.22 106.578c10.85 8.12 18.45-.85 24.65 11.2 6.11 11.87-3.57 12.87-5.27 26.11-.14 1.09.66 2.7 1.72 2.41 6.22-1.67 8.97-2.49 11.57-4.08 1.42-.86 10.03-8.49 9.72-9.22-5.6-13.41-2.8-8.1-11.38-19-9.65-12.27-13.46-8.74-28.5-12.92-3.29-.93-4.88 3.73-2.51 5.5z" fill="#E27C0D"/><path d="M45.7.758c7.45-1.39 14.47-1.3 19.87 4.01 3.6 3.54 4.61 8.6 5.85 13.85 3.7 15.6 6.4 43.29 6.4 50.34 0 6.27-12.32-1.93-6.46.29 15.45 5.86 16.49-.22 33.02-.22 2.35 0 4.35-.37 6.17-.54 25.48-2.5 41.76-10.7 15.94 25.87-2.31 3.28-5.28 5.96-8.39 8.16-10.75 7.6-24.51 11.79-37.45 11.79-16.73 0-31.65-5.25-40.28-18.21-5.08-7.63-7.61-16.91-7.61-26.76 0-6.27-.01-6.27-.01-12.54 0-7.05.07-7.05.07-14.1 0-12.04.02-12.04.02-24.09 0-6.47 2.11-15.85 12.86-17.85z" fill="#E8E8E8"/><path d="M56.01 17.188c0 3.1 1.01 5.6 2.22 5.6 1.21 0 2.22-2.5 2.22-5.6 0-3.1-1-5.63-2.22-5.63-1.22 0-2.22 2.53-2.22 5.63z" fill="#2E3539"/><path d="M56.01 17.188c0 3.1 1.01 5.6 2.22 5.6 1.21 0 2.22-2.5 2.22-5.6 0-3.1-1-5.63-2.22-5.63-1.22 0-2.22 2.53-2.22 5.63zm-21.42-.38c0 3.1.99 5.59 2.2 5.59 1.21 0 2.21-2.49 2.21-5.59 0-3.1-1-5.64-2.21-5.64-1.22 0-2.2 2.54-2.2 5.64z" fill="#2E3539"/><path d="M0 26.108c0-5.43 4.35-8.22 9.78-8.22 15.61 0 15.61.02 31.22.02 5.43 0 6.5 4.3 4.14 9.83-.57 1.33-4.58.57-6.03.57-21.15.01-39.11-2.2-39.11-2.2z" fill="#E27C0D"/><path d="M95.43 98.968s-6.89-.17-6.19 8.27l1.7 20.68a3.815 3.815 0 002.38 3.2c1.71.7 4.21 1.35 6.72.73 3.53-.87 19.33-7.55 25.92-10.36 1.75-.75 2.85-2.45 2.77-4.3l-1.06-25.29-32.24 7.07z" fill="#106FAE"/><path d="M97.95 132.708c-1.87 0-3.6-.51-4.86-1.02-1.57-.64-2.63-2.06-2.76-3.72l-1.7-20.68c-.24-2.97.38-5.28 1.87-6.86 1.85-1.96 4.38-2.08 4.87-2.08l32.9-7.23 1.09 26.03c.09 2.09-1.18 4.05-3.15 4.89-6.63 2.83-22.44 9.52-26.01 10.4-.76.19-1.52.27-2.25.27zm-2.54-33.12c-.18 0-2.45.04-4.02 1.7-1.23 1.31-1.74 3.29-1.53 5.89l1.7 20.68c.1 1.19.86 2.21 2 2.67 1.58.64 3.97 1.29 6.34.7 3.48-.86 19.22-7.51 25.82-10.33 1.52-.65 2.46-2.1 2.4-3.7l-1.03-24.56-31.6 6.94h-.07c0 .01-.01.01-.01.01z" fill="#0C3D58"/><path d="M94.57 104.119l1.67 11.21c.42 2.7 3.28 4.28 5.79 3.21l24.94-10.71a4.2 4.2 0 002.52-4.37L128 91.309a4.18 4.18 0 00-4.09-3.68l-3.05-.05c-.62-.01-1.79.16-2.36.42l-26.67 11.23a.963.963 0 00-.22 1.62c1.21 1.01 2.9 2.54 2.96 3.27z" fill="#106FAE"/><path d="M100.38 119.508c-.8 0-1.61-.2-2.33-.61a4.796 4.796 0 01-2.43-3.47l-1.68-11.25c-.01-.05-.18-.71-2.73-2.84-.42-.35-.63-.89-.56-1.43.07-.55.42-1.01.92-1.24l26.68-11.24c.64-.29 1.9-.49 2.61-.47l3.05.05c2.39.04 4.41 1.86 4.7 4.24l1.49 12.15c.26 2.12-.93 4.19-2.89 5.02l-24.94 10.71c-.6.25-1.25.38-1.89.38zm-5.19-15.46l1.67 11.19c.17 1.09.82 2.03 1.79 2.56.97.54 2.11.6 3.13.16l24.94-10.71a3.59 3.59 0 002.14-3.71l-1.49-12.15a3.588 3.588 0 00-3.48-3.13l-3.05-.05c-.56-.01-1.63.16-2.08.36l-26.68 11.24c-.14.06-.17.2-.18.26-.01.07-.01.2.12.3 3.02 2.52 3.14 3.33 3.17 3.68z" fill="#0C3D58"/><path d="M110.78 114.128l.36 6.22 7.95-3.22-.55-6.22-7.76 3.22zm-18.94-7.19c-.96 0-1.91-.31-2.72-.91l.74-1.02c.76.55 1.66.77 2.54.62.76-.13 1.43-.54 1.8-1.08l1.04.7c-.55.82-1.53 1.43-2.63 1.62-.26.05-.52.07-.77.07zm6.33-7.86l-1.03-6.6c-.38-2.41 1.08-4.78 3.39-5.5l9.45-2.94c1.35-.42 2.81-.23 4.01.51 1.22.76 2.05 2.01 2.28 3.44l.74 4.39-1.25.21-.75-4.4c-.17-1.07-.79-2-1.7-2.57a3.61 3.61 0 00-2.97-.38l-9.45 2.94c-1.72.53-2.8 2.29-2.52 4.09l1.03 6.6-1.23.21z" fill="#0C3D58"/><path d="M78.22 65.628v24.12s33.46 10.46 58.88-24.12H78.22z" fill="#273257"/><path d="M34.85 123.218c-2.92 13.82 18.44 28.61 19.01 28.56.17-.05.33-.17.45-.36 16.14-24.29 17.15-23.87 29.83-50.13 1.51-3.13-3.21-5.33-5.22-3.16-9.48 10.21-1.86 17.54-14.24 23.93-13.05 6.73-14.6-1.67-29.27-1.15-.04 0-.08.01-.12.01-1.06.1-.18 1.11-.44 2.3z" fill="#E27C0D"/><path d="M50.96 66.348l1.99-6.31h-8.11l1.62 6.5 4.5-.19zm.33 1l2.33 22.18-5.33 4.99-4.16-4.33 2.66-22.65 4.5-.19z" fill="#DF5C2A"/></svg>