<svg width="100" height="111" viewBox="0 0 100 111" fill="none" xmlns="http://www.w3.org/2000/svg"><path d="M45.66 7.59l.66-.26c-.26.09-.53.16-.79.21-2.64-1.03-4.6-6.03-4.6-6.03-.74 1.71-1.05 3.14-1.1 4.33-2.86-2.2-4.75-5.62-4.75-5.62-4.96 8.1 1.49 10.91 1.49 10.91l4.18-1.63c.52.79 1.07 1.13 1.07 1.13l5.76-3.18c-.67.34-1.31.35-1.92.14z" fill="#ECECEC"/><path d="M38.43 55.27l-3.85 14.36s-21.6.9-31.23-23.75l35.08 9.39z" fill="#C7C6C6"/><path d="M53.22 77.86l1.4 18.29-17.26 5.31.01 1.49c.03 3.43 3.31 5.58 5.25 6.31l1.01.38 15.2-11.02-1.61-21.07-4 .31z" fill="#EE8207"/><path d="M42.44 6.54h7.78c7.12 0 12.94 5.82 12.94 12.94V53.3h36.31c0 17.73-20.14 30.17-37.87 30.17-11.16 0-20.98-3.77-26.74-12.41A31.911 31.911 0 0129.5 53.3V19.48c0-7.12 5.83-12.94 12.94-12.94z" fill="#ECECEC"/><path d="M63.16 53.3v14.87s20.63 6.45 36.31-14.87H63.16z" fill="#C7C6C6"/><path d="M65.89 78.29l12.69 11.1-4.48 19.36 1.58.64c8.85 3.61 16.91-4.52 19.23-7.17.38-.43.6-.72.66-.79l1.16-1.49-28.21-24.67c-.83-.73-2.1-.64-2.83.19-.72.84-.64 2.11.2 2.83z" fill="#EE8207"/><path d="M35.35 22.6c0 2.42-.77 4.38-1.71 4.38-.95 0-1.72-1.96-1.72-4.38s.77-4.38 1.72-4.38c.94 0 1.71 1.96 1.71 4.38zm18.48 0c0 2.42-.77 4.38-1.71 4.38-.95 0-1.71-1.96-1.71-4.38s.77-4.38 1.71-4.38 1.71 1.96 1.71 4.38z" fill="#1E1E1C"/><path d="M39.24 32.55H11.03c0-3.62 2.96-6.58 6.58-6.58h20.81c2.26 0 2.77 2.57 2.82 4.5" fill="#EE8207"/><path d="M17.55 41.65c.92 1.56 4.23 1.33 7.34-.51l14.77-8.66c3.12-1.84.68-4.23.68-4.23l-1.66.98-21.13 12.42z" fill="#EE8207"/><path d="M12.43 56.76l-5.97 1.61c-.72.2-1.47-.23-1.66-.96L.98 43.27c-.2-.72.23-1.47.96-1.66L7.91 40c.72-.2 1.47.23 1.66.96l3.82 14.14c.19.72-.24 1.47-.96 1.66z" fill="#3D3D3B"/><path d="M11.26 55.2l-4.5 1.21c-.57.15-1.16-.18-1.31-.75L2.33 44.11c-.15-.57.18-1.16.75-1.31l4.5-1.21c.57-.15 1.16.18 1.31.75l3.12 11.55c.16.57-.18 1.16-.75 1.31z" fill="#60A581"/><path d="M7.63 57.11c3.452 0 6.25-3.071 6.25-6.86 0-3.788-2.798-6.86-6.25-6.86s-6.25 3.072-6.25 6.86c0 3.789 2.798 6.86 6.25 6.86z" fill="#C6C5C4"/><path d="M4.57 48.49c.56 1.07.66 2.13.21 2.37-.45.23-1.27-.45-1.83-1.52s-.66-2.13-.21-2.37c.45-.24 1.27.44 1.83 1.52z" fill="#1E1E1C"/><path d="M6.98 51.96l8.18-7.14a2.544 2.544 0 00-3.58-.24l-6.03 5.27c-.66.57-.15 1.45.32 2.02" fill="#BA5B17"/><path d="M15.569 49.11c.13.69-.89 1.45-2.26 1.71l-6.47 1.23c-1.37.26-1.27-1.05-1.27-1.05l.73-.14 9.27-1.75z" fill="#BA5B17"/></svg>