<svg width="195" height="133" viewBox="0 0 195 133" fill="none" xmlns="http://www.w3.org/2000/svg"><path d="M49.654 82.344l-4.105-.616-3.286 21.914 4.105.616 3.286-21.914z" fill="#EE8207"/><path d="M50.952 98.243l-12.798-1.922-2.443 16.285s-18.241-3.407-20.245 7.62l31.43 4.724 4.056-26.707z" fill="#F0CA40"/><path d="M37.396 0l9.227.036c8.445.035 15.312 6.979 15.276 15.43l-.083 19.062-.047 11.158-.048 9.922 43.065.19c-.095 21.033-24.053 35.704-45.07 35.609-13.235-.06-24.87-4.582-31.643-14.873a37.958 37.958 0 01-6.262-21.104l.048-9.922.047-11.158.083-19.062C22.013 6.848 28.951-.035 37.396 0z" fill="#ECECEC"/><path d="M61.721 55.62l-.083 17.65s24.445 7.763 43.137-17.46l-43.054-.19z" fill="#F0CA40"/><path d="M28.891 19.039c-.011 2.872-.936 5.199-2.051 5.187-1.127 0-2.029-2.339-2.017-5.211.012-2.872.937-5.199 2.052-5.187 1.127 0 2.028 2.338 2.016 5.21zm21.919.095c-.012 2.872-.937 5.198-2.052 5.187-1.127 0-2.028-2.339-2.016-5.211.012-2.872.937-5.199 2.052-5.187 1.126 0 2.028 2.338 2.016 5.21z" fill="#1E1E1C"/><path d="M33.458 30.873L0 30.718c.024-4.296 3.546-7.798 7.84-7.786l24.681.107c2.68.012 3.262 3.074 3.321 5.353" fill="#EE8207"/><path d="M7.686 41.555c1.079 1.852 5.005 1.602 8.717-.57l17.565-10.207c3.712-2.172.83-5.01.83-5.01L32.83 26.92 7.686 41.555zm51.172 38.247l-2.91 2.962 15.788 15.539 2.91-2.962-15.788-15.539z" fill="#EE8207"/><path d="M70.664 90.47l-9.073 9.234 11.73 11.548s-13.473 12.772-5.74 20.867l22.285-22.683-19.202-18.967z" fill="#F0CA40"/><path d="M158.791 102.376c-4.104 5.674.142 8.867-5.645 12.819-6.097 4.155-7.389.06-14.672 1.211-.628.095-.628.522-.142 1.187 4.222 5.709 7.425 10.303 9.346 12.071.795.736 1.767 1.448 2.087.819 6.571-13.116 7.093-12.961 11.825-26.848.558-1.65-1.933-2.457-2.799-1.259z" fill="#E27C0D"/><path d="M154.699 57.178h.095c6.725 0 12.288 5.495 12.406 12.213.059 3.573.225 4.404.225 9.365 0 3.49-.094 3.49-.094 6.991 0 3.11-3.084 5.46-.06 6.16 11.991 2.766 14.399-4.296 23.946-1.044 1.874.641 3.013 2.588 2.622 4.534-2.23 11.383-15.704 19.051-27.742 19.051-8.29 0-15.656-2.813-19.925-9.235-2.515-3.786-3.843-8.368-3.843-13.246 0-3.11-.095-3.11-.095-6.22 0-3.49.142-3.49.142-6.99 0-4.832-.059-5.757-.083-9.093-.035-6.86 5.539-12.474 12.406-12.486z" fill="#F0CA40"/><path d="M163.998 86.733c-5.111 2.088-3.866 7.11-.023 11.085 10.449 10.802 15.027 5.152 25.903-9.65.735-.996 4.423-6.492 4.103-7.69-2.822-10.671-18.182 1.424-29.983 6.255z" fill="#BABAB9"/><path d="M147.738 67.955c0 1.792-.724 3.264-1.637 3.264s-1.66-1.472-1.66-3.264c0-1.792.747-3.264 1.66-3.264.913 0 1.637 1.472 1.637 3.264z" fill="#2E3539"/><path d="M147.738 67.955c0 1.792-.724 3.264-1.637 3.264s-1.66-1.472-1.66-3.264c0-1.792.747-3.264 1.66-3.264.913 0 1.637 1.472 1.637 3.264zm8.409.653c0 1.792-.7 3.252-1.554 3.252-.854 0-1.554-1.46-1.554-3.252 0-1.792.7-3.252 1.554-3.252.854 0 1.554 1.448 1.554 3.252z" fill="#2E3539"/><path d="M156.147 68.608c0 1.792-.7 3.252-1.554 3.252-.854 0-1.554-1.46-1.554-3.252 0-1.792.7-3.252 1.554-3.252.854 0 1.554 1.448 1.554 3.252z" fill="#2E3539"/><path d="M148.9 77.878c-9.643-4.095-9.631-4.119-19.273-8.214l.012.012c1.055-2.48 6.286-1.982 8.812-1.044 7.638 2.848 4.685 1.495 11.801 4.522 1.542.653 1.874 2.386 1.352 3.727" fill="#E27C0D"/><path d="M131.252 77.38c.166.367.427.712.771.925 1.648 1.069 5.017 1.021 7.341.712 6.31-.819 3.535-.308 9.845-1.127 2.668-.356 3.107-1.377 1.696-2.647-.534-.475-.712.107-1.412.19-9.026 1.175-9.69-.273-18.715.902 0 .012.284.617.474 1.044zm34.573 32.154c4.103 5.448 9.025 2.184 10.33 8.866 1.281 6.588-3.523 5.721-6.203 11.87-.225.51-.059 1.388.498 1.4 3.238.071 4.673.06 6.156-.344.806-.214 6.037-2.694 5.989-3.086-.818-7.264-.213-4.309-2.823-10.777-2.941-7.276-5.266-6.113-11.943-10.244-1.482-.902-2.894 1.128-2.004 2.315z" fill="#E27C0D"/><path d="M167.236 94.21a.582.582 0 01-.439-.961c.344-.404 8.658-9.911 18.644-12.368a.584.584 0 01.7.427.585.585 0 01-.427.7c-9.631 2.363-17.968 11.906-18.051 12a.546.546 0 01-.427.202zm4.744 1.33c-.285 0-.475-.012-.486-.012a.567.567 0 01-.522-.63.575.575 0 01.628-.522c.036 0 3.665.297 4.448-2.22.629-1.993 2.431-1.886 3.617-1.815.499.035 1.127.071 1.305-.095.095-.083.107-.297.107-.415 0-1.84 1.779-2.244 2.953-2.505.356-.083.89-.202 1.056-.32a.2.2 0 00-.024-.06.57.57 0 01.296-.76c.297-.13.629 0 .759.297.214.475.131.831.024 1.033-.296.581-1.02.748-1.85.938-1.755.391-2.052.747-2.052 1.377 0 .545-.154.973-.462 1.258-.546.51-1.364.463-2.171.403-1.293-.083-2.111-.071-2.443 1.01-.451 1.423-1.589 2.409-3.297 2.824a8.332 8.332 0 01-1.886.214z" fill="#2E3539"/></svg>