<svg width="196" height="181" viewBox="0 0 196 181" fill="none" xmlns="http://www.w3.org/2000/svg"><path d="M28.069 99.625c-2.842 12.967 8.27 16.097.02 26.515-8.117 10.256-12.953 2.039-25.477 5.892-1.033.316-2.147 1.683-1.452 2.508 4.028 4.863 5.879 6.983 8.363 8.655 1.35.907 11.665 5.495 12.197 4.924 9.702-10.429 6.103-5.79 12.35-17.86 7.034-13.579 2.331-15.536-.051-30.634-.521-3.313-5.327-2.834-5.95 0z" fill="#E27C0D"/><path d="M9.278 2.933C15.545-1.084 27.681.007 32.997 5.216c3.537 3.466 4.529 8.42 5.746 13.559 3.629 15.27 6.287 42.387 6.287 49.289 0 6.137-12.105-1.886-6.339.285 15.172 5.74 16.195-.214 32.43-.214 2.3 0 4.294-.204 6.063-.53 14.435-2.702 24.649 13.742 15.652 25.322-2.413 3.11-5.183 5.842-8.24 7.993-10.561 7.441-24.077 11.55-36.775 11.55-16.43 0-31.08-5.138-39.555-17.83C3.276 87.168.792 78.085.792 68.44c0-6.136-.01-6.136-.01-12.283 0-6.902.062-6.902.062-13.803 0-11.795.02-11.795.02-23.59-.01-6.34 2.985-12.355 8.414-15.831z" fill="#E8E8E8"/><path d="M28.713 18.887c0 3.037.992 5.484 2.177 5.484 1.197 0 2.178-2.447 2.178-5.484 0-3.038-.981-5.515-2.177-5.515-1.186.01-2.178 2.477-2.178 5.515z" fill="#2E3539"/><path d="M28.713 18.887c0 3.037.992 5.484 2.177 5.484 1.197 0 2.178-2.447 2.178-5.484 0-3.038-.981-5.515-2.177-5.515-1.186.01-2.178 2.477-2.178 5.515zM5.332 20.63c0 3.038.971 5.475 2.157 5.475 1.196 0 2.178-2.447 2.178-5.475 0-3.038-.982-5.525-2.178-5.525-1.196.01-2.157 2.497-2.157 5.525z" fill="#2E3539"/><path d="M5.332 20.63c0 3.038.971 5.475 2.157 5.475 1.196 0 2.178-2.447 2.178-5.475 0-3.038-.982-5.525-2.178-5.525-1.196.01-2.157 2.497-2.157 5.525z" fill="#2E3539"/><path d="M59.2 29.01c-.389-5.302-4.846-7.718-10.173-7.32-15.284 1.121-15.284 1.142-30.569 2.273-5.316.388-6.052 4.67-3.343 9.899.655 1.254 4.53.224 5.94.122C41.78 32.465 59.2 29.01 59.2 29.01z" fill="#E27C0D"/><path d="M53.424 38.327c-.225 3.058-3.824 4.373-8.18 4.047-12.503-.918-12.503-.928-25.017-1.855-4.355-.316-5.03-2.804-2.913-5.78.51-.714 3.69-.051 4.856.03 16.961 1.254 31.254 3.558 31.254 3.558z" fill="#E27C0D"/><path d="M42.3 63.232c-11.594 6.483-13.403 17.687.061 26.433 15.632 10.143 30.6.112 36.489-2.895 7.248-3.71 15.335-8.481 22.808-16.76 3.384-3.75.624-9.674-4.426-9.51-6.789.214-11.154 5.066-22.523 2.844-16.767-3.283-17.523-8.441-32.41-.112z" fill="#BABAB9"/><path d="M58.187 149.78c12.606 5.781 31.407-11.407 31.49-11.968-.011-.173-.093-.346-.246-.509-19.742-20.684-19.129-21.551-41.518-39.35-2.669-2.12-5.797 1.906-4.161 4.292 7.718 11.275 16.388 5.576 19.813 18.788 3.609 13.915-4.774 13.578-7.463 27.708-.01.04-.01.081-.02.112-.134 1.05 1.022.428 2.105.927z" fill="#E27C0D"/><path d="M64.935 83.722c4.908 0 9.294-1.131 12.831-2.518 8.435-3.323 13.822-8.655 14.047-8.879a.915.915 0 000-1.295.921.921 0 00-1.298 0c-.072.072-5.398 5.332-13.485 8.492-4.723 1.845-9.447 2.63-14.047 2.335-5.746-.378-11.338-2.457-16.614-6.188a.916.916 0 00-1.278.214.912.912 0 00.215 1.274c6.921 4.893 13.659 6.565 19.63 6.565z" fill="#2E3539"/><path d="M68.37 79.063c7.331 0 16.195-6.32 16.645-6.647a.911.911 0 00.204-1.274.917.917 0 00-1.278-.204c-.03.02-3.24 2.325-7.248 4.129-3.578 1.61-8.537 3.16-11.88 1.386a.927.927 0 00-1.247.377.922.922 0 00.378 1.244c1.34.694 2.852.99 4.427.99z" fill="#2E3539"/><path d="M116.636 127.048c-2.954 13.497 8.609 16.759.021 27.606-8.455 10.673-13.485 2.13-26.52 6.136-1.074.337-2.23 1.744-1.514 2.62 4.192 5.067 6.114 7.269 8.7 9.012 1.401.948 12.146 5.719 12.699 5.128 10.1-10.857 6.348-6.025 12.861-18.595 7.32-14.139 2.433-16.178-.051-31.897-.542-3.456-5.552-2.957-6.196-.01z" fill="#E27C0D"/><path d="M101.148 26.736c6.522-4.18 15.09-3.405 20.621 2.018 3.68 3.61 4.713 8.768 5.981 14.12 3.782 15.902 6.543 44.13 6.543 51.317 0 6.392-12.596-1.967-6.605.296 15.796 5.974 16.859-.224 33.759-.224a34.74 34.74 0 006.308-.55c15.029-2.814 25.661 14.302 16.296 26.372-2.504 3.231-5.398 6.075-8.577 8.318-10.991 7.748-25.058 12.019-38.288 12.019-17.104 0-32.358-5.352-41.18-18.564-5.194-7.778-7.78-17.238-7.78-27.28 0-6.391-.011-6.391-.011-12.783 0-7.187.071-7.187.071-14.374 0-12.274.02-12.274.02-24.558-.01-6.606 7.188-12.508 12.842-16.127z" fill="#E8E8E8"/><path d="M111.985 41.406c0 3.16 1.032 5.709 2.27 5.709 1.237 0 2.269-2.549 2.269-5.709 0-3.16-1.022-5.74-2.269-5.74-1.238 0-2.27 2.58-2.27 5.74z" fill="#2E3539"/><path d="M111.985 41.406c0 3.16 1.032 5.709 2.27 5.709 1.237 0 2.269-2.549 2.269-5.709 0-3.16-1.022-5.74-2.269-5.74-1.238 0-2.27 2.58-2.27 5.74zm-24.19 0c0 3.16 1.013 5.699 2.25 5.699s2.259-2.539 2.259-5.699c0-3.16-1.022-5.75-2.26-5.75-1.247 0-2.249 2.59-2.249 5.75z" fill="#2E3539"/><path d="M87.795 41.406c0 3.16 1.013 5.699 2.25 5.699s2.259-2.539 2.259-5.699c0-3.16-1.022-5.75-2.26-5.75-1.247 0-2.249 2.59-2.249 5.75z" fill="#2E3539"/><path d="M54.732 50.5c0-5.536 4.448-8.38 10-8.38 15.958 0 15.958.02 31.917.02 5.552 0 6.646 4.383 4.233 10.02-.583 1.357-4.683.582-6.165.582-21.623.01-39.985-2.243-39.985-2.243z" fill="#E27C0D"/><path d="M131.45 89.156c-12.074 6.759-13.955 18.421.062 27.514 16.265 10.561 31.857.122 37.981-3.017 7.555-3.864 15.959-8.829 23.739-17.443 3.517-3.904.654-10.072-4.611-9.909-7.065.225-11.614 5.27-23.453 2.957-17.431-3.405-18.219-8.777-33.718-.102z" fill="#BABAB9"/><path d="M147.992 179.263c13.117 6.024 32.706-11.877 32.778-12.458a.818.818 0 00-.256-.53c-20.56-21.53-19.916-22.437-43.226-40.97-2.781-2.213-6.042 1.987-4.335 4.475 8.036 11.733 17.064 5.8 20.632 19.563 3.762 14.496-4.969 14.129-7.77 28.839-.01.041-.01.082-.021.122-.133 1.091 1.074.439 2.198.959z" fill="#E27C0D"/><path d="M155.016 110.492c5.112 0 9.672-1.173 13.363-2.63 8.782-3.456 14.395-9.012 14.63-9.246a.958.958 0 000-1.346.965.965 0 00-1.35 0c-.071.071-5.623 5.546-14.037 8.838-4.917 1.927-9.835 2.743-14.63 2.427-5.981-.388-11.808-2.559-17.298-6.443a.951.951 0 00-1.329.224.944.944 0 00.225 1.325c7.197 5.108 14.21 6.851 20.426 6.851z" fill="#2E3539"/><path d="M158.594 105.64c7.627 0 16.859-6.586 17.329-6.922a.956.956 0 10-1.124-1.55c-.031.02-3.374 2.416-7.545 4.302-3.722 1.682-8.895 3.293-12.371 1.438a.963.963 0 00-1.298.397.959.959 0 00.398 1.295c1.401.734 2.965 1.04 4.611 1.04z" fill="#2E3539"/><path d="M126.768 75.832c.89 1.11.665 2.895-.429 3.802s-2.802.897-3.998.123c-.48-.317-.92-.796-.95-1.367-.041-.601.368-1.131.756-1.59.603-.713 1.258-1.447 2.147-1.753 0-.01 1.605-.316 2.474.785zm-13.638 1.182c-.849 1.356-.368 3.058-.225 3.405.245.601.981.826 1.625.907 1.227.163 2.536.102 3.64-.469 1.104-.57 1.943-1.743 1.861-2.977-.082-1.233-.563-2.008-2.311-2.6.01-.01-2.76-1.182-4.59 1.734zm-6.156 2.966c-.194.367-.378.755-.368 1.173.021.734.675 1.315 1.37 1.529 1.575.5 3.476-.612 3.793-2.233.195-1.009-.122-1.539-.787-1.814-.797-.337-1.717-.184-2.433.295l-1.575 1.05zm-7.636-.122c-.347.714-.327 1.723-.194 2.508.215 1.254 1.523 2.14 2.801 2.11 1.278-.03 2.444-.836 3.159-1.886.419-.611.716-1.335.695-2.08-.04-1.447-1.37-2.68-2.821-2.803 0-.01-2.29-.59-3.64 2.151zm-4.407-1.172c-.409 1-.715 2.314.123 2.987.501.398 1.237.377 1.83.153 1.176-.438 2.096-1.723 1.779-2.936-.317-1.213-2.137-1.815-2.934-.846l-.798.642zm40.967-11.468c-.849-.449-1.994-.806-2.607.02-.368.49-.379 1.234-.205 1.855.338 1.213 1.421 2.182 2.484 1.897 1.064-.286 1.667-2.11.849-2.947l-.521-.825zm-43.543 7.716c1.523.673 2.075 2.692 1.656 4.292-.194.744-.654 1.386-1.145 1.968-1.155 1.376-3.005 2.62-4.651 1.885-.675-.295-1.186-.886-1.554-1.518-.737-1.234-1.064-2.743-.706-4.13.358-1.386 1.483-2.599 2.883-2.884 0 .01 2.035-.265 3.517.387zm35.322-1.029c-.153-1.519 1.176-2.824 2.617-3.16.665-.153 1.37-.051 2.045.102 1.585.357 3.364 1.335 3.527 2.977.072.672-.173 1.335-.49 1.906-.634 1.111-1.657 2.018-2.904 2.314-1.237.296-2.679-.102-3.527-1.132 0 .01-1.115-1.529-1.268-3.007z" fill="#9DD5E8"/></svg>