<svg width="113" height="166" viewBox="0 0 113 166" fill="none" xmlns="http://www.w3.org/2000/svg"><path d="M30.05 109.149c-3.12 14.31 9.1 17.76.03 29.26-8.93 11.32-14.26 2.25-28.03 6.51-1.14.35-2.36 1.85-1.6 2.77 4.43 5.37 6.46 7.7 9.2 9.55 1.48 1.01 12.84 6.06 13.42 5.43 10.68-11.51 6.71-6.39 13.59-19.7 7.74-14.99 2.57-17.15-.05-33.81-.58-3.66-5.88-3.13-6.56-.01z" fill="#E27C0D"/><path d="M13.68 2.829c6.89-4.43 15.95-3.61 21.79 2.13 3.89 3.83 4.98 9.29 6.32 14.96 4 16.86 6.92 46.78 6.92 54.4 0 6.78-13.32-2.09-6.98.32 16.7 6.33 17.82-.24 35.68-.24 2.54 0 4.73-.22 6.67-.59 15.89-2.98 27.12 15.16 17.22 27.95-2.65 3.43-5.7 6.44-9.07 8.82-11.62 8.21-26.49 12.74-40.47 12.74-18.08 0-34.2-5.67-43.52-19.67-5.49-8.24-8.22-18.27-8.22-28.92 0-6.78-.02-6.78-.02-13.55 0-7.62.07-7.62.07-15.23 0-13.01.03-13.01.03-26.03 0-7 7.6-13.26 13.58-17.09z" fill="#E8E8E8"/><path d="M17.26 21.549c0 3.64-1.18 6.59-2.61 6.59s-2.61-2.94-2.61-6.59c0-3.64 1.18-6.62 2.61-6.62s2.61 2.98 2.61 6.62z" fill="#2E3539"/><path d="M17.26 21.549c0 3.64-1.18 6.59-2.61 6.59s-2.61-2.94-2.61-6.59c0-3.64 1.18-6.62 2.61-6.62s2.61 2.98 2.61 6.62zm20.31-2.279c-.08 3.64-1.31 6.55-2.74 6.51-1.43-.03-2.53-2.99-2.45-6.64.08-3.65 1.33-6.6 2.76-6.57 1.43.05 2.51 3.06 2.43 6.7z" fill="#2E3539"/><path d="M37.57 19.27c-.08 3.64-1.31 6.55-2.74 6.51-1.43-.03-2.53-2.99-2.45-6.64.08-3.65 1.33-6.6 2.76-6.57 1.43.05 2.51 3.06 2.43 6.7zm-24.7 13.269c-6.41 0-11.63-5.2-11.66-11.61-.01-3.11 1.19-6.04 3.38-8.25a11.62 11.62 0 018.23-3.45c3.11 0 6.05 1.19 8.26 3.38s3.44 5.11 3.45 8.23c.01 3.11-1.19 6.04-3.38 8.25a11.62 11.62 0 01-8.23 3.45h-.05zm0-21.52h-.04a9.816 9.816 0 00-6.97 2.92A9.78 9.78 0 003 20.929c.02 5.43 4.45 9.83 9.87 9.83h.04a9.816 9.816 0 006.97-2.92 9.78 9.78 0 002.86-6.99 9.816 9.816 0 00-2.92-6.97 9.771 9.771 0 00-6.95-2.86z" fill="#2E3539"/><path d="M38 29.209c-6.41 0-11.63-5.2-11.66-11.61-.03-6.43 5.18-11.68 11.61-11.7H38c3.1 0 6.01 1.2 8.21 3.38 2.21 2.19 3.44 5.11 3.45 8.23.03 6.43-5.18 11.68-11.61 11.7H38zm0-21.53h-.04c-5.44.02-9.85 4.47-9.83 9.91.02 5.43 4.45 9.83 9.87 9.83h.04c5.44-.02 9.85-4.47 9.83-9.91a9.816 9.816 0 00-2.92-6.97A9.83 9.83 0 0038 7.679z" fill="#2E3539"/><path d="M23.65 19.67l-.81-1.6c2.85-1.44 4.43-.59 4.6-.49l-.91 1.54.03.02s-.96-.45-2.91.53z" fill="#2E3539"/><path d="M71.98 32.799c0-5.87-4.7-8.88-10.57-8.88-16.87 0-16.87.03-33.73.03-5.87 0-7.02 4.65-4.47 10.63.61 1.43 4.95.61 6.51.61 22.86 0 42.26-2.39 42.26-2.39z" fill="#E27C0D"/><path d="M64.57 37.339c-.33 3.12-4.32 4.3-9.09 3.79-13.7-1.47-13.69-1.49-27.39-2.96-4.77-.51-5.44-3.08-3.03-6.03.58-.71 4.06.11 5.32.24 18.57 2 34.19 4.96 34.19 4.96z" fill="#E27C0D"/><path d="M31.58 5.199c-1.61.55-3.18 1.18-4.71 1.91-.26.12-.33.5-.19.73.16.27.47.32.73.19 1.45-.69 2.94-1.29 4.45-1.8.27-.09.45-.37.37-.66-.07-.26-.38-.46-.65-.37zm-10.52 3.69c-1.28-.75-2.64-1.36-4.05-1.83-.27-.09-.59.11-.66.37-.08.29.1.57.37.66 1.32.44 2.59 1.02 3.79 1.72.25.15.59.06.73-.19.16-.24.07-.58-.18-.73z" fill="#2E3539"/><path d="M63.19 164.499c13.87 6.38 34.56-12.59 34.65-13.2-.01-.2-.1-.38-.27-.56-21.73-22.82-21.05-23.78-45.69-43.43-2.93-2.34-6.38 2.1-4.58 4.74 8.49 12.44 18.04 6.15 21.81 20.73 3.97 15.36-5.25 14.98-8.21 30.57-.01.04-.01.09-.02.13-.15 1.16 1.12.47 2.31 1.02z" fill="#E27C0D"/><path d="M64.3 107.619s-6.89-.17-6.19 8.27l1.7 20.68a3.815 3.815 0 002.38 3.2c1.71.7 4.21 1.35 6.72.73 3.53-.87 19.33-7.55 25.92-10.36 1.75-.75 2.85-2.45 2.77-4.3l-1.06-25.29-32.24 7.07z" fill="#905421"/><path d="M66.82 141.629c-1.91 0-3.68-.52-4.96-1.04-1.66-.68-2.79-2.19-2.93-3.95l-1.7-20.68c-.25-3.06.4-5.43 1.95-7.07 1.88-1.99 4.45-2.16 5.04-2.17l33.19-7.29 1.1 26.36c.09 2.2-1.24 4.27-3.31 5.16-6.64 2.83-22.47 9.52-26.06 10.41-.79.19-1.57.27-2.32.27zm-2.54-33.11c-.15 0-2.33.03-3.82 1.62-1.17 1.25-1.66 3.16-1.45 5.68l1.7 20.68c.09 1.09.79 2.02 1.83 2.44 1.55.63 3.87 1.26 6.17.69 3.46-.86 19.18-7.5 25.78-10.32 1.42-.6 2.29-1.95 2.23-3.44l-1.02-24.23-31.31 6.88h-.11z" fill="#522A17"/><path d="M63.44 112.769l1.67 11.21c.42 2.7 3.28 4.28 5.79 3.21l24.94-10.71a4.2 4.2 0 002.52-4.37l-1.49-12.15a4.18 4.18 0 00-4.09-3.68l-3.05-.05c-.62-.01-1.79.16-2.36.42L60.7 107.88a.963.963 0 00-.22 1.62c1.21 1.01 2.9 2.54 2.96 3.27z" fill="#905421"/><path d="M69.25 128.419c-.85 0-1.69-.22-2.46-.64a5.055 5.055 0 01-2.56-3.66l-1.68-11.24c-.04-.1-.37-.79-2.64-2.69-.49-.41-.74-1.04-.65-1.67.09-.64.49-1.18 1.07-1.45l26.69-11.24c.73-.34 2.06-.5 2.72-.49l3.05.05c2.52.04 4.65 1.96 4.96 4.47l1.49 12.15c.27 2.23-.98 4.41-3.05 5.3l-24.94 10.71c-.64.26-1.32.4-2 .4zm-4.93-15.76l1.67 11.18c.16 1.01.76 1.87 1.66 2.37.9.5 1.95.55 2.9.15l24.94-10.71a3.32 3.32 0 001.98-3.44l-1.49-12.15a3.32 3.32 0 00-3.22-2.9l-3.05-.05c-.54-.01-1.55.15-1.97.34l-26.69 11.24c.01-.01-.01.01-.02.05s.01.05.02.06c2.75 2.31 3.21 3.25 3.27 3.86z" fill="#522A17"/><path d="M78.4 123.159l.36 6.22 7.95-3.22-.55-6.23-7.76 3.23z" fill="#522A16"/><path d="M60.71 115.859c-1.02 0-2.01-.33-2.88-.96l1.05-1.45c.7.51 1.53.71 2.34.57.69-.12 1.3-.48 1.63-.97l1.48 1c-.6.89-1.62 1.52-2.8 1.73-.28.05-.55.08-.82.08zm8.95-7.33a.89.89 0 01-.88-.76l-1.03-6.6c-.4-2.54 1.14-5.03 3.57-5.78l9.45-2.94c1.42-.44 2.96-.25 4.23.54a5.23 5.23 0 012.4 3.62l.74 4.39c.08.49-.24.95-.73 1.03a.896.896 0 01-1.03-.73l-.74-4.4c-.16-1-.73-1.86-1.58-2.39-.83-.51-1.83-.64-2.76-.35l-9.45 2.94c-1.59.5-2.6 2.13-2.34 3.8l1.03 6.6c.08.49-.26.94-.74 1.02-.05 0-.09.01-.14.01z" fill="#522A17"/><path d="M45.71 68.989c-12.76 7.16-14.75 19.52.07 29.17 17.2 11.2 33.67.13 40.15-3.2 7.98-4.1 16.871-9.36 25.091-18.49 3.72-4.13.69-10.68-4.87-10.5-7.47.24-12.28 5.59-24.78 3.14-18.45-3.62-19.28-9.31-35.66-.12z" fill="#BABAB9"/><path d="M70.61 91.599c5.4 0 10.23-1.25 14.12-2.78 9.29-3.66 15.21-9.55 15.46-9.8.39-.4.39-1.04 0-1.43a1.02 1.02 0 00-1.43 0c-.08.08-5.94 5.88-14.83 9.37-5.19 2.04-10.39 2.9-15.46 2.57-6.33-.42-12.48-2.71-18.29-6.83-.46-.32-1.09-.21-1.41.24-.32.46-.22 1.09.24 1.41 7.62 5.41 15.04 7.25 21.6 7.25z" fill="#2E3539"/><path d="M74.4 86.459c8.06 0 17.82-6.98 18.32-7.34.45-.33.55-.96.23-1.41a1.02 1.02 0 00-1.41-.23c-.04.03-3.57 2.56-7.98 4.55-3.94 1.78-9.4 3.49-13.07 1.53a1.013 1.013 0 00-.95 1.79c1.46.79 3.12 1.11 4.86 1.11z" fill="#2E3539"/></svg>