<svg width="240" height="240" viewBox="0 0 240 240" fill="none" xmlns="http://www.w3.org/2000/svg"><g clip-path="url(#clip0_164_1475)"><path d="M7.776 67.728c-1.344-.096-2.736-.192-3.984.336-1.248.528-2.304 1.728-2.16 3.072.192 1.872 2.352 2.832 4.176 3.36 9.072 2.688 18.144 5.424 27.168 8.112 5.376 1.584 10.8 3.216 15.552 6.144 2.256 1.392 4.368 3.12 6.816 4.224 8.832 4.128 20.352.144 28.32 5.76 7.536 5.328 8.88 17.376 17.376 21.024 2.784 1.2 6.048 1.296 8.544 2.976 3.456 2.304 4.512 6.768 5.328 10.8A5213.01 5213.01 0 00133.2 118.08c.384-.336.816-.768.768-1.296-.048-.336-.336-.624-.624-.864-7.632-6.768-15.264-13.584-22.944-20.352-3.072-2.736-6.144-5.472-9.504-7.824-10.512-7.488-23.232-11.136-35.664-14.688-9.648-2.736-19.392-5.472-29.376-6.48-10.368-1.008-20.88-.144-31.008 2.208" fill="#BCBCBC"/><path d="M128.688 119.472c-6.192-7.92-13.104-15.264-20.352-22.224A566.405 566.405 0 0097.248 86.88c-1.632-1.488-3.168-3.12-4.944-4.416-1.344-.96-2.832-1.632-4.368-2.256-3.696-1.488-7.584-2.544-11.472-3.408-.912-.192-1.296 1.2-.384 1.392 3.36.768 6.72 1.632 9.936 2.832 1.632.576 3.216 1.248 4.704 2.16 1.728 1.056 3.168 2.592 4.656 3.936 7.344 6.672 14.592 13.44 21.408 20.688 3.84 4.08 7.488 8.304 10.944 12.72.48.672 1.488-.336.96-1.056z" fill="#2D363A"/><path d="M93.216 87.36c-4.56-2.64-9.36-5.088-14.544-6.24-5.328-1.152-10.752-1.056-16.176-.864-3.12.096-6.24.24-9.36.192-.912 0-.912 1.44 0 1.44 5.328.096 10.656-.384 15.984-.288 5.376.096 10.608.864 15.552 2.976 2.688 1.152 5.28 2.544 7.824 4.032.816.48 1.536-.768.72-1.248z" fill="#2D363A"/><path d="M154.56 113.808c11.616-5.808 23.472-11.712 36.288-13.92 16.32-2.832 33.648.624 47.568 9.552-6.912.432-13.824.816-20.736 1.248.672 1.248-.48 2.832-1.872 3.168-1.392.336-2.784-.096-4.224-.288-2.112-.288-4.272-.096-6.384.096a418.252 418.252 0 00-45.648 7.296c-.912.192-1.968.384-2.688-.24-.528-.432-.672-1.152-.864-1.776a6.586 6.586 0 00-4.08-3.984" fill="#BCBCBC"/><path d="M157.057 121.44c3.264-.432 6.528-.912 9.696-1.872a37.051 37.051 0 006.384-2.592c2.352-1.248 4.464-2.88 6.672-4.416 4.8-3.312 9.744-6.336 15.408-7.92 4.896-1.392 9.696-2.592 14.832-2.208.912.048.912-1.392 0-1.44-4.944-.336-9.6.72-14.352 2.016-2.016.528-3.936 1.152-5.856 2.016-3.072 1.344-5.952 3.12-8.736 4.944-2.16 1.44-4.224 3.024-6.432 4.416-2.064 1.344-4.272 2.4-6.624 3.264-3.696 1.344-7.536 1.92-11.424 2.448-.864.096-.48 1.44.432 1.344z" fill="#2D363A"/><path d="M156.769 126.72c1.872-4.368.288-9.936-3.552-12.672-2.88-2.016-6.624-2.496-10.08-1.872-3.456.624-6.672 2.208-9.648 3.984-8.496 5.04-16.176 12-20.448 20.928-.576 1.2-1.152 2.496-2.256 3.168-1.008.624-6.336 5.856-7.392 6.336-9.936 4.512-10.8 7.392-5.376 11.28 2.784 2.016 5.136 4.8 8.4 5.952 1.872.624 3.888.672 5.856.72l11.904.144c2.784.048 5.664.048 8.352-.672 6.096-1.584 4.608-1.2 2.352-10.8-1.536-6.384 6.528-7.872 7.296-8.256 10.992-5.808 13.344-12.864 14.688-19.056" fill="#E8E8E8"/><path d="M142.513 121.92c0 2.88-.912 5.232-2.064 5.232-1.152 0-2.064-2.352-2.064-5.232 0-2.88.912-5.232 2.064-5.232 1.152 0 2.064 2.352 2.064 5.232z" fill="#2D363A"/><path d="M142.513 121.92c0 2.88-.912 5.232-2.064 5.232-1.152 0-2.064-2.352-2.064-5.232 0-2.88.912-5.232 2.064-5.232 1.152 0 2.064 2.352 2.064 5.232zm14.015 0c0 2.88-.912 5.184-2.064 5.184-1.152 0-2.064-2.304-2.064-5.184 0-2.88.912-5.232 2.064-5.232 1.152 0 2.064 2.352 2.064 5.232z" fill="#2D363A"/><path d="M156.528 121.92c0 2.88-.912 5.184-2.064 5.184-1.152 0-2.064-2.304-2.064-5.184 0-2.88.912-5.232 2.064-5.232 1.152 0 2.064 2.352 2.064 5.232z" fill="#2D363A"/><path d="M172.752 137.856c1.44-3.216-.384-5.952-3.6-7.392-9.168-4.08-9.168-4.08-18.384-8.16-3.216-1.44-4.944.816-4.992 4.704 0 .912 2.544 1.536 3.408 1.92 12.432 5.568 23.568 8.928 23.568 8.928zM133.44 149.28c-.288 6.864-6.24 7.008-3.504 13.296 2.736 6.192 6.24 2.736 12 6.288.48.288.864 1.104.384 1.44-2.64 1.92-3.84 2.736-5.328 3.264-.816.288-6.576 1.248-6.768.864-3.504-6.528-2.304-3.696-3.84-10.56-1.728-7.728.864-8.112 4.032-15.408.72-1.584 3.072-.72 3.024.816zm-6.048 24.912c-3.984 6-16.944 3.504-17.136 3.264-.048-.096-.048-.192-.048-.288 3.072-14.496 2.544-14.736 7.536-28.656.576-1.68 3.072-.72 3.024.768-.336 7.056-5.712 6.912-3.6 13.68 2.208 7.152 5.808 4.704 10.848 10.224l.048.048c.336.432-.336.432-.672.96z" fill="#EC8003"/><path d="M192.385 109.152c1.872-1.104 3.744-2.16 5.808-2.832 2.112-.672 4.368-.72 6.576-.816 4.368-.192 8.784-.288 13.056.912.912.24 1.248-1.152.384-1.392-4.464-1.248-9.12-1.152-13.728-.96-2.304.096-4.608.192-6.768.912-2.112.72-4.08 1.824-6.048 2.928-.816.432-.096 1.68.72 1.248z" fill="#2D363A"/></g><defs><clipPath id="clip0_164_1475"><path fill="#fff" d="M0 0h240v240H0z"/></clipPath></defs></svg>