<svg width="395" height="395" viewBox="0 0 395 395" fill="none" xmlns="http://www.w3.org/2000/svg"><path d="M181.7 57.67l-1.659-13.983c-.553-4.424-7.505-4.424-6.952 0l1.659 13.983c.553 4.424 7.505 4.424 6.952 0zm-21.805 6.794c-1.343-4.582-3.555-8.61-6.478-12.324-1.185-1.5-3.713-1.185-4.897 0-1.501 1.501-1.185 3.476 0 4.898a27.589 27.589 0 014.66 9.243c1.264 4.345 7.979 2.528 6.715-1.817zm-28.124 7.821c-2.054-2.29-4.108-4.66-6.241-6.952-1.264-1.422-3.634-1.264-4.898 0-1.422 1.422-1.264 3.555 0 4.898 2.054 2.291 4.108 4.661 6.241 6.952 1.264 1.422 3.634 1.264 4.898 0 1.422-1.343 1.264-3.476 0-4.898zm-24.805 13.983c-2.765-3.16-6.162-5.767-10.033-7.505-1.738-.79-3.792-.474-4.74 1.264-.869 1.501-.474 3.95 1.264 4.74 3.318 1.58 6.162 3.634 8.611 6.478 2.923 3.318 7.821-1.659 4.898-4.977zM78.367 99.54c-3.318-2.133-6.715-4.187-10.033-6.32-3.792-2.37-7.347 3.634-3.555 6.004 3.318 2.133 6.715 4.187 10.033 6.32 3.871 2.449 7.347-3.555 3.555-6.004zm-21.172 29.388c-3.397-.79-6.873-1.58-10.27-2.449-4.345-1.027-6.162 5.688-1.817 6.715 3.397.79 6.873 1.58 10.27 2.449 4.345 1.027 6.162-5.688 1.817-6.715zm-6.714 27.65c.474-1.659-.632-3.95-2.449-4.266-3.555-.553-7.11-1.185-10.665-1.738-1.896-.316-3.713.553-4.266 2.449-.474 1.659.632 3.95 2.449 4.266 3.555.553 7.11 1.185 10.665 1.738 1.896.316 3.792-.553 4.266-2.449zm1.106 24.016c-.474-1.975-2.37-2.844-4.266-2.449l-13.035 2.291c-1.896.316-2.923 2.528-2.45 4.266.475 1.975 2.37 2.844 4.267 2.449l13.035-2.291c1.817-.316 2.923-2.528 2.449-4.266zM48.9 204.926c-3.87 1.817-8.057 2.528-12.323 2.37-4.503-.158-4.503 6.794 0 6.952 5.45.237 10.823-.948 15.72-3.318 4.109-1.817.712-7.9-3.396-6.004zm68.888 133.352c-1.975 3.713-3.476 7.584-4.424 11.613-1.027 4.345 5.767 6.241 6.715 1.817.79-3.476 1.975-6.794 3.713-9.954 2.212-3.871-3.871-7.426-6.004-3.476zm24.49 4.74c-1.027 3.634-2.054 7.268-3.002 10.902-1.185 4.345 5.53 6.162 6.715 1.817 1.027-3.634 2.054-7.268 3.002-10.902 1.264-4.345-5.451-6.162-6.715-1.817zm23.148-3.002v12.403c0 4.503 6.952 4.503 6.952 0v-12.403c0-4.503-6.952-4.503-6.952 0zm29.309 2.212c-.316-1.896-2.607-2.923-4.266-2.449-1.975.553-2.765 2.449-2.449 4.266.395 2.291 0 4.661-1.027 6.715-.869 1.659-.474 3.792 1.264 4.74 1.501.869 3.95.474 4.74-1.264 1.896-3.871 2.449-7.821 1.738-12.008zm22.12-.869c-.79-1.738-3.239-2.133-4.74-1.264-1.738 1.027-2.054 3.081-1.264 4.74a20.266 20.266 0 011.896 6.794c.158 1.896 1.501 3.476 3.476 3.476 1.738 0 3.713-1.58 3.476-3.476-.316-3.634-1.264-6.952-2.844-10.27zm33.733 3.16c-1.817-4.266-4.108-8.137-7.11-11.613-2.923-3.397-7.821 1.58-4.898 4.898a30.835 30.835 0 015.293 8.532c.711 1.738 2.291 3.002 4.266 2.449 1.659-.395 3.16-2.528 2.449-4.266zm27.096-8.532c-3.397-2.844-6.715-5.688-10.112-8.453-1.422-1.185-3.555-1.422-4.898 0-1.264 1.264-1.422 3.713 0 4.898 3.397 2.844 6.715 5.688 10.112 8.453 1.422 1.185 3.555 1.422 4.898 0 1.264-1.264 1.422-3.713 0-4.898zm20.857-16.274c-1.58-1.817-3.081-3.634-4.661-5.451-1.264-1.422-3.713-1.264-4.898 0-1.422 1.422-1.264 3.476 0 4.898 1.58 1.817 3.081 3.634 4.661 5.451 1.264 1.422 3.713 1.264 4.898 0 1.422-1.343 1.264-3.476 0-4.898zm26.386-13.588c-5.135-2.607-10.349-5.214-15.484-7.821-4.029-2.054-7.505 4.029-3.555 6.004 5.135 2.607 10.349 5.214 15.484 7.821 4.029 1.975 7.584-4.029 3.555-6.004zm20.223-21.093c-3.397-1.58-6.715-3.081-10.112-4.661-1.738-.79-3.792-.474-4.74 1.264-.869 1.501-.474 3.95 1.264 4.74 3.397 1.58 6.715 3.081 10.112 4.661 1.738.79 3.792.474 4.74-1.264.869-1.501.474-3.95-1.264-4.74zm20.066-21.883c-4.977-1.343-9.875-2.923-14.694-4.898-4.187-1.659-6.004 5.056-1.817 6.715 4.819 1.896 9.717 3.555 14.694 4.898 4.345 1.185 6.162-5.53 1.817-6.715zm.87-28.914c-5.451-1.264-10.823-2.607-16.274-3.871-4.345-1.027-6.241 5.688-1.817 6.715 5.451 1.264 10.823 2.607 16.274 3.871 4.345 1.106 6.162-5.609 1.817-6.715zm-.159-27.255c-3.95.158-7.663-.316-11.455-1.422-4.345-1.264-6.162 5.451-1.817 6.715 4.345 1.264 8.848 1.896 13.351 1.738 4.424-.158 4.424-7.189-.079-7.031zm-6.241-34.918h-14.773c-4.503 0-4.503 6.952 0 6.952h14.773c4.503.079 4.503-6.952 0-6.952zm-4.819-20.145l-16.274 2.449c-4.424.632-2.528 7.426 1.817 6.715 5.451-.79 10.823-1.659 16.274-2.449 4.503-.632 2.607-7.347-1.817-6.715zm-6.952-34.128c-5.451.869-10.586 2.607-15.563 5.135-4.029 2.054-.474 8.058 3.555 6.004 4.424-2.212 9.006-3.634 13.904-4.424 4.345-.632 2.528-7.347-1.896-6.715zm-15.484-18.486a3022.247 3022.247 0 01-14.773 5.451c-4.187 1.501-2.37 8.295 1.817 6.715 4.898-1.817 9.796-3.634 14.773-5.451 4.187-1.501 2.37-8.295-1.817-6.715zm-25.043-21.567c-4.661 3.397-9.243 6.794-13.904 10.191-3.555 2.607-.079 8.69 3.555 6.004 4.661-3.397 9.243-6.794 13.904-10.19 3.555-2.529.079-8.612-3.555-6.005zM280.371 56.17c-5.135 3.791-9.796 8.057-13.904 12.955-2.923 3.397 2.054 8.374 4.898 4.898 3.713-4.424 7.9-8.453 12.482-11.85 3.634-2.607.158-8.69-3.476-6.004zm-29.626-12.72c-4.898 2.844-9.243 6.557-12.877 10.981-1.185 1.501-1.422 3.476 0 4.898 1.185 1.264 3.792 1.501 4.898 0 3.239-4.029 7.031-7.347 11.455-9.875 3.871-2.212.395-8.295-3.476-6.004zm-44.792-7.505a846.393 846.393 0 00-3.239 13.588c-1.027 4.345 5.846 5.61 6.873 1.264a846.393 846.393 0 003.239-13.588c1.106-4.424-5.767-5.688-6.873-1.264zm7.031 33.733c-1.264 3.634-2.607 7.268-3.871 10.823-1.501 4.266 5.214 6.083 6.715 1.817 1.264-3.634 2.607-7.268 3.871-10.823 1.501-4.187-5.214-6.004-6.715-1.817zm-21.252-1.343c-1.738-.474-3.95.553-4.266 2.45-.553 2.843-1.106 5.687-1.58 8.531-.316 1.817.553 3.792 2.449 4.266 1.738.474 3.95-.553 4.266-2.449l1.58-8.532c.316-1.896-.553-3.792-2.449-4.266zm-27.175 26.386c-.553-3.634-1.106-7.268-1.659-10.823-.316-1.896-2.607-2.923-4.266-2.449-1.975.553-2.686 2.45-2.449 4.266l1.659 10.823c.316 1.896 2.607 2.923 4.266 2.45 2.054-.475 2.765-2.37 2.449-4.267zm-24.885 13.193c-1.58-4.424-3.713-8.69-6.478-12.482-2.607-3.634-8.611-.158-6.004 3.555 2.37 3.397 4.345 6.952 5.767 10.823 1.501 4.187 8.216 2.37 6.715-1.896zm-25.834 14.852c-2.607-3.318-5.214-6.715-7.821-10.033-1.185-1.501-3.713-1.185-4.898 0-1.5 1.501-1.185 3.476 0 4.898 2.607 3.318 5.214 6.715 7.821 10.033 1.185 1.501 3.713 1.185 4.898 0 1.422-1.422 1.185-3.397 0-4.898zM90.77 142.279c-4.897-3.397-9.795-6.715-14.772-10.112-3.713-2.528-7.19 3.476-3.555 6.004 4.898 3.397 9.796 6.715 14.773 10.112 3.713 2.607 7.189-3.476 3.555-6.004zm-6.32 26.86c-3.634-1.027-7.268-2.054-10.823-3.081-4.345-1.264-6.162 5.53-1.817 6.715 3.634 1.027 7.268 2.054 10.823 3.081 4.345 1.185 6.162-5.53 1.817-6.715zm7.663 29.309c-5.45.237-10.823.553-16.274.79-4.503.237-4.503 7.189 0 6.952 5.451-.237 10.823-.553 16.274-.79 4.424-.158 4.503-7.189 0-6.952zm.001 28.677H76.551c-4.503 0-4.503 6.952 0 6.952h15.484c4.582.079 4.582-6.952.08-6.952zm4.503 31.995c-4.898 1.817-9.796 3.634-14.773 5.451-4.187 1.501-2.37 8.295 1.817 6.715 4.898-1.817 9.796-3.634 14.773-5.451 4.187-1.58 2.37-8.295-1.817-6.715zm15.404 25.833c-3.397 2.291-6.715 4.661-10.112 6.952-3.713 2.528-.158 8.611 3.555 6.004 3.397-2.291 6.715-4.661 10.112-6.952 3.634-2.449.158-8.532-3.555-6.004zm15.485 19.987c-1.106 3.634-2.133 7.189-3.239 10.823-1.264 4.345 5.451 6.162 6.715 1.817 1.106-3.634 2.133-7.189 3.239-10.823 1.343-4.266-5.451-6.083-6.715-1.817zm31.442 4.661l-7.11 12.324c-2.212 3.871 3.792 7.426 6.004 3.555l7.11-12.324c2.291-3.95-3.792-7.426-6.004-3.555zm27.966 2.212c-1.975-.553-3.634.632-4.266 2.449-1.343 3.476-1.896 7.268-1.659 10.981.237 4.503 7.189 4.503 6.952 0-.158-3.239.316-6.162 1.422-9.164.632-1.738-.79-3.792-2.449-4.266zm34.207 7.9c-.553-2.607-1.027-5.135-1.58-7.742-.395-1.817-2.607-2.923-4.266-2.449-1.896.553-2.844 2.449-2.449 4.266.553 2.607 1.027 5.135 1.58 7.742.395 1.817 2.607 2.923 4.266 2.449 1.975-.474 2.844-2.449 2.449-4.266zm24.49-23.305c-2.212-3.871-8.295-.395-6.004 3.555 1.343 2.37 1.975 4.819 1.975 7.505-.079 4.503 6.952 4.503 6.952 0 0-3.95-1.027-7.663-2.923-11.06zm36.418-.79c-2.291-3.081-4.661-6.241-6.952-9.322-1.106-1.501-3.002-2.291-4.74-1.264-1.501.869-2.37 3.239-1.264 4.74 2.291 3.081 4.661 6.241 6.952 9.322 1.106 1.501 3.002 2.291 4.74 1.264 1.501-.869 2.449-3.239 1.264-4.74zm22.041-16.748c-2.607-1.58-5.135-3.081-7.742-4.661-3.871-2.291-7.347 3.713-3.555 6.004 2.607 1.58 5.135 3.081 7.742 4.661 3.871 2.291 7.426-3.713 3.555-6.004zm17.064-19.434c-4.977-2.37-10.191-4.345-15.563-5.767-4.345-1.185-6.241 5.609-1.817 6.715a79.079 79.079 0 0113.904 5.056c3.95 1.975 7.505-4.029 3.476-6.004zm9.244-20.54c-2.054-.553-4.108-1.027-6.241-1.58-1.817-.474-3.792.553-4.266 2.449-.474 1.817.632 3.871 2.449 4.266 2.054.553 4.108 1.027 6.241 1.58 1.817.474 3.792-.553 4.266-2.449.474-1.738-.632-3.792-2.449-4.266zm2.212-31.126h-10.112c-4.503 0-4.503 6.952 0 6.952h10.112c4.503 0 4.503-6.952 0-6.952zm-3.872-19.434h-6.952c-4.503 0-4.503 6.952 0 6.952h6.952c4.424.079 4.503-6.952 0-6.952zm-7.189-28.519c-5.372 1.027-10.744 1.422-16.116 1.422-4.503 0-4.503 6.952 0 6.952 6.083.079 12.008-.553 18.012-1.659 4.424-.79 2.528-7.505-1.896-6.715zm-16.273-21.646c-5.135 2.054-10.349 4.187-15.484 6.241-4.108 1.659-2.291 8.453 1.817 6.715 5.135-2.054 10.349-4.187 15.484-6.241 4.187-1.659 2.37-8.453-1.817-6.715zm-24.174-22.436c-6.399 3.239-12.798 6.557-19.118 9.796-4.029 2.054-.474 8.058 3.555 6.004 6.399-3.239 12.798-6.557 19.118-9.796 3.95-2.054.395-8.058-3.555-6.004zm-15.011-26.149c-5.214 3.713-10.112 7.742-14.615 12.245-3.239 3.16 1.738 8.058 4.898 4.898 4.108-4.029 8.532-7.821 13.193-11.139 3.713-2.528.237-8.611-3.476-6.004zm-30.02-6.636c-2.844 3.318-4.898 7.268-5.53 11.613-.237 1.896.474 3.713 2.449 4.266 1.659.474 4.029-.553 4.266-2.449.474-3.16 1.58-6.083 3.713-8.532 3.002-3.318-1.975-8.295-4.898-4.898zm-35.944 23.305c-1.659-.474-4.029.553-4.266 2.449-.553 3.634-1.027 7.268-1.58 10.823-.237 1.896.474 3.713 2.449 4.266 1.659.474 4.029-.553 4.266-2.449.553-3.634 1.027-7.268 1.58-10.823.237-1.896-.474-3.792-2.449-4.266zm-30.889 24.964c-.79-3.397-1.58-6.715-2.37-10.112-1.027-4.345-7.742-2.528-6.715 1.817.79 3.397 1.58 6.715 2.37 10.112 1.027 4.345 7.742 2.528 6.715-1.817zm-21.409 16.985c-2.923-4.424-6.399-8.374-10.586-11.613-1.501-1.185-3.476-1.422-4.898 0-1.185 1.185-1.501 3.792 0 4.898 3.713 2.923 6.873 6.241 9.48 10.191 2.449 3.792 8.532.316 6.004-3.476zm-12.087 20.461c-4.898-3.239-10.112-5.925-15.563-8.137-4.187-1.659-6.004 5.056-1.817 6.715 4.898 1.975 9.559 4.503 13.904 7.426 3.713 2.528 7.189-3.476 3.476-6.004zm-4.188 32.232a75.137 75.137 0 01-14.615 1.422c-4.503 0-4.503 7.031 0 6.952 5.53 0 10.981-.632 16.432-1.659 4.424-.869 2.528-7.584-1.817-6.715zm5.373 35.629c-6.399 1.738-12.561 4.029-18.644 6.636-4.108 1.817-.553 7.821 3.555 6.004 5.53-2.449 11.218-4.345 16.985-5.925 4.266-1.185 2.449-7.9-1.896-6.715zm11.139 33.496c-1.264-1.264-3.634-1.422-4.898 0l-6.241 6.952c-1.264 1.422-1.422 3.555 0 4.898 1.264 1.264 3.634 1.422 4.898 0l6.241-6.952c1.264-1.343 1.422-3.476 0-4.898zm30.651 9.322c-1.58 4.661-3.081 9.322-4.661 13.983-1.422 4.266 5.293 6.083 6.715 1.817 1.58-4.661 3.081-9.322 4.661-13.983 1.422-4.187-5.293-6.083-6.715-1.817zm-85.794 37.288l-10.665 10.191c-3.239 3.081 1.897 7.9 5.056 4.819l10.666-10.191c3.317-3.16-1.817-7.9-5.056-4.819zm117.474-33.259c-.158-1.896-1.501-3.476-3.476-3.476-1.738 0-3.713 1.58-3.476 3.476.237 2.607.553 5.135.79 7.742.158 1.896 1.501 3.476 3.476 3.476 1.738 0 3.713-1.58 3.476-3.476-.237-2.528-.553-5.135-.79-7.742zm23.147-7.11c-.553-3.081-1.817-6.004-3.476-8.611-2.449-3.792-8.453-.237-6.004 3.555 1.422 2.133 2.291 4.424 2.765 6.952.395 1.817 2.607 2.923 4.266 2.449 1.975-.553 2.844-2.449 2.449-4.345zm30.889-11.534l-8.532-8.532c-3.16-3.16-8.137 1.738-4.898 4.898l8.532 8.532c3.081 3.16 8.058-1.738 4.898-4.898zm25.595-13.983c-6.478-1.58-12.877-3.16-19.355-4.74-4.345-1.106-6.241 5.688-1.817 6.715 6.478 1.58 12.877 3.16 19.355 4.74 4.345 1.106 6.162-5.609 1.817-6.715zm7.821-26.544l-12.403-3.081c-4.345-1.106-6.241 5.609-1.817 6.715 4.108 1.027 8.295 2.054 12.403 3.081 4.266 1.106 6.162-5.609 1.817-6.715zm-7.9-28.835c-4.898-.553-9.796-1.027-14.773-1.58-4.424-.474-4.424 6.478 0 6.952 4.898.553 9.796 1.027 14.773 1.58 4.424.474 4.424-6.478 0-6.952zM52.851 243.636c-4.819.948-9.717 1.896-14.536 2.844-4.424.869-2.291 7.505 2.054 6.636 4.819-.948 9.717-1.896 14.536-2.844 4.345-.79 2.291-7.505-2.054-6.636zm225.386-82.397c-3.871.553-7.742 1.027-11.613 1.58-1.896.237-3.476 1.422-3.476 3.476 0 1.659 1.58 3.713 3.476 3.476 3.871-.553 7.742-1.027 11.613-1.58 1.896-.237 3.476-1.422 3.476-3.476.079-1.659-1.58-3.713-3.476-3.476zM61.224 266.23c-3.476 1.896-6.873 3.713-10.349 5.609-1.659.869-2.765 2.607-1.975 4.503.632 1.58 2.844 2.923 4.503 1.975 3.476-1.896 6.873-3.713 10.35-5.609 1.658-.869 2.764-2.607 1.974-4.503-.632-1.501-2.844-2.844-4.503-1.975zm164.083-148.994l-2.37 8.532c-1.185 4.345 5.53 6.162 6.715 1.817l2.37-8.532c1.185-4.266-5.53-6.162-6.715-1.817zM68.492 295.934c-2.37 1.738-4.74 3.555-7.11 5.293-3.634 2.686.553 8.295 4.187 5.609 2.37-1.738 4.74-3.555 7.11-5.293 3.555-2.686-.553-8.295-4.187-5.609zM254.143 135.09c-.869-1.501-3.239-2.37-4.74-1.264a657.067 657.067 0 00-7.742 5.451c-1.58 1.106-2.291 3.081-1.264 4.74.869 1.501 3.239 2.37 4.739 1.264 2.607-1.817 5.215-3.634 7.743-5.451 1.58-1.027 2.291-3.002 1.264-4.74zm-58.619 23.305c-1.343-5.53-3.554-10.744-6.477-15.642-2.291-3.871-8.374-.316-6.004 3.555a52.78 52.78 0 015.767 13.983c1.027 4.266 7.82 2.449 6.714-1.896zm-19.513 7.742a68.151 68.151 0 00-9.164-8.69c-1.501-1.185-3.476-1.422-4.898 0-1.185 1.185-1.501 3.792 0 4.898a68.151 68.151 0 019.164 8.69c2.923 3.476 7.821-1.501 4.898-4.898zm-11.613 17.617a68.82 68.82 0 00-14.773-3.792c-4.424-.632-6.32 6.083-1.817 6.715a79.536 79.536 0 0114.773 3.792c4.187 1.659 6.004-5.135 1.817-6.715zm5.926 23.384a98.422 98.422 0 00-14.773 4.977c-1.738.711-2.133 3.318-1.264 4.74 1.027 1.817 3.081 1.975 4.74 1.264a77.034 77.034 0 0113.114-4.266c4.345-1.027 2.528-7.821-1.817-6.715zm8.532 33.417c-.869-1.501-3.239-2.37-4.74-1.264-2.054 1.58-4.108 3.081-6.241 4.661-1.501 1.106-2.291 3.002-1.264 4.74.869 1.501 3.239 2.37 4.74 1.264 2.054-1.58 4.108-3.081 6.241-4.661 1.58-1.106 2.291-3.002 1.264-4.74zm21.646 3.95l-2.37 14.694c-.711 4.424 6.004 6.32 6.715 1.817l2.37-14.694c.711-4.424-6.004-6.241-6.715-1.817zm26.939 5.372c-.553-3.95-2.054-7.663-4.345-10.902-1.106-1.501-3.002-2.291-4.74-1.264-1.501.869-2.37 3.239-1.264 4.74 2.054 2.844 3.239 5.767 3.713 9.243.237 1.896 2.686 2.923 4.266 2.449 1.975-.553 2.607-2.37 2.37-4.266zm34.048-19.197c-4.424-2.054-8.769-4.108-13.193-6.162-4.029-1.896-7.584 4.108-3.555 6.004 4.424 2.054 8.769 4.108 13.193 6.162 4.029 1.896 7.584-4.108 3.555-6.004zm-4.186-28.282c-4.661-.237-9.322-.553-13.983-.79-4.503-.237-4.503 6.715 0 6.952 4.661.237 9.322.553 13.983.79 4.503.316 4.503-6.715 0-6.952zm-18.013-29.862c-3.397 2.054-6.952 3.397-10.823 4.266-4.345.948-2.528 7.742 1.817 6.715 4.424-1.027 8.611-2.686 12.482-4.977 3.871-2.291.395-8.295-3.476-6.004zm-21.724-17.222c-.948 3.081-2.449 5.846-4.424 8.453-1.185 1.501-.237 3.871 1.264 4.74 1.817 1.027 3.634.237 4.74-1.264 2.37-3.002 4.029-6.478 5.135-10.112 1.343-4.266-5.372-6.162-6.715-1.817zm-15.721 21.646c-1.58-4.187-8.295-2.37-6.715 1.817 1.185 3.318 1.58 6.478 1.264 9.954-.158 1.896 1.738 3.476 3.476 3.476 2.054 0 3.318-1.58 3.476-3.476.474-3.95-.079-8.058-1.501-11.771zm26.78 17.617c-4.898-.237-9.796-.553-14.773-.79-4.503-.237-4.503 6.715 0 6.952 4.898.237 9.796.553 14.773.79 4.503.237 4.503-6.715 0-6.952zm-3.633 25.991c-3.081-2.054-6.241-4.108-9.322-6.162-3.792-2.449-7.268 3.555-3.555 6.004 3.081 2.054 6.241 4.108 9.322 6.162 3.792 2.528 7.347-3.555 3.555-6.004zm-23.385 1.422c-1.422-1.422-3.476-1.185-4.898 0-2.844 2.37-5.609 4.74-8.453 7.11-1.422 1.185-1.264 3.713 0 4.898 1.422 1.422 3.476 1.185 4.898 0l8.453-7.11c1.422-1.185 1.264-3.634 0-4.898zM189.6 209.824c-3.081 1.817-6.241 3.634-9.322 5.451-3.871 2.291-.395 8.295 3.555 6.004 3.081-1.817 6.241-3.634 9.322-5.451 3.871-2.291.395-8.295-3.555-6.004zm1.185-15.563c-3.792-1.738-7.663-2.765-11.85-2.844-4.503-.079-4.503 6.873 0 6.952 2.844.079 5.688.632 8.295 1.896 1.738.79 3.792.474 4.74-1.264.948-1.422.553-3.871-1.185-4.74z" fill="#E8E8E8" stroke="#E8E8E8" stroke-width="4.818" stroke-miterlimit="10"/></svg>