<svg width="230" height="75" viewBox="0 0 230 75" xmlns="http://www.w3.org/2000/svg"><path d="M61.577 2.882v-1.26c0-.361.12-.661.36-.901s.54-.36.9-.36h16.788c.36 0 .66.12.899.36.24.24.36.54.36.9v1.261c0 .36-.12.66-.36.901-.24.24-.54.36-.9.36H73.69v14.052c0 .36-.12.66-.36.84-.24.24-.54.36-.9.36h-2.518c-.36 0-.66-.12-.899-.36-.24-.24-.36-.54-.36-.84V4.143h-5.816c-.36 0-.66-.12-.9-.36a1.224 1.224 0 01-.359-.9zm39.693 3.183V1.62c0-.36.119-.66.359-.9s.54-.36.9-.36h2.458c.36 0 .6.12.899.36.24.24.36.54.36.9v4.444c0 2.162 1.079 3.242 3.178 3.242h5.156V1.621c0-.36.12-.66.36-.9s.54-.36.899-.36h2.459c.359 0 .659.12.899.36s.36.54.36.9v16.514c0 .36-.12.66-.36.9s-.54.36-.899.36h-2.459a1.22 1.22 0 01-.899-.36c-.24-.24-.36-.54-.36-.84V13.03h-5.156c-2.518 0-4.497-.6-5.996-1.741-1.439-1.14-2.158-2.882-2.158-5.224zm42.45 12.73c0 .36-.24.6-.72.6h-3.058c-.359 0-.719-.12-1.139-.36-.419-.24-.719-.54-.899-.9l-2.339-3.724a8.7 8.7 0 00-1.678-2.041c-.54-.48-1.259-.66-2.039-.66h-2.878v6.424c0 .36-.12.661-.36.841-.239.24-.539.36-.899.36h-2.518a1.226 1.226 0 01-1.259-1.261V1.561a1.226 1.226 0 011.259-1.26h2.518c.36 0 .66.12.899.36.24.24.36.54.36.9v6.365h2.878c.78 0 1.439-.24 2.039-.66.599-.42 1.139-1.081 1.678-2.042l2.039-3.663c.48-.84 1.079-1.26 1.919-1.26h3.058c.419 0 .659.18.659.54 0 .18-.06.42-.24.72l-2.878 5.224a7.864 7.864 0 01-1.379 1.862c-.539.48-1.199.84-2.038 1.02.599.12 1.199.481 1.798 1.082.6.6 1.14 1.26 1.619 1.981l3.298 5.284c.24.42.3.6.3.781zm2.698-.6l3.358-12.67c.899-3.423 3.837-5.165 8.814-5.165h7.135c.3 0 .599.12.839.36s.3.541.3.841v16.573c0 .36-.12.661-.36.841-.24.24-.539.36-.899.36h-2.518c-.36 0-.66-.12-.9-.36s-.359-.54-.359-.9v-3.363h-9.414l-.899 3.363c-.06.36-.3.66-.6.9s-.659.36-.959.36h-2.638c-.36 0-.6-.12-.72-.3a.734.734 0 01-.24-.54c0-.06 0-.18.06-.3zm6.955-7.146h8.455V4.143h-3.778c-.839 0-1.619.24-2.218.72a3.214 3.214 0 00-1.259 1.922l-1.2 4.264zM0 48.099V31.585c0-.36.12-.66.36-.9s.54-.36.9-.36h17.207c.36 0 .66.12.9.36s.36.54.36.9V48.1c0 .36-.12.66-.36.9s-.54.36-.9.36H16.01c-.36 0-.66-.12-.9-.36s-.36-.54-.36-.9V34.047H4.978V48.1c0 .36-.12.66-.36.9s-.54.36-.9.36H1.2c-.36 0-.66-.12-.9-.36-.18-.24-.299-.54-.299-.9zm24.163 0V31.585c0-.36.12-.66.36-.9s.54-.36.9-.36h10.132c5.336 0 8.035 2.461 8.035 7.385 0 4.924-2.699 7.386-8.035 7.386H29.2V48.1c0 .36-.12.66-.36.9s-.54.36-.9.36h-2.518c-.36 0-.66-.12-.9-.36a1.224 1.224 0 01-.359-.9zm5.037-6.726h4.856c1.5 0 2.638-.24 3.358-.72.78-.48 1.14-1.442 1.14-2.883 0-1.44-.36-2.402-1.14-2.882-.78-.48-1.919-.72-3.358-.72H29.2v7.205zm17.448 6.726V31.585c0-.36.12-.66.36-.9.239-.24.539-.36.899-.36h2.338c.36 0 .66.12.9.36s.36.54.36.9v13.27l7.554-13.27c.18-.36.48-.66.84-.9.359-.24.659-.36.959-.36h3.897c.36 0 .66.12.9.36s.359.54.359.9V48.1c0 .36-.12.66-.36.9s-.54.36-.9.36h-2.338c-.36 0-.659-.12-.899-.36s-.36-.54-.36-.9V35.79L54.262 48.1c-.18.36-.48.66-.84.9-.359.24-.719.36-1.078.36h-4.377c-.36 0-.66-.12-.9-.36-.3-.24-.42-.54-.42-.9zm22.184-15.253v-1.26c0-.361.12-.661.36-.901s.54-.36.9-.36h16.847c.36 0 .66.12.9.36s.36.54.36.9v1.261c0 .36-.12.66-.36.901-.24.24-.54.36-.9.36h-5.935v14.051c0 .36-.12.661-.36.841-.24.24-.54.36-.9.36h-2.518c-.36 0-.66-.12-.9-.36a1.188 1.188 0 01-.359-.84V34.106h-5.936c-.36 0-.66-.12-.9-.36-.18-.24-.299-.54-.299-.9zm21.165 15.733c0-.12.06-.3.18-.48l3.657-6.065c-2.518-1.081-3.777-2.943-3.717-5.525 0-1.981.66-3.483 2.039-4.563 1.379-1.081 3.057-1.622 5.156-1.622h10.373c.3 0 .599.12.839.36s.36.541.36.901v16.573c0 .36-.12.661-.36.841-.24.24-.539.36-.899.36h-2.518c-.36 0-.66-.12-.9-.36s-.36-.54-.36-.9v-5.525h-4.736L95.933 48.1c-.48.84-1.08 1.2-1.919 1.2h-3.357c-.48.06-.66-.18-.66-.72zm5.037-12.19c0 1.561.72 2.342 2.218 2.342h6.595v-4.684h-6.595c-1.439 0-2.218.78-2.218 2.342zm16.848-5.584c0-.36.18-.54.6-.54h3.058c.779 0 1.439.42 1.918 1.26l2.039 3.663c.54.96 1.079 1.621 1.679 2.042.599.42 1.259.66 2.038.66h.6v-6.365c0-.36.12-.66.36-.9.239-.24.539-.36.899-.36h2.518a1.226 1.226 0 011.259 1.261v6.364h.6c.779 0 1.439-.24 2.039-.66.599-.42 1.139-1.081 1.678-2.042l2.039-3.663c.48-.84 1.079-1.26 1.919-1.26h3.057c.36 0 .54.12.6.36v.18c0 .24-.06.48-.24.72l-2.878 5.224a7.865 7.865 0 01-1.379 1.862c-.539.48-1.199.84-2.038 1.02.599.12 1.199.481 1.798 1.082.6.6 1.14 1.26 1.619 1.981l3.298 5.284c.24.36.3.721.18.901-.12.24-.3.36-.66.36h-3.058c-.359 0-.719-.12-1.139-.36-.42-.24-.719-.54-.899-.9l-2.339-3.724a8.7 8.7 0 00-1.678-2.041c-.54-.48-1.259-.66-2.039-.66h-.6v6.424c0 .36-.119.66-.359.841-.24.24-.54.36-.9.36h-2.518c-.36 0-.659-.12-.899-.36s-.36-.54-.36-.84v-6.426h-.6c-.779 0-1.499.24-2.038.66a8.701 8.701 0 00-1.679 2.042l-2.338 3.723c-.24.36-.54.66-.9.901-.419.24-.779.36-1.139.36h-3.058c-.36 0-.539-.12-.659-.36-.06-.06-.06-.18-.06-.3s.06-.3.239-.6l3.298-5.285c.48-.72 1.019-1.38 1.619-1.981.6-.6 1.199-.961 1.799-1.081a4.37 4.37 0 01-2.039-1.021c-.539-.48-.959-1.141-1.379-1.862l-2.878-5.224c.06-.24 0-.48 0-.72zm31.958 17.294V31.524c0-.36.12-.66.36-.9.239-.24.539-.36.899-.36h15.289c.36 0 .66.12.9.36s.359.54.359.9v1.261c0 .36-.119.66-.359.9-.24.241-.54.361-.9.361h-11.572v3.843h9.953c.36 0 .66.12.9.36s.36.541.36.901v1.261c0 .36-.12.66-.36.901-.24.24-.54.36-.9.36h-9.953v3.904h11.512c.36 0 .6.12.84.36s.36.54.36.9v1.261c0 .36-.12.661-.36.901s-.54.36-.9.36h-15.229c-.36 0-.66-.12-.899-.36-.18-.24-.3-.54-.3-.9zm20.926 0V31.585a1.225 1.225 0 011.259-1.26h2.458c.36 0 .66.12.899.36.24.24.36.54.36.9v6.005h9.114v-6.005c0-.36.12-.66.36-.9.239-.24.539-.36.899-.36h2.458a1.225 1.225 0 011.259 1.261v16.513a1.226 1.226 0 01-1.259 1.26h-2.458c-.36 0-.66-.12-.899-.36-.24-.24-.36-.54-.36-.84v-6.846h-9.114v6.845c0 .36-.12.661-.36.841-.239.24-.539.36-.899.36h-2.458a1.226 1.226 0 01-1.259-1.261zm23.623 0V31.585a1.225 1.225 0 011.259-1.26h2.338a1.225 1.225 0 011.259 1.261v13.27l7.555-13.27c.18-.361.48-.661.84-.901.359-.24.659-.36.959-.36h3.897a1.225 1.225 0 011.259 1.261v16.513a1.226 1.226 0 01-1.259 1.26h-2.338a1.226 1.226 0 01-1.259-1.261v-12.31l-6.956 12.31c-.179.36-.479.661-.839.901s-.719.36-1.079.36h-4.377a1.226 1.226 0 01-1.259-1.261zm22.724.48c0-.12.06-.3.18-.48l3.658-6.065c-2.519-1.081-3.778-2.943-3.718-5.525 0-1.981.66-3.483 2.039-4.563 1.379-1.081 3.058-1.622 5.156-1.622h10.373c.3 0 .6.12.839.36.24.24.36.541.36.901v16.573c0 .36-.12.661-.36.841-.239.24-.539.36-.899.36h-2.518a1.226 1.226 0 01-1.259-1.261v-5.524h-4.737l-3.178 5.525c-.479.84-1.079 1.2-1.918 1.2h-3.358c-.42.06-.66-.18-.66-.72zm5.097-12.19c0 1.561.719 2.342 2.218 2.342h6.596v-4.684h-6.596c-1.499 0-2.218.78-2.218 2.342zM84.602 13.21c-1.38-1.26-2.1-3.182-2.1-5.644s.72-4.383 2.1-5.644C85.98.66 87.959 0 90.537 0c2.578 0 4.557.66 5.936 1.922 1.38 1.26 2.039 3.122 2.039 5.644 0 2.462-.72 4.384-2.039 5.645-1.379 1.26-3.358 1.921-5.936 1.921s-4.556-.66-5.936-1.921zm3.357-9.067c-.54.72-.84 1.862-.84 3.423s.3 2.702.84 3.483c.54.72 1.44 1.08 2.578 1.08 1.2 0 2.039-.36 2.578-1.08.54-.72.84-1.862.84-3.483 0-1.561-.3-2.702-.84-3.423-.54-.72-1.438-1.08-2.578-1.08-1.199 0-2.038.36-2.578 1.08z" fill="#2D363A"/><path d="M94.614 18.495l-3.717 3.723c-.18.18-.48.18-.72 0l-3.717-3.723a.49.49 0 01.36-.84h7.495c.42-.06.6.48.3.84z" fill="#EC8003"/><path d="M41.486 65.332v7.086H30.993v-7.086h1.679v5.705h2.758v-5.705h1.679v5.705h2.698v-5.705h1.679zm5.516 4.264h-1.32v2.822h-1.678v-7.086h1.679v2.883h1.319l2.098-2.883h1.8l-2.58 3.423 2.759 3.663H49.1l-2.098-2.822zm6.595 2.462c-.6-.3-1.02-.72-1.38-1.321a3.913 3.913 0 01-.479-1.862c0-.66.18-1.32.48-1.861.3-.54.78-.961 1.379-1.321.6-.3 1.2-.48 1.919-.48.72 0 1.379.18 1.978.48.6.3 1.02.72 1.38 1.32.3.541.479 1.202.479 1.862 0 .66-.18 1.321-.48 1.862-.3.54-.78.96-1.379 1.32-.6.361-1.199.481-1.978.481-.72 0-1.32-.18-1.919-.48zm3.478-1.562c.42-.42.6-.96.6-1.62 0-.661-.18-1.202-.6-1.622-.42-.42-.9-.6-1.5-.6-.599 0-1.139.18-1.498.6-.42.42-.6.96-.6 1.621 0 .66.18 1.201.6 1.621.42.42.899.6 1.499.6.6 0 1.079-.18 1.499-.6zm10.552-5.164v7.086h-1.679v-5.705H63.31l-.06 1.442c-.06.96-.12 1.74-.24 2.341-.12.66-.36 1.141-.66 1.502-.299.36-.719.54-1.258.54-.24 0-.54-.06-.9-.12l.06-1.381c.12 0 .24.06.3.06.36 0 .6-.12.78-.42.18-.3.3-.6.3-.961.06-.36.12-.9.12-1.621l.12-2.763h5.755zm7.615.661c.54.48.84 1.26.84 2.282v4.143h-1.56v-.84c-.18.3-.479.54-.899.72-.36.18-.84.24-1.379.24-.54 0-1.02-.12-1.379-.3-.42-.18-.72-.42-.9-.78-.239-.301-.299-.661-.299-1.082 0-.66.24-1.14.72-1.56.48-.361 1.199-.601 2.218-.601h1.859v-.06c0-.48-.12-.901-.42-1.141s-.72-.42-1.32-.42c-.419 0-.779.06-1.198.18-.42.12-.72.3-.96.54l-.66-1.201c.36-.3.84-.48 1.32-.66.54-.18 1.08-.24 1.679-.24 1.02 0 1.799.3 2.338.78zm-1.499 5.044c.3-.18.54-.48.66-.84v-.841h-1.74c-.958 0-1.438.3-1.438.96 0 .3.12.54.36.72.24.181.6.241 1.019.241.48 0 .84-.06 1.14-.24zm8.755-5.705h1.679v2.883h3.597v-2.883h1.68v7.086h-1.68v-2.822h-3.597v2.822h-1.679v-7.086zm14.51.661c.54.48.84 1.26.84 2.282v4.143h-1.56v-.84c-.18.3-.48.54-.9.72-.359.18-.839.24-1.378.24-.54 0-1.02-.12-1.38-.3-.419-.18-.719-.42-.899-.78-.24-.301-.3-.661-.3-1.082 0-.66.24-1.14.72-1.56.48-.361 1.2-.601 2.219-.601h1.858v-.06c0-.48-.12-.901-.42-1.141s-.719-.42-1.319-.42c-.42 0-.779.06-1.199.18-.42.12-.72.3-.959.54l-.66-1.201c.36-.3.84-.48 1.32-.66.54-.18 1.079-.24 1.678-.24 1.02 0 1.8.3 2.339.78zm-1.5 5.044c.3-.18.54-.48.66-.84v-.841H94.49c-.96 0-1.44.3-1.44.96 0 .3.12.54.36.72.24.181.6.241 1.02.241.36 0 .72-.06 1.079-.24zm12.352-2.522h-1.739v3.903h-1.679V63.11h1.679v3.904h1.799l2.698-3.903h1.859l-3.178 4.503 3.298 4.804h-1.979l-2.758-3.903zm11.991-2.822c.54.3.959.72 1.259 1.26.3.541.48 1.201.48 1.922 0 .72-.18 1.381-.48 1.922-.3.54-.719.96-1.259 1.26a3.72 3.72 0 01-1.859.481c-.959 0-1.738-.3-2.278-.96V75h-1.679v-9.668h1.559v.961c.3-.36.6-.6 1.019-.78.42-.18.84-.24 1.319-.24.72-.06 1.379.12 1.919.42zm-.54 4.803c.42-.42.6-.96.6-1.62 0-.661-.18-1.202-.6-1.622-.419-.42-.899-.6-1.498-.6-.42 0-.78.12-1.08.3-.3.18-.599.42-.779.78-.18.36-.3.72-.3 1.201 0 .42.12.84.3 1.201.18.36.42.6.779.78.3.18.66.301 1.08.301.599-.12 1.079-.3 1.498-.72zm10.853-1.08h-5.576c.12.54.359.96.779 1.26.42.3.899.48 1.559.48.779 0 1.439-.24 1.919-.78l.899 1.021c-.3.36-.719.66-1.199.84a4.641 4.641 0 01-1.679.301c-.779 0-1.439-.18-2.039-.48-.599-.3-1.079-.72-1.379-1.321a3.913 3.913 0 01-.479-1.862c0-.72.18-1.32.479-1.861.3-.54.78-.961 1.319-1.321.54-.3 1.2-.48 1.919-.48.72 0 1.319.18 1.859.48.539.3.959.72 1.259 1.32.3.541.48 1.202.48 1.922-.06.06-.06.24-.12.48zm-4.857-2.402c-.36.3-.599.72-.659 1.26h4.017c-.06-.54-.3-.96-.66-1.26-.36-.3-.839-.48-1.379-.48-.539.06-.959.18-1.319.48zm8.335 5.044c-.6-.3-1.019-.72-1.379-1.321-.3-.54-.48-1.201-.48-1.862 0-.66.18-1.32.48-1.861.3-.54.779-.961 1.379-1.321.599-.3 1.259-.48 1.979-.48.719 0 1.319.12 1.858.42.54.3.9.72 1.199 1.2l-1.259.721c-.18-.3-.479-.6-.779-.72-.3-.18-.66-.24-1.019-.24-.6 0-1.14.18-1.559.6-.42.42-.6.96-.6 1.621 0 .66.18 1.201.6 1.621.419.42.899.6 1.559.6.359 0 .719-.06 1.019-.24.3-.18.539-.42.779-.72l1.259.72c-.299.541-.659.961-1.199 1.262-.539.3-1.139.42-1.858.42-.78.06-1.439-.12-1.979-.42zm12.351-5.345h-2.458v5.705h-1.679v-5.705h-2.518v-1.44h6.655v1.44zm2.458 5.345c-.599-.3-1.019-.72-1.379-1.321a3.913 3.913 0 01-.479-1.862c0-.66.18-1.32.479-1.861.3-.54.78-.961 1.379-1.321.6-.3 1.2-.48 1.919-.48.72 0 1.379.18 1.979.48.599.3 1.019.72 1.379 1.32.36.601.479 1.202.479 1.862 0 .66-.179 1.321-.479 1.862-.3.54-.78.96-1.379 1.32-.6.3-1.199.481-1.979.481-.719 0-1.319-.18-1.919-.48zm3.478-1.562c.42-.42.6-.96.6-1.62 0-.661-.18-1.202-.6-1.622-.42-.42-.899-.6-1.499-.6-.599 0-1.139.18-1.499.6-.42.42-.599.96-.599 1.621 0 .66.179 1.201.599 1.621.42.42.9.6 1.499.6.6 0 1.079-.18 1.499-.6zm10.673-.06c0 .66-.24 1.141-.719 1.502-.48.36-1.2.54-2.099.54h-3.597v-7.086h3.477c.84 0 1.559.18 2.039.48.479.301.719.781.719 1.382 0 .36-.12.66-.3.96a1.94 1.94 0 01-.779.601c.839.18 1.259.72 1.259 1.621zm-4.857-2.161h1.739c.84 0 1.319-.3 1.319-.901 0-.6-.419-.84-1.319-.84h-1.739v1.74zm3.238 2.041c0-.3-.12-.54-.3-.72-.239-.18-.539-.24-1.019-.24h-1.979v1.8h1.919c.959.061 1.379-.24 1.379-.84zm4.976 1.742c-.599-.3-1.019-.72-1.379-1.321a3.901 3.901 0 01-.479-1.862c0-.66.179-1.32.479-1.861.3-.54.78-.961 1.379-1.321.6-.3 1.259-.48 1.979-.48.719 0 1.319.12 1.859.42.539.3.899.72 1.199 1.2l-1.259.721c-.18-.3-.48-.6-.78-.72-.3-.18-.659-.24-1.019-.24-.6 0-1.139.18-1.559.6-.42.42-.6.96-.6 1.621 0 .66.18 1.201.6 1.621.42.42.899.6 1.559.6.36 0 .719-.06 1.019-.24.3-.18.54-.42.78-.72l1.259.72c-.3.541-.66.961-1.199 1.262-.54.3-1.14.42-1.859.42-.72.06-1.379-.12-1.979-.42zm9.773-2.462h-1.319v2.822h-1.679v-7.086h1.679v2.883h1.319l2.099-2.883h1.799l-2.579 3.423 2.758 3.663h-1.978l-2.099-2.822zm6.595 2.462c-.599-.3-1.019-.72-1.379-1.321a3.913 3.913 0 01-.479-1.862c0-.66.18-1.32.479-1.861.3-.54.78-.961 1.379-1.321.6-.3 1.2-.48 1.919-.48.72 0 1.379.18 1.979.48.599.3 1.019.72 1.379 1.32.36.601.479 1.202.479 1.862 0 .66-.179 1.321-.479 1.862-.3.54-.78.96-1.379 1.32-.6.3-1.199.481-1.979.481-.719 0-1.379-.18-1.919-.48zm3.478-1.562c.42-.42.6-.96.6-1.62 0-.661-.18-1.202-.6-1.622-.42-.42-.899-.6-1.499-.6-.6 0-1.139.18-1.499.6-.42.42-.599.96-.599 1.621 0 .66.179 1.201.599 1.621.42.42.899.6 1.499.6.54 0 1.079-.18 1.499-.6zm11.213 1.922v-4.744l-2.399 3.963h-.719l-2.339-3.963v4.744h-1.499v-7.086h1.739l2.519 4.444 2.638-4.444h1.559v7.086h-1.499z" fill="#2D363A"/></svg>