<svg width="380" height="380" viewBox="0 0 380 380" fill="none" xmlns="http://www.w3.org/2000/svg"><path d="M291.308 68.856c0 2.432-1.368 3.952-2.584 5.548-6.232 8.284-12.388 16.644-18.696 24.928-17.328 22.648-33.744 45.904-50.92 68.704-15.276 20.292-31.236 40.052-46.664 60.268-21.356 27.892-42.104 56.392-62.928 84.664-.988 1.368-1.976 2.812-3.268 3.876-2.052 1.748-4.408 1.748-6.384.228s-2.66-3.952-1.444-6.232c1.14-2.204 2.66-4.18 4.104-6.156 31.236-42.636 62.624-85.12 95.456-126.464 18.696-23.56 35.796-48.336 53.808-72.352 9.728-12.996 19.912-25.764 30.172-38.304a16.162 16.162 0 012.28-2.28c1.368-.988 2.888-1.064 4.408-.304 1.748.76 2.584 2.204 2.66 3.876zm-22.343-13.224c0 2.356-1.52 3.952-2.888 5.624-11.324 13.604-22.496 27.208-32.68 41.648-18.544 26.372-39.672 50.692-59.66 76-23.484 29.792-45.6 60.648-68.552 90.896-6.005 7.904-12.237 15.58-18.392 23.332-.76.988-1.596 1.9-2.584 2.66-1.976 1.444-4.409 1.368-5.928-.152-1.596-1.596-1.977-3.496-.989-5.548.457-.988 1.14-1.824 1.825-2.66 28.348-37.772 55.936-76.152 84.968-113.392 6.536-8.436 13.224-16.796 20.14-24.928 15.428-18.012 29.184-37.316 43.396-56.316 8.056-10.792 16.568-21.28 24.852-31.844 1.748-2.204 3.496-4.332 5.092-6.612 1.14-1.52 2.356-2.888 4.18-3.572 3.572-1.292 7.296 1.216 7.22 4.864zM135.129 334.248c-3.724-.076-6.004-3.116-5.168-6.384.38-1.52 1.368-2.736 2.356-3.952 28.728-37.164 55.708-75.544 84.436-112.708 10.412-13.528 19.38-28.044 28.728-42.256 16.036-24.548 33.212-48.184 51.756-70.908 2.66-3.268 5.168-6.536 7.828-9.804.684-.836 1.292-1.748 2.128-2.508 1.9-1.748 4.104-1.9 5.928-.608 1.9 1.368 2.508 3.8 1.292 6.232-.608 1.216-1.52 2.356-2.356 3.496-11.628 15.656-23.256 31.312-34.96 46.968-12.084 16.188-22.952 33.136-33.896 50.008-11.552 17.86-24.624 34.504-37.468 51.452-21.584 28.576-42.256 57.76-64.22 86.032-.836 1.064-1.672 2.204-2.584 3.268-1.14 1.064-2.508 1.748-3.8 1.672zM334.476 115.52c-.152 2.204-.988 3.42-2.052 4.636-18.164 20.064-33.668 42.104-47.576 65.208-16.72 27.816-35.34 54.264-54.568 80.256-19.076 25.764-37.772 51.832-55.632 78.432-.836 1.292-1.748 2.584-2.888 3.648-1.9 1.748-4.484 1.672-6.384.228-1.748-1.368-2.508-3.648-1.596-5.776.608-1.52 1.596-2.964 2.508-4.408 18.544-27.664 38-54.72 57.836-81.472 19.076-25.612 37.164-51.908 53.504-79.344 10.184-17.024 21.812-33.136 34.352-48.488 4.028-4.94 8.208-9.728 12.844-14.06.988-.988 1.976-1.976 3.268-2.584 3.116-1.444 6.46.836 6.384 3.724zM235.6 43.168c.076 1.748-.988 3.04-2.128 4.332-11.476 13.452-22.724 27.056-34.428 40.204-13.908 15.656-26.904 31.996-39.14 48.944C135.128 171 109.288 204.44 83.068 237.652c-4.788 6.08-9.348 12.388-13.984 18.544-.836 1.14-1.672 2.28-2.736 3.116-1.976 1.672-4.484 1.672-6.384.228-1.976-1.52-2.584-3.876-1.52-6.232.608-1.216 1.444-2.356 2.28-3.496 4.18-5.624 8.208-11.248 12.54-16.72 30.78-38.684 60.344-78.204 89.604-118.028 15.504-21.128 33.516-40.204 50.844-59.812 3.952-4.56 8.056-8.968 12.16-13.452 1.064-1.14 2.052-2.356 3.572-2.888 3.04-1.216 6.08.836 6.156 4.256zm-30.628 300.428c-4.18.076-6.612-3.268-5.548-6.688.304-.988.912-1.976 1.596-2.812 21.432-27.664 40.812-56.848 61.636-84.968 13.832-18.696 29.032-36.252 43.32-54.568 10.564-13.528 21.432-26.904 32.832-39.748.988-1.14 2.052-2.356 3.344-3.192 1.824-1.216 3.876-1.216 5.548.304 1.748 1.52 1.976 3.496 1.064 5.472-.684 1.368-1.748 2.508-2.736 3.724-24.016 30.172-48.26 60.192-71.972 90.592-16.264 20.9-31.008 42.94-46.436 64.448-5.852 8.132-12.084 16.112-18.088 24.168-1.292 1.672-2.736 3.268-4.56 3.268zM47.576 221.844c0-1.976 1.216-3.496 2.28-5.016 6.308-8.816 12.692-17.556 18.924-26.448 14.364-20.368 27.436-41.648 41.952-61.94 21.28-29.716 44.992-57.608 68.932-85.196 2.128-2.432 4.256-4.94 7.068-6.688 2.356-1.444 4.788-1.064 6.308.76 1.52 1.9 1.596 4.256-.456 6.308-9.044 8.968-16.34 19.456-24.472 29.184-19.152 22.8-38.076 45.676-54.796 70.3-11.324 16.644-22.344 33.516-33.744 50.084-6.992 10.26-14.364 20.216-21.584 30.248-.836 1.14-1.672 2.204-2.964 2.888-3.42 1.976-7.524-.532-7.448-4.484zM353.4 193.116c-.076 1.52-.684 2.736-1.52 3.876-18.696 27.512-36.48 55.632-57.988 81.168-12.236 14.592-23.636 29.868-36.328 44.08-3.268 3.724-6.688 7.296-10.108 10.868-.608.684-1.292 1.368-1.976 1.9-2.508 1.9-5.168 1.9-7.144-.076s-2.052-4.56-.152-7.144c.456-.608.988-1.216 1.52-1.748 14.288-14.668 26.448-31.16 39.748-46.664 22.496-26.144 40.736-55.328 61.256-82.916 1.596-2.128 3.04-4.332 4.712-6.308 1.444-1.748 3.42-2.052 5.472-1.14 1.672.836 2.356 2.356 2.508 4.104zM44.764 167.808c0-1.976 1.216-3.42 2.28-5.016 11.324-17.176 23.56-33.82 35.948-50.236 17.252-22.724 35.872-44.308 54.72-65.664.38-.456.76-.988 1.292-1.368 2.128-1.9 4.408-2.052 6.308-.608 2.052 1.596 2.432 4.028.76 6.612-1.064 1.672-2.432 3.192-3.724 4.788-15.276 18.696-30.78 37.24-45.828 56.164-14.06 17.708-27.284 36.024-39.824 54.872-1.14 1.672-2.052 3.496-3.724 4.712-1.748 1.292-3.648 1.596-5.624.38-1.748-1.064-2.66-2.66-2.584-4.636z" fill="#E8E8E8"/></svg>