<svg width="48" height="48" viewBox="0 0 48 48" fill="none" xmlns="http://www.w3.org/2000/svg"><path d="M18.732 21.364a21.112 21.112 0 007.904 7.904l1.768-2.476a2 2 0 012.588-.592 22.844 22.844 0 009.166 2.728A2 2 0 0142 30.922v8.924a2 2 0 01-1.796 1.99A31.02 31.02 0 0137 42C19.88 42 6 28.12 6 11c0-1.076.054-2.144.164-3.204A2 2 0 018.154 6h8.924a2 2 0 011.994 1.842 22.844 22.844 0 002.728 9.166 2 2 0 01-.592 2.588l-2.476 1.768zm-5.044-1.314l3.8-2.714A26.82 26.82 0 0115.294 10H10.02a27.71 27.71 0 00-.018 1C10 25.912 22.088 38 37 38c.334 0 .668-.006 1-.02v-5.274a26.82 26.82 0 01-7.336-2.194l-2.714 3.8a24.884 24.884 0 01-3.176-1.5l-.116-.066a25.113 25.113 0 01-9.404-9.404l-.066-.116a24.884 24.884 0 01-1.5-3.176z" fill="#2D363A"/></svg>