<svg width="402" height="402" viewBox="0 0 402 402" fill="none" xmlns="http://www.w3.org/2000/svg"><path d="M344.997 78.792c-17.527-25.889-46.069-34.33-72.843-39.637C217 28.14 158.549 40.36 113.204 79.837c-36.18 31.597-75.174 90.852-62.552 146.891 11.176 49.366 31.92 111.676 74.692 133.705 25.728 13.266 56.923 12.703 84.34 8.925 26.934-3.699 54.189-12.06 78.39-26.854 24.361-14.954 41.808-36.984 52.581-66.491 10.693-29.265 21.387-64.239 19.457-96.48-3.618-59.094-49.928-98.249-96.882-106.047-51.536-8.523-110.63 10.853-145.524 57.646-31.035 41.648-40.522 103.636-12.703 150.831 29.024 49.365 95.354 62.792 142.388 49.285 44.301-12.784 83.616-55.878 86.269-111.193 2.734-57.245-32.562-100.098-80.158-105.807-47.999-5.788-109.827 16-125.505 75.657-13.105 49.687 20.743 102.188 62.793 110.711 42.049 8.522 93.264-24.362 106.53-73.084 16.401-59.978-47.115-91.415-87.878-82.008-20.904 4.824-41.968 19.457-50.089 43.496-6.512 19.136-4.743 43.095 6.432 59.496 25.005 36.582 93.184 19.055 103.234-25.969 11.899-53.305-51.697-64.883-75.737-31.195-11.578 16.241-5.226 35.778 12.784 38.11 11.818 1.527 36.099-1.85 38.994-19.055 1.286-7.719-3.136-14.392-8.925-17.367-8.924-4.663-18.251.724-26.21 5.468-3.055 1.849-.322 7.155 2.653 5.306 2.171-1.286 4.342-2.573 6.673-3.618 9.327-4.261 15.437-6.191 18.251 6.432 2.412 10.854-1.93 10.693-9.005 13.588-1.527.643-3.055 1.045-4.663 1.447a46.78 46.78 0 01-14.07 1.929c-9.809-.241-18.01-10.21-15.758-21.708 2.492-12.542 18.411-19.778 27.979-22.351 11.256-2.975 24.843-2.251 33.848 6.995 22.593 23.155 1.447 58.853-20.582 68.42-18.492 8.04-46.793 10.935-62.149-6.19-13.749-15.276-15.678-42.532-7.156-61.667 9.889-22.271 31.356-34.17 51.938-36.743 21.708-2.734 45.668 3.618 61.667 21.708 19.859 22.512 16.965 53.225 1.447 77.425-23.316 36.18-66.973 58.29-104.439 39.879-38.994-19.216-59.416-74.531-35.457-117.947 24.281-44.059 77.988-58.371 119.957-49.768 42.291 8.683 70.35 50.25 67.054 100.581-3.136 47.436-35.778 85.867-73.245 100.098-40.843 15.517-98.409 8.12-131.775-25.648-32.562-33.044-36.824-89.003-18.251-132.419 19.457-45.587 59.496-73.164 101.224-82.49 41.808-9.327 89.646-2.814 121.404 33.205 14.954 17.045 25.728 40.039 27.175 64.642 1.608 26.13-6.111 52.42-13.347 76.782-7.396 25.084-17.366 48.24-35.295 65.284-17.769 16.884-39.879 26.934-61.828 33.849-39.798 12.542-95.354 19.698-131.052-10.05-30.632-25.567-44.622-72.601-55.556-112.721-13.347-49.446 13.426-100.259 43.657-133.223C132.258 65.687 172.7 46.31 214.829 42.21c42.773-4.18 102.832 2.251 129.685 46.23 12.784 20.824 25.889 44.14 28.462 70.028.402 3.86 5.708 3.94 5.306 0-2.974-29.346-17.848-56.842-33.285-79.676z" fill="#E8E8E8" stroke="#E8E8E8" stroke-width="4.818" stroke-miterlimit="10"/></svg>