<?xml version="1.0" encoding="utf-8"?><svg width="40" height="38" fill="none" xmlns="http://www.w3.org/2000/svg" viewBox="0 0 40 38"><path d="M5.154 32.82C1.718 29.642 0 24.95 0 18.77 0 12.59 1.718 7.896 5.154 4.743 8.59 1.59 13.539 0 20 0c6.462 0 11.41 1.59 14.846 4.744C38.282 7.897 40 12.59 40 18.769c0 6.18-1.718 10.872-5.154 14.052C31.41 36 26.462 37.59 20 37.59c-6.461 0-11.41-1.59-14.846-4.77z" fill="#075762"/><g clip-path="url(#acclip0_181_2681)"><g clip-path="url(#acclip1_181_2681)"><path d="M18.828 19l4.95 4.95-1.414 1.414L16 19l6.364-6.364 1.414 1.414-4.95 4.95z" fill="#fff"/></g></g><defs><clipPath id="acclip0_181_2681"><path fill="#fff" transform="rotate(90 12.5 19.5)" d="M0 0h24v24H0z"/></clipPath><clipPath id="acclip1_181_2681"><path fill="#fff" transform="rotate(90 12.5 19.5)" d="M0 0h24v24H0z"/></clipPath></defs></svg>