<?xml version="1.0" encoding="utf-8"?><svg width="89" height="112" fill="none" xmlns="http://www.w3.org/2000/svg" viewBox="0 0 89 112"><path d="M41.865 69.765l-3.46-.519-2.77 18.463 3.462.519 2.768-18.463z" fill="#EE8207"/><path d="M42.959 83.16l-10.79-1.62-2.06 13.72s-15.38-2.87-17.07 6.42l26.5 3.98 3.42-22.5z" fill="#F0CA40"/><path d="M31.531.39l7.78.03c7.12.03 12.91 5.88 12.88 13l-.07 16.06-.04 9.4-.04 8.36 36.31.16c-.08 17.72-20.28 30.08-38 30-11.16-.05-20.97-3.86-26.68-12.53a31.962 31.962 0 01-5.28-17.78l.04-8.36.04-9.4.07-16.06c.02-7.11 5.87-12.91 12.99-12.88z" fill="#ECECEC"/><path d="M52.04 47.25l-.07 14.87s20.61 6.54 36.37-14.71l-36.3-.16z" fill="#F0CA40"/><path d="M24.36 16.43c-.01 2.42-.79 4.38-1.73 4.37-.95 0-1.71-1.97-1.7-4.39.01-2.42.79-4.38 1.73-4.37.95 0 1.71 1.97 1.7 4.39zM42.84 16.51c-.01 2.42-.79 4.38-1.73 4.37-.95 0-1.71-1.97-1.7-4.39.01-2.42.79-4.38 1.73-4.37.95 0 1.71 1.97 1.7 4.39z" fill="#1E1E1C"/><path d="M28.21 26.4L0 26.27c.02-3.62 2.99-6.57 6.61-6.56l20.81.09c2.26.01 2.75 2.59 2.8 4.51" fill="#EE8207"/><path d="M6.48 35.4c.91 1.56 4.22 1.35 7.35-.48l14.81-8.6c3.13-1.83.7-4.22.7-4.22l-1.66.97L6.48 35.4zM49.626 67.623l-2.454 2.496L60.484 83.21l2.454-2.495-13.312-13.092z" fill="#EE8207"/><path d="M59.58 76.61l-7.65 7.78 9.89 9.73s-11.36 10.76-4.84 17.58l18.79-19.11-16.19-15.98z" fill="#F0CA40"/></svg>