<?xml version="1.0" encoding="utf-8"?><svg width="100" height="141" fill="none" xmlns="http://www.w3.org/2000/svg" viewBox="0 0 100 141"><path d="M88.68 130.35l-.13-1.99-23.53-5.31v-24.5h-5.35v28.22l21.36 13.14 1.31-.61c2.49-1.18 6.64-4.38 6.34-8.95z" fill="#EE8207"/><path d="M82.29 0c-9.51 0-17.28 7.78-17.28 17.28v45.17H6.13c0 23.67 26.9 40.29 50.58 40.29 14.9 0 28.02-5.03 35.71-16.57a42.674 42.674 0 007.16-23.72V17.29C99.57 7.78 91.79 0 82.29 0z" fill="#ECECEC"/><path d="M25.53 112.42l20.52-14.61-3.1-4.36L0 124.02l1.34 2.14c.06.1.32.51.77 1.13 2.73 3.84 12.36 15.72 24.6 12.1l2.18-.65-3.36-26.32z" fill="#EE8207"/><path d="M65 62.1v24.12S31.54 96.68 6.12 62.1H65z" fill="#639A7F"/><path d="M92.01 21.01c1.08 0 1.96-2.24 1.96-5s-.88-5-1.96-5-1.96 2.24-1.96 5M68.96 16.01c0 2.76.88 5 1.96 5s1.96-2.24 1.96-5-.88-5-1.96-5-1.96 2.24-1.96 5z" fill="#1E1E1C"/><path d="M40.08 25.4c0-4.84 3.96-8.79 8.79-8.79h27.8c4.84 0 3.65 8.79 3.65 8.79H40.08z" fill="#EE8207"/></svg>