<?xml version="1.0" encoding="utf-8"?><svg width="85" height="115" fill="none" xmlns="http://www.w3.org/2000/svg" viewBox="0 0 85 115"><path d="M37.76 82.3l1.4 18.29-17.26 5.31.01 1.49c.03 3.43 3.31 5.58 5.25 6.31l1.01.38 15.2-11.02L41.75 82l-3.99.3z" fill="#EE8207"/><path d="M26.98 10.98h7.78c7.12 0 12.94 5.82 12.94 12.94v33.82h36.31c0 17.73-20.14 30.17-37.87 30.17-11.16 0-20.98-3.77-26.74-12.41a31.912 31.912 0 01-5.36-17.76V23.92c0-7.12 5.83-12.94 12.94-12.94z" fill="#ECECEC"/><path d="M44.2 56.24l5.39 13.86s21.57-1.46 28.45-27.01L44.2 56.24z" fill="#C7C6C6"/><path d="M50.429 82.74l12.69 11.1-4.48 19.36 1.58.64c8.85 3.61 16.91-4.52 19.23-7.17.38-.43.6-.72.66-.79l1.16-1.49-28.21-24.67c-.83-.73-2.1-.64-2.83.19-.72.83-.64 2.1.2 2.83z" fill="#EE8207"/><path d="M24.29 25.06c0 2.42-.77 4.38-1.71 4.38-.95 0-1.71-1.96-1.71-4.38s.77-4.38 1.71-4.38 1.71 1.96 1.71 4.38zM33.37 24.7c0 2.42-.77 4.38-1.71 4.38-.95 0-1.71-1.96-1.71-4.38s.77-4.38 1.71-4.38c.94-.01 1.71 1.96 1.71 4.38z" fill="#1E1E1C"/><path d="M31.07 34.68c-.06-1.93-.56-4.5-2.82-4.5H7.44c-3.62 0-6.58 2.96-6.58 6.58h28.21l1.83-.06.17-2.02z" fill="#EE8207"/><path d="M48.6 24.89L1.87 6.11s1.29-3.19 4.98-2.12c5.15 1.5 6.78 1.97 13.06 4.62 0 0 3.66-9.35 14.11-7.67 9.14 1.47 19.02 7.25 16.06 18.93l-1.48 5.02z" fill="#203458"/><path d="M19.9 8.6l12.75 5.27s3.64-9.08 1.13-11.59C32.8 1.3 32.2.65 30.81.61 27.92.55 22.8 1.54 19.9 8.6z" fill="#0F6FAF"/><path d="M50.249 44.42l-.23-.18a2.94 2.94 0 00-2.18-.61c-.78.09-1.48.49-1.97 1.11l-4.25 5.41c-.01.01-.02.02-.02.03-.11.03-.22.07-.34.11l-5.13 2.08c-.79-.54-1.83-.69-2.78-.3l-5.43 2.2a2.93 2.93 0 00-1.74-.37l-4.46.44c-.2-.21-.42-.4-.69-.55l-5.96-3.44a2.954 2.954 0 00-4.03 1.08l-.15.26c-.39.68-.5 1.48-.29 2.24.2.76.69 1.4 1.37 1.79l4.81 2.78c.15.62.49 1.17.99 1.58.53.44 1.19.67 1.87.67.1 0 .19 0 .29-.01l5.33-.52a5.264 5.264 0 00-2.01 4.17c0 2.87 2.22 5.2 4.97 5.2 2.74 0 4.97-2.33 4.97-5.2 0-1.95-1.03-3.64-2.54-4.53l3.78-1.53c.16.11.34.21.52.28a2.892 2.892 0 002.26.02l6.38-2.59c.54-.22.98-.58 1.29-1.02.62-.15 1.19-.5 1.62-1.04l4.24-5.41c1.02-1.29.8-3.15-.49-4.15zm-22.73 11.56l.16-.07c.17.22.28.49.31.78l.03.29c.07.72-.38 1.37-1.03 1.59-.08-.1-.15-.21-.2-.34l-.11-.27c-.31-.77.07-1.66.84-1.98zm-10.76.86l-4.06-2.35c-.35-.2-.6-.53-.71-.93-.11-.39-.05-.81.15-1.16l.15-.26c.28-.49.8-.76 1.32-.76.26 0 .52.07.76.2l5.14 2.97-.16.02c-1.29.13-2.3 1.07-2.59 2.27zm3.05 1.24c-.39.11-.8.05-1.16-.15l-.54-.31a1.52 1.52 0 011.37-1.62l1.51-.15c.01.04.03.07.04.11.11.39.05.81-.15 1.16l-.15.26c-.19.34-.52.59-.92.7zm2.17.01l.15-.26c.39-.67.48-1.42.32-2.12l3.51-.35c-.77.82-1.05 2.04-.6 3.14l.11.26-4.7.46c.5-.24.92-.64 1.21-1.13zm11.31-3.62a2.95 2.95 0 00-.02 2.26l.11.27c.03.06.05.12.08.18l-4.68 1.9c-.02.01-.05.01-.07.02.53-.6.82-1.4.74-2.25l-.03-.29a2.83 2.83 0 00-.38-1.18l4.86-1.97c.08-.03.16-.05.25-.07-.38.29-.67.68-.86 1.13zm1.86 2.03l-.36.14c-.03-.06-.07-.11-.09-.18l-.11-.27c-.15-.37-.15-.79.01-1.16.16-.38.45-.67.83-.82l.36-.15.09.18.11.27c.32.78-.06 1.67-.84 1.99zm1.54.8c-.08.03-.16.05-.25.07.98-.8 1.37-2.17.88-3.4l-.11-.27c-.03-.06-.05-.12-.08-.18l3.88-1.57c-.01.89.38 1.76 1.13 2.35l.23.18c.16.13.33.23.51.32l-6.19 2.5zm7.28-3.64c-.26-.04-.51-.13-.72-.3l-.23-.18c-.51-.4-.69-1.07-.51-1.65.55.05 1.07.39 1.29.94l.11.27c.12.3.13.62.06.92zm5.66-5.98l-4.2 5.35c-.03-.28-.09-.56-.2-.84l-.11-.27c-.33-.81-.98-1.4-1.75-1.67l3.63-4.63c.25-.32.61-.52 1.02-.57.4-.05.8.06 1.12.31l.23.18c.32.25.52.61.57 1.02.05.41-.06.81-.31 1.12z" fill="#D2AD35"/></svg>