<?xml version="1.0" encoding="utf-8"?><svg width="101" height="144" fill="none" xmlns="http://www.w3.org/2000/svg" viewBox="0 0 101 144"><path d="M89.12 133.52l-.13-1.99-23.53-5.31v-24.5h-5.35v28.22l21.36 13.14 1.31-.61c2.5-1.18 6.65-4.38 6.34-8.95z" fill="#EE8207"/><path d="M82.73 3.17c-9.51 0-17.28 7.78-17.28 17.28v45.17H6.57c0 23.67 26.9 40.29 50.58 40.29 14.9 0 28.02-5.03 35.71-16.57a42.674 42.674 0 007.159-23.72V20.45c-.01-9.5-7.78-17.28-17.29-17.28z" fill="#ECECEC"/><path d="M90.499 19.18c0 2.76.88 5 1.96 5s1.96-2.24 1.96-5-.88-5-1.96-5-1.96 2.24-1.96 5zM69.41 19.18c0 2.76.88 5 1.96 5s1.96-2.24 1.96-5-.88-5-1.96-5c-1.09 0-1.96 2.24-1.96 5z" fill="#1E1E1C"/><path d="M40.52 28.57c0-4.84 3.96-8.79 8.79-8.79h27.8c4.84 0 3.65 8.79 3.65 8.79H40.52z" fill="#EE8207"/><path d="M65.45 65.63v24.12S31.99 100.21 6.57 65.63h58.88z" fill="#273257"/><path d="M25.98 115.59l20.52-14.61-3.1-4.36L.45 127.19l1.34 2.14c.06.1.32.51.77 1.13 2.73 3.84 12.36 15.72 24.6 12.1l2.18-.65-3.36-26.32z" fill="#EE8207"/><path d="M87.799 1.35c-.9-.06-1.67 3.19-2.45 5-.09.21-.18.43-.14.65.1.61.94.65 1.55.61 3.62-.24 7.26 2.04 8.63 5.39.27.66.68 1.51 1.39 1.42.63-.08.89-.84.95-1.47.56-5.66-4.25-11.28-9.93-11.6zM80.82.52c.48.66-.27 2.88-.86 4.88-.18.63-.27 1.35-.81 1.72-.49.33-1.14.26-1.73.24-2.49-.09-5 .94-6.7 2.76-.4.42-.76.9-1.28 1.16-.6.31-1.41.37-1.95.7-.6.37-1.41.06-1.5-.64-.01-.06-.01-.11-.01-.17-.1-2.53 1.69-4.71 3.52-6.45 1.42-1.35 2.95-2.62 4.75-3.38 1.8-.76 4.78-1.59 6.57-.82z" fill="#BABAB9"/><path d="M84.539 62.79l2-6.31h-8.82l2.33 6.5 4.49-.19zM84.879 63.79l2.33 22.17-5.33 5-4.16-4.33 2.66-22.65 4.5-.19z" fill="#DF5C2A"/></svg>