<?xml version="1.0" encoding="utf-8"?><svg width="64" height="70" fill="none" xmlns="http://www.w3.org/2000/svg" viewBox="0 0 64 70"><path d="M27.719 46.8c-4.54 4.17-1.16 8.32-7.07 10.09-5.82 1.74-5.46-2.67-11.23-4.54-.48-.15-1.26.07-1.22.57.23 2.92.36 4.22.86 5.52.27.71 2.96 5.2 3.31 5.12 6.46-1.38 3.86-.58 9.45-3.5 6.29-3.29 5.03-5.29 8.16-11.66.68-1.41-1.27-2.51-2.26-1.6z" fill="#E27C0D"/><path d="M25.73.08h.09C31.9.07 36.95 5.05 37.04 11.13c.05 3.23.21 3.99.21 8.48 0 3.16-.09 3.16-.09 6.32 0 2.81-2.79 4.94-.05 5.57 10.86 2.5 13.04-3.88 21.67-.95a3.62 3.62 0 012.38 4.1c-2.02 10.29-14.22 17.23-25.11 17.23-7.5 0-14.17-2.54-18.04-8.35-2.28-3.42-3.48-7.57-3.48-11.98 0-2.81-.08-2.81-.08-5.62 0-3.16.13-3.16.13-6.32 0-4.37-.05-5.2-.08-8.22C14.47 5.17 19.52.08 25.73.08z" fill="#E8E8E8"/><path d="M34.16 26.81c-4.63 1.89-3.5 6.44-.02 10.03 9.46 9.77 13.61 4.65 23.45-8.73.66-.9 4-5.87 3.72-6.95-2.57-9.66-16.47 1.28-27.15 5.65z" fill="#BABAB9"/><path d="M19.76 9.43c0 1.32-.61 2.4-1.38 2.4-.77 0-1.4-1.08-1.4-2.4 0-1.32.63-2.4 1.4-2.4.77 0 1.38 1.07 1.38 2.4zM29.64 9.42c0 1.42-.63 2.56-1.41 2.56-.78 0-1.41-1.15-1.41-2.56 0-1.41.63-2.56 1.41-2.56.78 0 1.41 1.15 1.41 2.56z" fill="#2E3539"/><path d="M29.179 9.43c0 1.32-.59 2.39-1.31 2.39-.73 0-1.31-1.07-1.31-2.39s.59-2.39 1.31-2.39c.72-.01 1.31 1.06 1.31 2.39zM19.52 8.08c-.12-.61-.4-1.18-1.02-1.4-.5-.18-1.11-.08-1.55.22-.89.58-1.29 1.8-1.35 2.81-.05.89.17 2.11 1.07 2.53.53.25 1.16.12 1.65-.16.51-.29.71-.73.83-1.28.05-.2.09-.41.18-.6.05-.1.1-.2.13-.31.13-.46.1-.99.08-1.46-.01-.49-.78-.49-.76 0 .01.24.01.49 0 .73 0 .08-.01.15-.01.23 0 .04-.01.07-.01.1-.01.12.01-.07 0 .04-.01.08-.04.15-.06.23-.02.08.04-.08 0 0-.02.03-.03.07-.05.1-.17.36-.2.75-.33 1.12-.12.36-.5.54-.86.61-.77.13-1.04-.77-1.09-1.38-.05-.76.12-1.55.53-2.2.24-.38.61-.67 1.08-.67.54 0 .71.47.8.93.09.49.83.29.74-.19z" fill="#2E3539"/><path d="M29.21 8.48c-.17-.78-.79-1.92-1.71-1.93-.28 0-.54.09-.79.2-.25.11-.5.22-.69.41-.36.36-.52.95-.61 1.43-.19 1.02-.08 2.22.59 3.06.31.38.74.64 1.24.7.51.07.95-.1 1.32-.44.19-.17.38-.37.51-.59.15-.27.18-.54.21-.84.06-.67.07-1.34-.07-2-.1-.48-.83-.28-.74.2.09.44.1.89.08 1.34-.02.35.01.74-.21 1.03-.18.24-.45.5-.75.54-.3.04-.62-.07-.84-.27-.57-.51-.69-1.4-.65-2.13.02-.4.11-.8.27-1.17.15-.37.43-.51.79-.65.35-.13.54-.05.78.21.28.3.45.68.53 1.08.11.5.85.3.74-.18zM27.259 5.61c.53 0 .53-.82 0-.82-.52 0-.53.82 0 .82zM29.83 5.95c.53 0 .53-.82 0-.82s-.53.82 0 .82zM31.04 9.24c.53 0 .53-.82 0-.82-.52.01-.52.82 0 .82zM31 12.83c.53 0 .53-.82 0-.82s-.53.82 0 .82zM27.89 14.87c.53 0 .53-.82 0-.82-.52 0-.53.82 0 .82zM24.64 13.46c.53 0 .53-.82 0-.82-.52 0-.52.82 0 .82zM23.96 10.21c.53 0 .53-.82 0-.82-.52 0-.52.82 0 .82zM24.599 6.77c.53 0 .53-.82 0-.82s-.53.82 0 .82zM19.87 16.98c-.39 6.51-.22 13.16 1.09 19.56.64 3.12 1.49 6.31 3.69 8.72 1.03 1.13 2.26 2.06 3.52 2.91 1.34.92 2.72 1.87 4.27 2.4 1.67.57 3.52.81 5.27.91 1.7.1 3.44.04 5.09-.37.51-.13.29-.92-.22-.79-2.86.71-6.03.43-8.87-.24-1.63-.38-3-1.21-4.39-2.12-1.26-.83-2.5-1.7-3.58-2.75a10.956 10.956 0 01-2.57-3.83c-.57-1.41-.95-2.91-1.28-4.39-.68-3.09-1.05-6.25-1.24-9.41-.21-3.53-.18-7.07.03-10.6.04-.53-.77-.53-.81 0z" fill="#2E3539"/><path d="M40.77 48.04c3.97 4.95 7.77 2 9.83 8 2.17 6.32-1.72 6.46-2.46 13.1-.06.57.3.68 1 .41 5.99-2.32 10.76-4.01 12.77-5.27.83-.52 1.69-1.2 1.21-1.63-9.86-8.88-9.61-9.3-20.59-16.75-1.29-.88-2.6 1.09-1.76 2.14z" fill="#E27C0D"/><path d="M19.829 18.47c.44-.17.86-.4 1.17-.77.45-.54.57-1.21.46-1.9-.16-1.06-.76-1.99-1.74-2.46-.4-.19-.78-.28-1.22-.22-.41.06-.83.21-1.11.52-.36.39.22.97.58.58.33-.36.93-.37 1.34-.17.45.21.81.53 1.04.94.05.08.09.16.12.25-.03-.07.01.03.02.05.01.04.03.08.04.12.03.1.06.2.08.31.11.48.11.96-.16 1.36-.09.13-.27.28-.4.37-.08.05-.17.1-.26.15l-.12.06.02-.01c-.03.01-.05.02-.08.03-.21.08-.35.27-.29.5.06.2.3.37.51.29z" fill="#2E3539"/><path d="M18.99 18.25c-9.48 0-9.48-.02-18.97-.02h.02c0-2.43 4.54-3.87 6.97-3.98 7.37-.33 4.44-.41 11.43-.41 1.52 0 2.41 1.33 2.45 2.62" fill="#E27C0D"/><path d="M4.11 24.08c.27.25.61.44.97.5 1.75.31 4.54-.93 6.37-2.01 4.96-2.91 2.84-1.51 7.8-4.42 2.1-1.24 2.1-2.25.48-2.8-.61-.21-.55.33-1.11.66-7.11 4.18-8.17 3.21-15.28 7.38.01 0 .46.41.77.69z" fill="#E27C0D"/><path d="M6.67 15.2c-.31 0-.7.03-.92.29-.14.16-.21.38-.15.59.06.23.25.38.47.46.17.06.35.07.52.07.19.01.39.01.58 0h.13c.1-.01.17-.03.27-.07-.01 0-.02.01-.03.01-.06.03-.04.02.07-.03.02-.01.03-.01.04-.02.05-.03.1-.07.15-.11.16-.16.23-.41.16-.63a.755.755 0 00-.33-.43.735.735 0 00-.3-.07l-.66-.06c-.1-.01-.22.05-.29.12-.07.07-.12.19-.12.29.01.24.18.39.41.41.25.02.5.05.75.07l-.21-.06c.06.04-.08-.08-.01-.01l.02.02c-.04-.06-.06-.08-.04-.05 0 .01.01.01.01.02.02.04.01.02-.02-.06 0 .02.01.04.01.06 0-.04-.01-.07-.01-.11v.06c0-.04.01-.07.01-.11 0 .01 0 .02-.01.03-.01.06.04-.08.02-.05-.01.02-.03.05.01-.01.02-.03.03-.04.02-.02l-.02.02c0-.01.09-.06.04-.03 0 0-.03.01-.03.02.02-.01.04-.02.06-.02-.11.05-.13.06-.07.03.07-.03 0 0-.01 0 .04 0 .07-.01.11-.01-.16.02-.33.01-.49.01-.15 0-.31 0-.46-.02.04 0 .07.01.11.01-.04-.01-.07-.01-.11-.02-.02 0-.04-.01-.05-.02.09.02.07.03.03.01-.01 0-.04-.03-.04-.03.02.01.04.03.06.04-.01-.01-.02-.01-.02-.02.01 0 .07.1.03.04-.01-.02.03.12.02.03 0 .04.01.07.01.11v-.05c0 .04-.01.07-.01.11 0-.02.01-.03.01-.05 0-.02-.04.08-.03.07 0 0 .01-.01.01-.02.03-.05-.08.09-.03.03.06-.05-.09.05-.03.02.01-.01.03-.02.05-.03.03-.02-.11.04-.05.02.01 0 .02-.01.03-.01.05-.02.1-.03.16-.03-.04 0-.07.01-.11.01.09-.01.18-.01.27-.01.21 0 .42-.19.41-.41 0-.22-.17-.4-.4-.4zM20.55 13.85c-.08-3.02.84-5.92 1.92-8.7.47-1.21.93-2.47 2.07-3.21.99-.65 2.18-.83 3.35-.82.53 0 .53-.82 0-.82-1.26-.01-2.57.2-3.66.87-1.19.74-1.8 1.89-2.3 3.15-1.21 3.04-2.28 6.22-2.19 9.53 0 .53.82.53.81 0zM21.45 2.69c.53 0 .53-.82 0-.82s-.53.82 0 .82zM20.15 5.78c.53 0 .53-.82 0-.82-.52 0-.53.82 0 .82zM23.07 19.21c.53 0 .53-.82 0-.82-.53.01-.53.82 0 .82zM23.07 24.69c.53 0 .53-.82 0-.82s-.53.82 0 .82zM23.32 31.01c.53 0 .53-.82 0-.82s-.53.82 0 .82zM24.56 37.58c.53 0 .53-.82 0-.82-.52 0-.52.82 0 .82zM26.259 42.36c.53 0 .53-.82 0-.82s-.53.82 0 .82zM30.19 46.29c.53 0 .53-.82 0-.82-.53.01-.53.82 0 .82zM34.82 48.68c.53 0 .53-.82 0-.82s-.53.82 0 .82zM44.69 22.62c.65.13 1.16.17 1.68.63.44.4.86.81 1.26 1.25.82.9 1.55 1.89 2.13 2.96.6 1.1 1.06 2.28 1.27 3.51.22 1.32.11 2.66-.18 3.95-.11.51.68.73.79.22.31-1.4.42-2.82.2-4.24-.21-1.36-.72-2.66-1.38-3.86-.63-1.15-1.42-2.22-2.31-3.18-.46-.5-.96-1-1.49-1.44-.52-.42-1.13-.47-1.76-.6-.51-.09-.73.69-.21.8z" fill="#2E3539"/><path d="M35.64 38.13c6.05-.05 11.7-2.77 15.76-7.21.36-.39-.22-.97-.58-.58-3.92 4.29-9.34 6.92-15.18 6.97-.52.01-.52.82 0 .82zM34.71 36.28c.53 0 .53-.82 0-.82s-.53.82 0 .82z" fill="#2E3539"/><path d="M39.39 35.44c.53 0 .53-.82 0-.82-.52 0-.52.82 0 .82zM44.56 33.4c.53 0 .53-.82 0-.82-.52 0-.52.82 0 .82zM48.05 30.99c.53 0 .53-.82 0-.82s-.53.82 0 .82zM47.829 24.25c2.95-1.41 5.75-3.16 8.33-5.16.42-.32-.17-.9-.58-.58a45.076 45.076 0 01-8.17 5.03c-.47.23-.05.94.42.71zM50.95 25.11c.53 0 .53-.82 0-.82s-.53.82 0 .82zM53.669 23.11c.53 0 .53-.82 0-.82s-.53.82 0 .82zM56.72 20.77c.53 0 .53-.82 0-.82s-.53.82 0 .82z" fill="#2E3539"/></svg>