<?xml version="1.0" encoding="utf-8"?><svg width="84" height="104" fill="none" xmlns="http://www.w3.org/2000/svg" viewBox="0 0 84 104"><path d="M43.59 72.63l15.52 9.78-6.02 17.03 1.21.88c2.77 2.02 6.46.66 8.2-.45l.91-.58.2-18.77-17.88-11.26-2.14 3.37z" fill="#EE8207"/><path d="M26.19.91h7.78c7.12 0 12.94 5.82 12.94 12.94v33.82h36.31c0 17.73-20.14 30.17-37.87 30.17-11.16 0-20.98-3.77-26.74-12.41a31.91 31.91 0 01-5.36-17.76V13.85C13.25 6.73 19.07.91 26.19.91z" fill="#E8E8E8"/><path d="M41.9 45.83l6.21 15.98s24.87-1.69 32.8-31.14L41.9 45.83z" fill="#C7C6C6"/><path d="M41.97 69.44l-9.03 14.24-19.82-1.47-.4 1.66c-2.22 9.3 7.05 16.02 10.03 17.91.48.31.8.49.88.53l1.65.92 20.07-31.64c.59-.93.32-2.17-.62-2.76-.93-.6-2.17-.32-2.76.61z" fill="#EE8207"/><path d="M21.14 15.35c0 2.42-.77 4.38-1.71 4.38-.95 0-1.71-1.96-1.71-4.38s.77-4.38 1.71-4.38 1.71 1.96 1.71 4.38zM37.861 15.62c0 2.42-.77 4.38-1.71 4.38-.95 0-1.71-1.96-1.71-4.38s.77-4.38 1.71-4.38 1.71 1.96 1.71 4.38z" fill="#1E1E1C"/><path d="M27.9 26.69H.05c0-3.62 2.96-6.58 6.58-6.58h20.81c2.26 0 2.77 2.57 2.82 4.5l.06 2.02-2.42.06z" fill="#EE8207"/></svg>