<?xml version="1.0" encoding="utf-8"?><svg width="226" height="311" fill="none" xmlns="http://www.w3.org/2000/svg" viewBox="0 0 226 311"><path d="M29.12 310.975C9.705 292.959 0 266.37 0 231.355c0-35.016 9.706-61.605 29.12-79.476C48.531 134.008 76.491 125 113 125c36.508 0 64.468 9.008 83.881 26.879C216.294 169.75 226 196.339 226 231.355c0 35.015-9.706 61.604-29.119 79.62C177.468 328.992 149.508 338 113 338s-64.468-9.008-83.88-27.025z" fill="#2D363A"/><path d="M88.22 106.578c10.85 8.12 18.45-.85 24.65 11.2 6.11 11.87-3.57 12.87-5.27 26.11-.14 1.09.66 2.7 1.72 2.41 6.22-1.67 8.97-2.49 11.57-4.08 1.42-.86 10.03-8.49 9.72-9.22-5.6-13.41-2.8-8.1-11.38-19-9.65-12.27-13.46-8.74-28.5-12.92-3.29-.93-4.88 3.73-2.51 5.5z" fill="#E27C0D"/><path d="M57.7.758c7.45-1.39 14.47-1.3 19.87 4.01 3.6 3.54 4.61 8.6 5.85 13.85 3.7 15.6 6.4 43.29 6.4 50.34 0 6.27-12.32-1.93-6.46.29 15.45 5.86 16.49-.22 33.02-.22 2.35 0 4.35-.37 6.17-.54 25.48-2.5 41.76-10.7 15.94 25.87-2.31 3.28-5.28 5.96-8.39 8.16-10.75 7.6-24.51 11.79-37.45 11.79-16.73 0-31.65-5.25-40.28-18.21-5.08-7.63-7.61-16.91-7.61-26.76 0-6.27-.01-6.27-.01-12.54 0-7.05.07-7.05.07-14.1 0-12.04.02-12.04.02-24.09 0-6.47 2.11-15.85 12.86-17.85z" fill="#E8E8E8"/><path d="M68.01 17.189c0 3.1 1.01 5.6 2.22 5.6 1.21 0 2.22-2.5 2.22-5.6 0-3.1-1-5.63-2.22-5.63-1.22 0-2.22 2.53-2.22 5.63z" fill="#2E3539"/><path d="M68.01 17.189c0 3.1 1.01 5.6 2.22 5.6 1.21 0 2.22-2.5 2.22-5.6 0-3.1-1-5.63-2.22-5.63-1.22 0-2.22 2.53-2.22 5.63zM46.59 16.808c0 3.1.99 5.59 2.2 5.59 1.21 0 2.21-2.49 2.21-5.59 0-3.1-1-5.64-2.21-5.64-1.22 0-2.2 2.54-2.2 5.64z" fill="#2E3539"/><path d="M12 26.109c0-5.43 4.35-8.22 9.78-8.22 15.61 0 15.61.02 31.22.02 5.43 0 6.5 4.3 4.14 9.83-.57 1.33-4.58.57-6.03.57-21.15.01-39.11-2.2-39.11-2.2z" fill="#E27C0D"/><path d="M107.43 98.968s-6.89-.17-6.19 8.27l1.7 20.68a3.815 3.815 0 002.38 3.2c1.71.7 4.21 1.35 6.72.73 3.53-.87 19.33-7.55 25.92-10.36 1.75-.75 2.85-2.45 2.77-4.3l-1.06-25.29-32.24 7.07z" fill="#106FAE"/><path d="M109.95 132.708c-1.87 0-3.6-.51-4.86-1.02-1.57-.64-2.63-2.06-2.76-3.72l-1.7-20.68c-.24-2.97.38-5.28 1.87-6.86 1.85-1.96 4.38-2.08 4.87-2.08l32.9-7.23 1.09 26.03c.09 2.09-1.18 4.05-3.15 4.89-6.63 2.83-22.44 9.52-26.01 10.4-.76.19-1.52.27-2.25.27zm-2.54-33.12c-.18 0-2.45.04-4.02 1.7-1.23 1.31-1.74 3.29-1.53 5.89l1.7 20.68c.1 1.19.86 2.21 2 2.67 1.58.64 3.97 1.29 6.34.7 3.48-.86 19.22-7.51 25.82-10.33 1.52-.65 2.46-2.1 2.4-3.7l-1.03-24.56-31.6 6.94h-.07c0 .01-.01.01-.01.01z" fill="#0C3D58"/><path d="M106.571 104.118l1.67 11.21c.42 2.7 3.28 4.28 5.79 3.21l24.94-10.71a4.2 4.2 0 002.52-4.37l-1.49-12.15a4.18 4.18 0 00-4.09-3.68l-3.05-.05c-.62-.01-1.79.16-2.36.42l-26.67 11.23a.963.963 0 00-.22 1.62c1.21 1.01 2.9 2.54 2.96 3.27z" fill="#106FAE"/><path d="M112.38 119.507c-.8 0-1.61-.2-2.33-.61a4.796 4.796 0 01-2.43-3.47l-1.68-11.25c-.01-.05-.18-.71-2.73-2.84-.42-.35-.63-.89-.56-1.43.07-.55.42-1.01.92-1.24l26.68-11.24c.64-.29 1.9-.49 2.61-.47l3.05.05c2.39.04 4.41 1.86 4.7 4.24l1.49 12.15c.26 2.12-.93 4.19-2.89 5.02l-24.94 10.71c-.6.25-1.25.38-1.89.38zm-5.19-15.46l1.67 11.19c.17 1.09.82 2.03 1.79 2.56.97.54 2.11.6 3.13.16l24.94-10.71a3.59 3.59 0 002.14-3.71l-1.49-12.15a3.588 3.588 0 00-3.48-3.13l-3.05-.05c-.56-.01-1.63.16-2.08.36l-26.68 11.24c-.14.06-.17.2-.18.26-.01.07-.01.2.12.3 3.02 2.52 3.14 3.33 3.17 3.68z" fill="#0C3D58"/><path d="M122.78 114.128l.36 6.22 7.95-3.22-.55-6.22-7.76 3.22zM103.84 106.938c-.96 0-1.91-.31-2.72-.91l.74-1.02c.76.55 1.66.77 2.54.62.76-.13 1.43-.54 1.8-1.08l1.04.7c-.55.82-1.53 1.43-2.63 1.62-.26.05-.52.07-.77.07zM110.17 99.078l-1.03-6.6c-.38-2.41 1.08-4.78 3.39-5.5l9.45-2.94c1.35-.42 2.81-.23 4.01.51 1.22.76 2.05 2.01 2.28 3.44l.74 4.39-1.25.21-.75-4.4c-.17-1.07-.79-2-1.7-2.57a3.61 3.61 0 00-2.97-.38l-9.45 2.94c-1.72.53-2.8 2.29-2.52 4.09l1.03 6.6-1.23.21z" fill="#0C3D58"/><path d="M90.22 65.628v24.12s33.461 10.46 58.881-24.12h-58.88z" fill="#273257"/><path d="M46.85 123.218c-2.92 13.82 18.44 28.61 19.01 28.56.17-.05.33-.17.45-.36 16.14-24.29 17.15-23.87 29.83-50.13 1.51-3.13-3.21-5.33-5.22-3.16-9.48 10.21-1.86 17.54-14.24 23.93-13.05 6.73-14.6-1.67-29.27-1.15-.04 0-.08.01-.12.01-1.06.1-.18 1.11-.44 2.3z" fill="#E27C0D"/><path d="M62.96 66.348l1.99-6.31h-8.11l1.62 6.5 4.5-.19zM63.29 67.348l2.33 22.18-5.33 4.99-4.16-4.33 2.66-22.65 4.5-.19z" fill="#DF5C2A"/><path d="M165.572 162.482c5.36 2.48 7.31-1.55 11.51 2.6 4.42 4.38 1.24 6.1 3.38 11.95.18.5.54.44 1.01-.07 4.04-4.42 7.32-7.8 8.47-9.69.48-.78.91-1.7.34-1.86-11.9-3.32-11.87-3.78-24.11-5.45-1.47-.2-1.74 1.99-.6 2.52z" fill="#E27C0D"/><path d="M148.652 120.092l.08-.01c5.62-.71 10.86 3.29 11.66 8.9.43 2.98.66 3.66 1.18 7.81.37 2.92.28 2.93.65 5.85.33 2.6-2 4.89.6 5.15 10.32 1.04 11.59-5.11 19.92-3.4 1.64.34 2.79 1.85 2.68 3.51-.66 9.75-11.13 17.58-21.2 18.85-6.93.87-13.39-.7-17.64-5.62-2.5-2.89-4.09-6.59-4.61-10.67-.33-2.6-.4-2.59-.73-5.19-.37-2.92-.25-2.94-.61-5.85-.51-4.04-.66-4.8-1.03-7.59-.76-5.72 3.31-11.01 9.05-11.74z" fill="#E8E8E8"/><path d="M143.762 130.871c.19 1.5-.26 2.8-1.02 2.9-.76.1-1.54-1.05-1.73-2.55-.19-1.5.28-2.8 1.04-2.9.76-.09 1.52 1.05 1.71 2.55z" fill="#2E3539"/><path d="M143.762 130.871c.19 1.5-.26 2.8-1.02 2.9-.76.1-1.54-1.05-1.73-2.55-.19-1.5.28-2.8 1.04-2.9.76-.09 1.52 1.05 1.71 2.55zM155.092 129.442c.19 1.5-.24 2.79-.96 2.88-.72.09-1.45-1.05-1.64-2.55-.19-1.5.24-2.79.96-2.88.72-.09 1.45 1.05 1.64 2.55z" fill="#2E3539"/><path d="M155.092 129.442c.19 1.5-.24 2.79-.96 2.88-.72.09-1.45-1.05-1.64-2.55-.19-1.5.24-2.79.96-2.88.72-.09 1.45 1.05 1.64 2.55z" fill="#2E3539"/><path d="M144.542 137.671c-8.76 1.11-8.76 1.09-17.53 2.2h.02c-.28-2.25 3.74-4.11 5.98-4.49 6.77-1.17 4.05-.9 10.52-1.71 1.41-.18 2.38.94 2.57 2.14" fill="#E27C0D"/><path d="M131.472 144.801c.28.2.61.33.96.35 1.65.08 4.08-1.39 5.65-2.6 4.25-3.27 2.45-1.73 6.69-5 1.79-1.39 1.68-2.32.12-2.65-.59-.12-.47.37-.95.74-6.08 4.69-7.17 3.92-13.26 8.6.01.01.47.33.79.56zM158.212 160.842c-3.91 4.21-.47 7.81-5.83 9.89-5.27 2.04-5.26-2.08-10.76-3.39-.45-.11-1.17.16-1.09.62.43 2.7.65 3.89 1.2 5.06.3.64 3.13 4.61 3.45 4.51 5.9-1.76 3.54-.82 8.52-3.94 5.6-3.52 4.29-5.28 6.72-11.43.54-1.36-1.36-2.23-2.21-1.32z" fill="#E27C0D"/><path d="M167.992 154.762c-1.26 1.17-3.13 1.23-4.75 1.1-1.94-.16-3.96-.61-5.57-1.76-1.38-.99-2.33-2.5-2.32-4.23.01-1.88.94-3.74 2.14-5.14.67-.78 1.45-1.49 2.33-2.03.73-.45 1.74-.91 2.57-.45 1.01.56 1.91-.99.9-1.54-2.18-1.21-4.63.38-6.21 1.87-1.67 1.56-3.01 3.72-3.39 5.99-.39 2.35.33 4.61 2.06 6.25 1.77 1.68 4.14 2.41 6.52 2.72 2.41.32 5.11.24 6.98-1.52.84-.78-.42-2.05-1.26-1.26z" fill="#273257"/><path d="M173.872 131.592c2.73.51 5.75 1.01 7.56 3.12 1.87 2.18 2.07 5.39 1.26 8.15-.14.49-.32 1.01-.7 1.35-.49.44-1.2.5-1.86.51-5.3.03-10.43-3.22-15.7-2.6-.4.05-.82.11-1.2-.05-.44-.19-.7-.64-.91-1.07-1.17-2.42-1.7-5.15-1.51-7.84.02-.26.05-.54.23-.73.18-.19 2.14-.72 3.7-.97.01.01 4.67-.7 9.13.13z" fill="#273257"/><path d="M159.552 143.811c-4.05 2.29-2.48 6.36 1.15 9.27 9.88 7.93 13.12 2.71 20.65-10.8.51-.91 3.32-5.28 3-7.01-1.68-9.14-15.44 3.26-24.8 8.54z" fill="#BABAB9"/><path d="M163.052 149.732a.495.495 0 01-.33-.08.505.505 0 01-.14-.68c.25-.37 6.2-9.2 14.3-12.3a.487.487 0 11.35.91c-7.8 2.99-13.77 11.84-13.83 11.93-.09.12-.22.2-.35.22zM167.153 150.331c-.24.03-.39.04-.41.04-.27.01-.49-.2-.5-.47-.01-.27.2-.49.47-.5.03 0 3.1-.14 3.49-2.33.31-1.74 1.83-1.83 2.84-1.9.42-.03.95-.06 1.08-.22.07-.08.05-.26.04-.36-.19-1.54 1.25-2.06 2.21-2.41.29-.11.72-.26.85-.38-.01-.01-.01-.03-.03-.05a.481.481 0 01.17-.67c.23-.14.53-.07.67.17.23.37.19.68.13.87-.18.52-.77.73-1.45.98-1.43.51-1.64.84-1.57 1.37.06.46-.03.83-.26 1.11-.4.48-1.1.53-1.77.57-1.09.07-1.77.16-1.94 1.1-.22 1.24-1.07 2.18-2.46 2.71-.61.22-1.19.33-1.56.37z" fill="#2E3539"/></svg>