<?xml version="1.0" encoding="utf-8"?><svg width="190" height="177" fill="none" xmlns="http://www.w3.org/2000/svg" viewBox="0 0 190 177"><path d="M163.066 97.236c2.78 12.72-8.09 15.79-.02 26.01 7.94 10.06 12.67 2 24.92 5.78 1.01.31 2.1 1.65 1.42 2.46-3.94 4.77-5.75 6.85-8.18 8.49-1.32.89-11.41 5.39-11.93 4.83-9.49-10.23-5.97-5.68-12.08-17.52-6.88-13.32-2.28-15.24.05-30.05.51-3.25 5.21-2.78 5.82 0z" fill="#E27C0D"/><path d="M181.446 2.387c-6.13-3.94-18-2.87-23.2 2.24-3.46 3.4-4.43 8.26-5.62 13.3-3.55 14.98-6.15 41.58-6.15 48.35 0 6.02 11.84-1.85 6.2.28-14.84 5.63-15.84-.21-31.72-.21-2.25 0-4.2-.2-5.93-.52-14.12-2.65-24.11 13.48-15.31 24.84 2.36 3.05 5.07 5.73 8.06 7.84 10.33 7.3 23.55 11.33 35.97 11.33 16.07 0 30.4-5.04 38.69-17.49 4.88-7.33 7.31-16.24 7.31-25.7 0-6.02.01-6.02.01-12.05 0-6.77-.06-6.77-.06-13.54 0-11.57-.02-11.57-.02-23.14.01-6.22-2.92-12.12-8.23-15.53z" fill="#E8E8E8"/><path d="M162.436 18.037c0 2.98-.97 5.38-2.13 5.38-1.17 0-2.13-2.4-2.13-5.38s.96-5.41 2.13-5.41c1.16.01 2.13 2.43 2.13 5.41z" fill="#2E3539"/><path d="M162.436 18.037c0 2.98-.97 5.38-2.13 5.38-1.17 0-2.13-2.4-2.13-5.38s.96-5.41 2.13-5.41c1.16.01 2.13 2.43 2.13 5.41zM185.306 19.746c0 2.98-.95 5.37-2.11 5.37-1.17 0-2.13-2.4-2.13-5.37 0-2.98.96-5.42 2.13-5.42 1.17.01 2.11 2.45 2.11 5.42z" fill="#2E3539"/><path d="M185.306 19.746c0 2.98-.95 5.37-2.11 5.37-1.17 0-2.13-2.4-2.13-5.37 0-2.98.96-5.42 2.13-5.42 1.17.01 2.11 2.45 2.11 5.42z" fill="#2E3539"/><path d="M132.616 27.966c.38-5.2 4.74-7.57 9.95-7.18 14.95 1.1 14.95 1.12 29.9 2.23 5.2.38 5.92 4.58 3.27 9.71-.64 1.23-4.43.22-5.81.12-20.27-1.49-37.31-4.88-37.31-4.88z" fill="#E27C0D"/><path d="M138.266 37.107c.22 3 3.74 4.29 8 3.97 12.23-.9 12.23-.91 24.47-1.82 4.26-.31 4.92-2.75 2.85-5.67-.5-.7-3.61-.05-4.75.03-16.59 1.23-30.57 3.49-30.57 3.49z" fill="#E27C0D"/><path d="M149.146 61.536c11.34 6.36 13.11 17.35-.06 25.93-15.29 9.95-29.93.11-35.69-2.84-7.09-3.64-15-8.32-22.31-16.44-3.31-3.68-.61-9.49 4.33-9.33 6.64.21 10.91 4.97 22.03 2.79 16.4-3.22 17.14-8.28 31.7-.11z" fill="#BABAB9"/><path d="M133.606 146.436c-12.33 5.67-30.72-11.19-30.8-11.74.01-.17.09-.34.24-.5 19.31-20.29 18.71-21.14 40.61-38.6 2.61-2.08 5.67 1.87 4.07 4.21-7.55 11.06-16.03 5.47-19.38 18.43-3.53 13.65 4.67 13.32 7.3 27.18.01.04.01.08.02.11.13 1.03-1 .42-2.06.91z" fill="#E27C0D"/><path d="M127.005 81.636c-4.8 0-9.09-1.11-12.55-2.47-8.25-3.26-13.52-8.49-13.74-8.71a.9.9 0 010-1.27.9.9 0 011.27 0c.07.07 5.28 5.23 13.19 8.33 4.62 1.81 9.24 2.58 13.74 2.29 5.62-.37 11.09-2.41 16.25-6.07a.896.896 0 111.04 1.46c-6.77 4.8-13.36 6.44-19.2 6.44z" fill="#2E3539"/><path d="M123.646 77.067c-7.17 0-15.84-6.2-16.28-6.52a.896.896 0 011.05-1.45c.03.02 3.17 2.28 7.09 4.05 3.5 1.58 8.35 3.1 11.62 1.36.44-.23.98-.07 1.22.37.23.44.07.98-.37 1.22-1.31.68-2.79.97-4.33.97z" fill="#2E3539"/><path d="M76.436 124.137c2.89 13.24-8.42 16.44-.02 27.08 8.27 10.47 13.19 2.09 25.94 6.02 1.05.33 2.18 1.71 1.48 2.57-4.1 4.97-5.98 7.13-8.51 8.84-1.37.93-11.88 5.61-12.42 5.03-9.88-10.65-6.21-5.91-12.58-18.24-7.16-13.87-2.38-15.87.05-31.29.53-3.39 5.43-2.9 6.06-.01z" fill="#E27C0D"/><path d="M91.586 25.736c-6.38-4.1-14.76-3.34-20.17 1.98-3.6 3.54-4.61 8.6-5.85 13.85-3.7 15.6-6.4 43.29-6.4 50.34 0 6.27 12.32-1.93 6.46.29-15.45 5.86-16.49-.22-33.02-.22-2.35 0-4.37-.21-6.17-.54-14.7-2.76-25.1 14.03-15.94 25.87 2.45 3.17 5.28 5.96 8.39 8.16 10.75 7.6 24.51 11.79 37.45 11.79 16.73 0 31.65-5.25 40.28-18.21 5.08-7.63 7.61-16.91 7.61-26.76 0-6.27.01-6.27.01-12.54 0-7.05-.07-7.05-.07-14.1 0-12.04-.02-12.04-.02-24.09.01-6.48-7.03-12.27-12.56-15.82z" fill="#E8E8E8"/><path d="M80.986 40.126c0 3.1-1.01 5.6-2.22 5.6-1.21 0-2.22-2.5-2.22-5.6 0-3.1 1-5.63 2.22-5.63 1.21 0 2.22 2.53 2.22 5.63z" fill="#2E3539"/><path d="M80.986 40.126c0 3.1-1.01 5.6-2.22 5.6-1.21 0-2.22-2.5-2.22-5.6 0-3.1 1-5.63 2.22-5.63 1.21 0 2.22 2.53 2.22 5.63zM104.646 40.126c0 3.1-.99 5.59-2.2 5.59-1.21 0-2.21-2.49-2.21-5.59 0-3.1 1-5.64 2.21-5.64 1.22 0 2.2 2.54 2.2 5.64z" fill="#2E3539"/><path d="M104.646 40.126c0 3.1-.99 5.59-2.2 5.59-1.21 0-2.21-2.49-2.21-5.59 0-3.1 1-5.64 2.21-5.64 1.22 0 2.2 2.54 2.2 5.64z" fill="#2E3539"/><path d="M136.986 49.046c0-5.43-4.35-8.22-9.78-8.22-15.61 0-15.61.02-31.22.02-5.43 0-6.5 4.3-4.14 9.83.57 1.33 4.58.57 6.03.57 21.15.01 39.11-2.2 39.11-2.2z" fill="#E27C0D"/><path d="M61.946 86.966c11.81 6.63 13.65 18.07-.06 26.99-15.91 10.36-31.16.12-37.15-2.96-7.39-3.79-15.61-8.66-23.22-17.11-3.44-3.83-.64-9.88 4.51-9.72 6.91.22 11.36 5.17 22.94 2.9 17.05-3.34 17.82-8.61 32.98-.1z" fill="#BABAB9"/><path d="M45.766 175.357c-12.83 5.91-31.99-11.65-32.06-12.22.01-.18.09-.36.25-.52 20.11-21.12 19.48-22.01 42.28-40.19 2.72-2.17 5.91 1.95 4.24 4.39-7.86 11.51-16.69 5.69-20.18 19.19-3.68 14.22 4.86 13.86 7.6 28.29.01.04.01.08.02.12.13 1.07-1.05.43-2.15.94z" fill="#E27C0D"/><path d="M38.896 107.896c-5 0-9.46-1.15-13.07-2.58-8.59-3.39-14.08-8.84-14.31-9.07a.942.942 0 010-1.32c.37-.36.96-.36 1.32 0 .07.07 5.5 5.44 13.73 8.67 4.81 1.89 9.62 2.69 14.31 2.38 5.85-.38 11.55-2.51 16.92-6.32a.93.93 0 011.3.22c.3.42.2 1.01-.22 1.3-7.04 5.01-13.9 6.72-19.98 6.72z" fill="#2E3539"/><path d="M35.396 103.136c-7.46 0-16.49-6.46-16.95-6.79a.94.94 0 01-.21-1.31.94.94 0 011.31-.21c.03.02 3.3 2.37 7.38 4.22 3.64 1.65 8.7 3.23 12.1 1.41a.942.942 0 011.27.39c.24.46.07 1.02-.39 1.27-1.37.72-2.9 1.02-4.51 1.02z" fill="#2E3539"/><path d="M66.526 73.896c-.87 1.09-.65 2.84.42 3.73 1.07.89 2.74.88 3.91.12.47-.31.9-.78.93-1.34.04-.59-.36-1.11-.74-1.56-.59-.7-1.23-1.42-2.1-1.72 0-.01-1.57-.31-2.42.77zM79.866 75.056c.83 1.33.36 3 .22 3.34-.24.59-.96.81-1.59.89-1.2.16-2.48.1-3.56-.46s-1.9-1.71-1.82-2.92c.08-1.21.55-1.97 2.26-2.55-.01-.01 2.7-1.16 4.49 1.7zM85.887 77.966c.19.36.37.74.36 1.15-.02.72-.66 1.29-1.34 1.5-1.54.49-3.4-.6-3.71-2.19-.19-.99.12-1.51.77-1.78.78-.33 1.68-.18 2.38.29l1.54 1.03zM93.357 77.846c.34.7.32 1.69.19 2.46-.21 1.23-1.49 2.1-2.74 2.07-1.25-.03-2.39-.82-3.09-1.85-.41-.6-.7-1.31-.68-2.04.04-1.42 1.34-2.63 2.76-2.75 0-.01 2.24-.58 3.56 2.11zM97.666 76.696c.4.98.7 2.27-.12 2.93-.49.39-1.21.37-1.79.15-1.15-.43-2.05-1.69-1.74-2.88.31-1.19 2.09-1.78 2.87-.83l.78.63zM57.596 65.446c.83-.44 1.95-.79 2.55.02.36.48.37 1.21.2 1.82-.33 1.19-1.39 2.14-2.43 1.86-1.04-.28-1.63-2.07-.83-2.89l.51-.81zM100.187 73.016c-1.49.66-2.03 2.64-1.62 4.21.19.73.64 1.36 1.12 1.93 1.13 1.35 2.94 2.57 4.55 1.85.66-.29 1.16-.87 1.52-1.49.72-1.21 1.04-2.69.69-4.05-.35-1.36-1.45-2.55-2.82-2.83 0 .01-1.99-.26-3.44.38zM65.637 72.006c.15-1.49-1.15-2.77-2.56-3.1-.65-.15-1.34-.05-2 .1-1.55.35-3.29 1.31-3.45 2.92-.07.66.17 1.31.48 1.87.62 1.09 1.62 1.98 2.84 2.27 1.21.29 2.62-.1 3.45-1.11 0 .01 1.09-1.5 1.24-2.95z" fill="#9DD5E8"/></svg>