<?xml version="1.0" encoding="utf-8"?><svg width="344" height="344" fill="none" xmlns="http://www.w3.org/2000/svg" viewBox="0 0 344 344"><path d="M272.241 133.334c4.06.138 7.087 1.995 8.807 5.71 1.72 3.716 1.376 7.431-1.307 10.458-3.991 4.403-8.394 8.462-13.21 11.902-3.784 2.752-8.669 1.927-11.765-1.307-3.096-3.165-3.715-8.256-1.032-11.833 3.578-4.748 7.843-8.944 12.247-12.866 1.72-1.582 3.921-2.202 6.26-2.064zM319.232 162.643c-.688 4.747-1.307 9.907-2.683 14.929-.619 2.34-1.995 4.335-3.922 5.848-3.027 2.477-6.536 2.89-10.045 1.376-3.371-1.444-5.297-4.265-5.504-7.98-.068-.895-.068-1.789.069-2.684 1.17-5.091 2.202-10.182 3.647-15.136 1.444-4.678 5.916-7.292 10.32-6.536 4.816.826 8.118 4.748 8.118 10.183zM159.272 219.953c.069-.55.069-1.582.344-2.614 1.582-5.091 3.578-10.045 6.261-14.723 1.995-3.509 5.297-5.229 9.357-4.61 4.059.619 6.673 3.027 7.843 6.949.55 1.926.413 3.784-.275 5.71-1.376 3.922-2.615 7.843-4.06 11.765-.481 1.376-1.238 2.683-2.132 3.922-2.684 3.784-6.88 5.16-10.94 3.715-4.059-1.445-6.467-4.954-6.398-10.114zM257.381 231.236c-3.922-.137-6.881-1.857-8.601-5.366-2.201-4.541-3.784-9.357-5.091-14.242-1.238-4.747 1.239-9.15 5.504-10.939 4.403-1.857 9.495-.206 11.834 4.197 2.408 4.403 4.541 9.082 5.848 13.898 1.926 6.604-2.89 12.59-9.494 12.452zM200.001 234.47c2.684-.413 5.367-.481 7.981 0 5.435 1.032 9.082 5.642 8.6 10.733-.55 5.229-4.816 9.013-10.389 8.944-4.265-.069-8.6-.275-12.865-.757-5.573-.619-9.013-4.678-8.807-9.907.207-5.091 4.128-8.738 9.77-9.013 1.858-.069 3.784 0 5.71 0zM139.732 249.538c-.275 4.059-2.133 7.086-5.848 8.806-3.578 1.651-7.843.688-10.664-2.202-2.408-2.477-3.509-5.504-3.784-8.875-.275-3.44-.482-6.811-.413-10.251.069-5.022 3.578-8.875 8.325-9.494 4.472-.551 8.669 2.339 10.114 7.017.481 1.582.619 3.234.894 4.816.482 3.371.894 6.811 1.376 10.183zM60.269 193.672c.068 6.329-2.89 10.32-7.706 11.145-4.472.688-9.77-2.339-11.215-7.017a36.338 36.338 0 01-1.032-16.306c.688-4.197 4.266-7.017 8.463-7.293 4.334-.275 8.256 2.271 9.494 6.536 1.376 4.404 1.376 9.082 1.995 12.935zM173.307 293.294c-.138-6.673 3.096-10.939 8.118-11.558 5.298-.619 9.357 2.27 10.664 7.843.826 3.44 1.514 6.949 1.996 10.458.825 5.641-2.821 10.664-8.119 11.42-5.641.826-10.251-2.408-11.283-8.187-.757-3.577-1.032-7.224-1.376-9.976zM68.18 143.31c3.371.482 7.224.826 10.87 2.202 1.583.55 2.96 1.445 4.129 2.545 3.37 3.165 4.403 7.156 2.82 10.871-1.582 3.715-5.297 6.054-9.77 5.641a49.527 49.527 0 01-12.934-3.233c-4.334-1.789-6.467-6.261-5.435-10.595 1.101-4.61 5.023-7.5 10.32-7.431zM236.397 174.201c-.138 3.303-.138 5.848-.757 8.325-.826 3.302-2.546 6.054-5.642 7.706-6.054 3.233-13.209-.826-13.553-7.844-.207-4.472.481-8.944 1.513-13.278 1.101-4.747 5.298-7.499 9.976-7.086 4.61.412 8.05 4.059 8.394 8.944.138 1.307.069 2.683.069 3.233zM175.302 161.061c-.275 2.408-.413 5.435-.963 8.325-1.032 5.504-5.779 9.15-10.802 8.462-5.504-.757-9.013-5.298-8.531-11.146.206-2.82.757-5.572 1.307-8.393 1.17-5.848 5.504-9.288 10.595-8.669 5.16.688 8.532 5.022 8.394 11.421zM244.034 52.632c-.138 1.926-.207 3.853-.482 5.78-.826 5.366-5.16 8.943-10.182 8.668-5.092-.275-9.22-4.403-9.22-9.7 0-3.854.344-7.775 1.308-11.49 1.238-4.541 5.16-7.43 9.563-7.156 4.472.276 7.912 3.44 8.806 8.119.344 1.926.275 3.853.207 5.779zM109.254 65.29c3.027-.068 5.573 1.17 7.43 3.51 2.133 2.683 4.266 5.366 5.986 8.324 2.89 4.816 1.445 10.458-2.958 13.348-4.404 2.82-9.839 1.926-13.072-2.477-2.133-2.821-4.128-5.848-5.642-9.082-3.234-6.467 1.238-13.553 8.256-13.622zM301.894 224.081c-4.609-1.1-9.976-2.958-14.241-6.811-2.959-2.614-3.303-7.224-1.445-10.733 1.857-3.508 5.848-5.71 9.701-4.884 4.196.894 8.324 2.27 12.04 4.472 3.99 2.339 5.572 6.948 4.334 11.214-1.17 3.99-5.022 6.742-10.389 6.742zM80.977 244.446c-3.715.069-6.605-1.651-8.531-4.747-2.408-3.853-3.784-8.118-4.266-12.522-.482-4.884 2.408-8.737 7.018-9.976 4.334-1.1 8.669.757 10.733 5.023 1.513 3.027 2.89 6.192 3.99 9.425 2.202 6.33-2.34 12.728-8.944 12.797zM118.955 292.538c.138-5.642 9.426-15.48 15.067-15.962 3.715-.275 6.743 1.17 8.807 4.197 2.201 3.233 2.545 6.811.481 10.113a30.03 30.03 0 01-10.939 10.252c-6.192 3.371-13.554-1.583-13.416-8.6zM84.417 104.988c0 5.573-3.234 9.632-7.912 10.458-4.747.826-9.288-1.789-10.87-6.536-1.445-4.266-1.652-8.806-1.308-13.278.344-4.541 3.853-7.706 8.188-8.119 4.472-.413 8.324 1.858 9.838 6.123 1.376 3.785 1.72 7.844 2.064 11.352zM169.661 96.32c-.069 4.403-2.959 8.187-7.087 9.219-4.403 1.17-9.013-.619-11.008-4.678-1.995-4.128-3.027-8.738-3.44-13.279-.413-3.921 2.477-7.568 6.192-8.875 3.991-1.376 8.119-.137 10.733 3.303 1.926 2.614 4.678 11.145 4.61 14.31zM247.68 89.233c1.238.07 2.614.07 3.784.826 4.816 3.096 9.15 6.742 11.077 12.384 1.513 4.403-.207 8.875-4.06 11.214-3.784 2.271-8.668 1.72-11.833-1.651a79.806 79.806 0 01-6.536-7.912c-2.271-3.165-2.477-6.673-.551-10.113 1.72-3.096 4.472-4.679 8.119-4.748zM134.504 132.646c-.55 3.578-1.169 7.843-3.233 11.696-2.684 4.885-7.775 6.811-12.453 4.816-4.472-1.857-6.605-6.536-5.298-11.902.826-3.303 1.651-6.674 3.165-9.701 2.064-4.197 6.398-6.054 10.87-4.954 4.128 1.101 6.949 4.816 6.949 10.045zM135.054 54.696c-3.853 0-7.293-2.34-8.669-5.917-1.514-3.715-.619-7.912 2.545-10.526 2.959-2.477 6.468-4.335 10.183-5.504 3.99-1.239 8.256.481 10.595 3.921 2.477 3.647 2.202 8.256-.619 11.627-2.202 2.546-10.664 6.399-14.035 6.399zM259.582 270.521c0 2.064.138 4.128-.55 6.192-1.445 4.679-5.367 7.431-10.114 7.018-4.541-.344-8.393-3.922-8.806-8.6-.344-3.853.137-7.775 1.307-11.421 1.376-4.197 5.366-6.536 9.77-6.123 4.265.413 7.705 3.646 8.324 8.049.207 1.583.069 3.234.069 4.885zM120.125 199.932c-.138 3.303-2.064 6.261-5.848 7.912-3.784 1.652-7.431 1.032-10.32-1.857-2.959-2.959-5.16-6.536-6.605-10.527-1.238-3.371-.138-6.536 2.34-9.012 2.476-2.546 5.503-3.509 9.012-2.615 4.954 1.307 11.49 9.976 11.421 16.099zM219.815 113.589c-.068.344 0 .963-.206 1.513-1.995 5.848-5.573 10.527-11.283 13.004-3.509 1.513-6.811.206-9.357-2.34-2.477-2.476-3.509-5.641-2.339-9.012 1.513-4.472 4.334-8.188 7.981-11.077 3.096-2.408 6.604-2.546 10.113-.688 3.234 1.72 4.885 4.609 5.091 8.6zM199.726 53.113c-.069 2.202-.069 4.472-.825 6.605-1.514 4.54-5.504 7.155-10.32 6.674-4.472-.482-7.981-3.853-8.463-8.463-.413-3.715 0-7.499 1.032-11.077 1.239-4.403 5.298-7.017 9.907-6.604 4.266.344 7.706 3.509 8.463 7.912.206 1.65.137 3.302.206 4.953zM299.28 93.636c-.207 2.684-.207 5.367-1.032 7.912-1.514 4.816-5.642 7.5-10.596 6.88-4.747-.619-8.118-4.472-8.324-9.494-.069-3.027.688-5.917 1.238-8.806 1.032-5.23 5.366-8.256 10.389-7.706 4.747.482 8.049 4.266 8.325 9.495v1.72z" fill="#E8E8E8"/></svg>