<?xml version="1.0" encoding="utf-8"?><svg width="258" height="258" fill="none" xmlns="http://www.w3.org/2000/svg" viewBox="0 0 258 258"><path d="M48.36 224.122c-14.808-12.875-22.613-32.308-23.412-58.194-.8-25.885 5.791-45.763 19.779-59.419 13.988-13.656 34.516-20.956 61.588-21.791 27.073-.837 48.012 5.182 62.816 17.949 14.803 12.767 22.608 32.2 23.407 58.086.8 25.886-5.791 45.764-19.775 59.527-13.985 13.763-34.513 21.063-61.585 21.899-27.072.836-48.012-5.183-62.819-18.057z" fill="#EFE104"/><path d="M184.903 164.488c1.464 2.257 1.601 4.605.234 6.947-1.367 2.342-3.516 3.564-6.177 3.254-3.904-.497-7.778-1.35-11.472-2.661-2.929-1.011-4.331-3.977-3.747-6.884.547-2.881 3.078-5.147 6.039-5.046 3.935.143 7.831.868 11.63 1.773 1.511.334 2.682 1.295 3.493 2.617zM186.782 201.116c-2.841 1.426-5.879 3.046-9.129 4.202-1.506.551-3.111.56-4.663.088-2.493-.705-4.047-2.454-4.554-4.933-.492-2.379.311-4.494 2.252-6.015.46-.376.945-.715 1.484-.979 3.209-1.295 6.366-2.665 9.605-3.758 3.09-.989 6.204.448 7.461 3.126 1.376 2.929.497 6.208-2.456 8.269zM95.04 135.978c.324-.171.885-.563 1.55-.804 3.366-1.071 6.813-1.866 10.372-2.182 2.662-.247 4.848.895 6.049 3.334 1.202 2.439.884 4.771-.804 6.893-.838 1.029-1.899 1.659-3.207 2.015-2.652.74-5.252 1.554-7.93 2.256-.93.26-1.927.344-2.939.328-3.072-.022-5.41-1.78-6.163-4.532-.753-2.752.241-5.39 3.071-7.308zM126.078 193.531c-1.411-2.181-1.597-4.44-.342-6.704 1.633-2.917 3.65-5.602 5.809-8.164 2.11-2.472 5.441-2.796 8.029-1.158 2.678 1.687 3.709 5.078 2.203 8.017-1.48 2.977-3.214 5.909-5.336 8.444-2.858 3.55-7.935 3.204-10.363-.435zM102.582 163.598c1.241 1.301 2.295 2.732 3.024 4.334 1.498 3.343.375 7.07-2.573 8.739-3.05 1.683-6.722.801-8.796-2.251-1.579-2.342-3.109-4.774-4.463-7.273-1.775-3.261-.873-6.668 2.046-8.538 2.845-1.818 6.312-1.071 8.599 1.888.741.983 1.434 2.055 2.163 3.101zM71.562 136.582c-2.31 1.389-4.658 1.528-7 .163-2.253-1.317-3.346-3.998-2.844-6.626.433-2.246 1.66-3.991 3.388-5.419 1.765-1.453 3.519-2.843 5.414-4.11 2.755-1.867 6.178-1.422 8.313.921 1.993 2.22 2.013 5.595.018 8.153-.677.861-1.522 1.562-2.278 2.311-1.649 1.539-3.362 3.068-5.011 4.607zM71.81 72.253c-3.413 2.437-6.701 2.343-8.975.04-2.068-2.167-2.43-6.191-.435-8.75a24.087 24.087 0 018.468-6.741c2.541-1.217 5.43-.344 7.169 1.83 1.791 2.25 1.894 5.345.045 7.634-1.87 2.417-4.413 4.19-6.271 5.987zM60.507 171.402c3.574-2.605 7.117-2.466 9.356.027 2.344 2.642 2.311 5.941-.221 8.764a71.387 71.387 0 01-4.927 5.047c-2.752 2.587-6.863 2.511-9.28-.079-2.587-2.75-2.576-6.479.173-9.23 1.657-1.768 3.534-3.299 4.899-4.529zM102.172 57.458c1.016 2.013 2.288 4.236 2.922 6.738.301 1.068.336 2.154.181 3.206-.442 3.03-2.22 5.104-4.838 5.653-2.618.549-5.296-.582-6.766-3.167a32.785 32.785 0 01-3.144-8.25c-.67-3.031.952-5.884 3.698-6.967 2.922-1.15 5.977-.116 7.947 2.787zM149.118 160.515c-1.846 1.177-3.23 2.142-4.81 2.745-2.107.804-4.254.913-6.324-.142-4.051-2.062-4.556-7.487-.873-10.334 2.351-1.807 5.042-3.129 7.788-4.211 2.996-1.202 6.082.034 7.63 2.731 1.522 2.659.844 5.91-1.68 7.948-.658.57-1.432 1.055-1.731 1.263zM133.112 122.358c-1.413.763-3.11 1.836-4.888 2.632-3.382 1.526-7.162.331-8.691-2.657-1.674-3.276-.536-6.903 2.824-8.858 1.611-.957 3.315-1.702 5.056-2.472 3.621-1.582 7.132-.532 8.724 2.467 1.581 3.063.503 6.537-3.025 8.888zM218.066 118.577c-1.099.656-2.172 1.349-3.323 1.93-3.228 1.586-6.814.588-8.567-2.244-1.78-2.869-1.101-6.675 1.778-8.683 2.093-1.461 4.354-2.761 6.738-3.646 2.936-1.049 5.992-.015 7.511 2.481 1.544 2.532 1.128 5.6-1.075 7.859-.916.917-1.989 1.61-3.062 2.303zM160.125 50.187c1.184 1.617 1.476 3.47.908 5.365-.649 2.175-1.299 4.35-2.255 6.406-1.522 3.395-5.135 4.749-8.373 3.453-3.201-1.322-4.774-4.612-3.607-8.037.725-2.228 1.614-4.459 2.797-6.507 2.289-4.207 7.834-4.465 10.53-.68zM146.831 214.991c-1.149-2.92-2.173-6.539-1.695-10.315.299-2.598 2.674-4.532 5.284-4.854 2.61-.321 5.318 1.011 6.329 3.416 1.104 2.619 1.921 5.382 2.132 8.234.241 3.054-1.664 5.66-4.451 6.605-2.611.877-5.566-.172-7.599-3.086zM52.068 102.746c-1.445-1.991-1.605-4.212-.653-6.432 1.181-2.768 2.978-5.132 5.188-7.063 2.472-2.114 5.66-2.005 8.08.029 2.24 1.936 2.872 4.994 1.336 7.732-1.07 1.97-2.27 3.916-3.61 5.74-2.604 3.595-7.801 3.555-10.34-.006zM40.326 141.6c3.118-2.064 11.982-.75 14.381 2.131 1.557 1.913 1.92 4.105 1.056 6.373-.922 2.421-2.736 3.964-5.312 4.096a19.89 19.89 0 01-9.715-2.055c-4.177-2.084-4.275-7.96-.41-10.545zM129.146 51.748c-3.028 2.113-6.459 1.896-8.68-.332-2.247-2.265-2.547-5.722-.567-8.38 1.77-2.402 4.159-4.236 6.719-5.744 2.598-1.535 5.647-.829 7.513 1.368 1.919 2.272 2.145 5.225.401 7.664-1.535 2.182-3.61 3.907-5.386 5.424zM166.151 94.752c-2.418 1.632-5.569 1.497-7.694-.353-2.304-1.948-3.078-5.13-1.628-7.752 1.487-2.648 3.6-4.956 5.911-6.901 1.975-1.711 5.051-1.524 7.168-.002 2.26 1.645 3.151 4.356 2.272 7.08-.69 2.037-4.283 6.766-6.029 7.928zM199.56 134.432c.432.699.953 1.446.985 2.368.143 3.789-.197 7.525-2.532 10.71-1.819 2.491-4.901 3.252-7.631 2.047-2.668-1.194-4.219-4.056-3.586-7.052a52.853 52.853 0 011.822-6.549c.86-2.432 2.688-3.875 5.287-4.133 2.334-.239 4.236.655 5.655 2.609zM133.094 89.431c-2.153 1.058-4.705 2.338-7.58 2.678-3.671.395-6.647-1.64-7.335-4.936-.685-3.133 1.049-6.065 4.46-7.39 2.107-.803 4.252-1.633 6.47-1.958 3.062-.47 5.714 1.18 6.81 4.025.966 2.659.016 5.6-2.825 7.581zM175.656 60.18a6.128 6.128 0 01-.069-6.95c1.445-2.23 4.064-3.335 6.684-2.608 2.467.668 4.805 1.869 6.848 3.443 2.185 1.697 2.866 4.666 1.884 7.24-1.043 2.727-3.652 4.325-6.553 4.071-2.217-.23-7.516-3.365-8.794-5.196zM105.567 209.619c-1.121.782-2.191 1.64-3.573 2.048-3.09.989-6.07-.097-7.645-2.831-1.533-2.597-1.049-6.045 1.337-8.043 1.963-1.647 4.276-2.872 6.7-3.619 2.802-.844 5.585.436 7.029 2.984 1.392 2.473.938 5.567-1.22 7.572-.782.712-1.731 1.263-2.628 1.889zM91.086 107.13c-1.846 1.177-4.184 1.253-6.515-.176-2.33-1.429-3.375-3.644-2.9-6.309.486-2.728 1.596-5.28 3.217-7.577 1.363-1.95 3.5-2.552 5.783-2.146 2.322.38 3.992 1.659 4.835 3.903 1.167 3.186-1.067 10.021-4.42 12.305zM175.77 128.534c-.213.093-.523.365-.9.462-3.934 1.133-7.831.964-11.341-1.198-2.151-1.332-2.692-3.621-2.273-5.968.407-2.284 1.736-4.044 4.01-4.687 3.004-.873 6.091-.75 9.043.135 2.481.768 3.885 2.622 4.205 5.231.291 2.408-.654 4.4-2.744 6.025zM201.018 94.7c-1.222.797-2.456 1.657-3.901 2.055-3.041.9-5.973-.276-7.536-3.074-1.433-2.611-.931-5.794 1.392-7.803 1.862-1.633 4.074-2.843 6.409-3.64 2.862-.996 5.82.217 7.342 2.877 1.429 2.447 1.013 5.515-1.093 7.595-.819.738-1.742 1.326-2.613 1.99zM216.717 164.122c-1.536.905-2.994 1.922-4.69 2.439-3.19 1.004-6.212-.221-7.752-3.145-1.462-2.813-.646-6.104 2.004-8.12 1.619-1.185 3.476-1.87 5.255-2.666 3.232-1.422 6.519-.216 8.122 2.72 1.537 2.761.732 5.988-2.004 8.12l-.935.652z" fill="#E37B0B"/></svg>