<?xml version="1.0" encoding="utf-8"?><svg width="344" height="344" fill="none" xmlns="http://www.w3.org/2000/svg" viewBox="0 0 344 344"><path d="M318.132 191.195c-1.72 1.239-3.578 1.032-5.367 1.032-9.219-.206-18.438-.344-27.588-.619-25.25-.826-50.568-.757-75.818-1.376-22.498-.619-44.995-1.858-67.562-2.683-31.166-1.032-62.332-1.307-93.568-1.789-1.513 0-3.027 0-4.472-.344-2.339-.55-3.508-2.27-3.44-4.541.07-2.201 1.445-3.99 3.715-4.265 2.133-.276 4.404-.207 6.605-.207 46.853.551 93.706 1.376 140.49 3.784 26.626 1.376 53.32.895 79.946 1.583 14.448.344 28.827 1.1 43.206 2.064.963.068 1.926.206 2.821.481 1.445.482 2.27 1.583 2.477 3.027.275 1.652-.344 2.959-1.445 3.853zM316.136 168.285c-1.72 1.169-3.646.963-5.572.825-15.618-1.169-31.236-2.201-46.922-2.132-28.621.206-57.104-2.546-85.587-3.853-33.643-1.583-67.287-1.651-100.93-2.615-8.806-.275-17.544-.825-26.35-1.238-1.101-.069-2.202-.138-3.234-.482-2.064-.619-3.233-2.476-2.958-4.334.275-1.995 1.513-3.234 3.509-3.509.963-.137 1.926-.069 2.89-.069 41.898.964 83.798 1.17 125.628 2.89 9.494.413 18.92.826 28.414 1.72 20.984 1.858 41.968 1.789 63.021 2.27 11.971.276 23.874 1.032 35.845 1.514 2.477.138 4.954.275 7.43.275 1.652 0 3.303.207 4.748 1.17 2.614 1.72 2.752 5.71.068 7.568zM46.027 215.206c-1.926-2.752-.825-5.985 1.995-7.017 1.308-.482 2.684-.413 4.06-.344 41.623 1.582 83.248 1.307 124.872 2.821 15.136.55 30.203-.413 45.339-1.032 25.937-1.032 51.944-.826 77.881.825 3.716.207 7.431.344 11.146.551.963.068 1.926.068 2.89.206 2.27.482 3.508 1.926 3.508 3.99s-1.444 3.784-3.852 4.128c-1.239.207-2.477.138-3.716.069l-51.944-1.032c-17.888-.344-35.707.551-53.595 1.307-18.851.826-37.633 0-56.485-.481-31.716-.895-63.502-.757-95.219-1.995-1.238-.069-2.477-.069-3.715-.207-1.376-.206-2.546-.825-3.165-1.789zM306.643 246.373c-1.651 1.032-3.027 1.032-4.403.894-23.874-2.821-47.747-2.614-71.621-.757-28.69 2.202-57.379 2.477-86.069 1.927-28.414-.482-56.897-.551-85.312.275-1.376.069-2.752.069-4.059-.206-2.27-.482-3.509-2.34-3.44-4.541.069-1.995 1.307-3.647 3.371-4.128 1.445-.344 2.959-.413 4.472-.413 29.515-.894 59.099-.757 88.615-.206 28.345.55 56.622.068 84.83-2.202 17.544-1.445 35.157-1.307 52.701-.206 5.641.344 11.214.963 16.787 1.995 1.238.206 2.477.344 3.509 1.032 2.614 1.582 2.752 5.16.619 6.536zM307.881 137.738c-1.17.963-2.683.825-4.197.688-15.618-1.376-31.235-2.477-46.784-4.128-18.438-1.996-36.946-2.959-55.522-3.028-37.496-.206-74.992-1.582-112.419-3.44-6.88-.344-13.76-.344-20.571-.55-1.238-.069-2.477-.069-3.647-.344-2.27-.55-3.508-2.339-3.44-4.541.07-2.201 1.445-3.853 3.716-4.334 1.17-.207 2.477-.207 3.715-.138 6.192.138 12.384.138 18.507.413 43.757 2.27 87.583 3.302 131.408 3.922 23.255.344 46.303 3.508 69.351 5.848 5.297.55 10.664 1.238 15.961 1.857 1.376.138 2.752.275 3.922 1.101 2.408 1.582 2.477 4.885 0 6.674zM75.268 270.453c-2.202-3.027-1.1-6.467 1.995-7.431.895-.275 1.927-.344 2.821-.275 31.029 1.17 62.058.207 93.155.688 20.64.344 41.143 2.271 61.714 3.165 15.205.688 30.478 1.582 45.614 3.234 1.376.137 2.752.275 4.059.756 1.858.688 2.89 2.133 2.684 4.197-.207 2.064-1.514 3.234-3.44 3.578-1.308.206-2.752 0-4.128-.069-34.125-1.789-68.319-3.853-102.444-5.229-23.46-.963-46.99-.206-70.451-.344-8.944-.069-17.819-.413-26.763-.619-1.995-.138-3.922-.344-4.816-1.651zM82.078 94.118c1.445-1.032 3.096-.963 4.747-.963 9.632 0 19.264.138 28.827.069 22.085-.138 44.17-1.72 66.324-1.651 32.473.069 64.74 2.82 97.076 5.848 2.89.275 5.78.55 8.463 1.651 2.27.963 3.233 2.89 2.683 4.954-.55 2.064-2.27 3.371-4.747 2.889-11.146-1.857-22.429-1.72-33.643-2.614-26.282-2.064-52.632-3.922-79.052-3.303-17.819.413-35.707 1.101-53.526 1.514-11.008.206-21.947 0-32.955 0-1.239 0-2.477-.069-3.647-.619-3.164-1.583-3.44-5.78-.55-7.775zM260.409 300.037c-1.17.757-2.339.894-3.578.894-29.515.619-59.03 2.339-88.477-.069-16.856-1.376-33.712-1.72-50.568-3.508-4.334-.482-8.737-1.101-13.072-1.652-.825-.137-1.651-.206-2.408-.481-2.683-.826-4.059-2.821-3.646-5.229.413-2.408 2.202-3.784 5.091-3.853.688 0 1.376.069 2.064.207 17.957 2.752 36.12 3.027 54.146 4.678 30.478 2.752 60.957.894 91.366 1.514 2.339.068 4.679 0 7.018.137 1.995.138 3.233 1.445 3.646 3.371.275 1.72-.413 3.028-1.582 3.991zM119.644 64.19c1.445-1.032 3.165-.894 4.748-.963 18.232-.688 36.532-.413 54.764.138 25.25.757 50.431 3.096 75.611 5.641.551.07 1.101.07 1.652.207 2.476.55 3.784 2.133 3.715 4.265-.138 2.34-1.651 3.853-4.403 3.922-1.789.069-3.578-.138-5.367-.206-21.397-1.376-42.724-3.096-64.121-4.128-20.021-1.032-40.111-1.101-60.131-.482-1.789.069-3.578.275-5.298-.275-1.858-.62-3.027-1.858-3.165-3.853-.206-1.858.482-3.234 1.995-4.266z" fill="#E8E8E8"/></svg>