<?xml version="1.0" encoding="utf-8"?><svg width="80" height="76" fill="none" xmlns="http://www.w3.org/2000/svg" viewBox="0 0 80 76"><path d="M10.308 65.641C3.436 59.282 0 49.897 0 37.538 0 25.18 3.436 15.796 10.308 9.488 17.18 3.178 27.077 0 40 0c12.923 0 22.82 3.18 29.692 9.487C76.564 15.795 80 25.18 80 37.538c0 12.36-3.436 21.744-10.308 28.103C62.821 72 52.923 75.179 40 75.179c-12.923 0-22.82-3.179-29.692-9.538z" fill="#075762"/><g clip-path="url(#bkclip0_164_1449)"><path d="M40 40.344l9.9-9.9 2.828 2.828L40.001 46 27.273 33.272l2.828-2.828 9.9 9.9z" fill="#fff"/></g><defs><clipPath id="bkclip0_164_1449"><path fill="#fff" transform="translate(27 20)" d="M0 0h25v35H0z"/></clipPath></defs></svg>