<?xml version="1.0" encoding="utf-8"?><svg width="84" height="84" fill="none" xmlns="http://www.w3.org/2000/svg" viewBox="0 0 84 84"><rect width="84" height="84" rx="42" fill="#EFE104"/><path d="M20 60V48.285c0-4.339.73-8.388 2.193-12.149 1.559-3.76 4.19-7.472 7.893-11.136l6.578 5.062c-2.923 2.893-4.92 5.592-5.993 8.1a21.37 21.37 0 00-1.462 7.81l-4.093-3.183h12.28V60H20zm26.605 0V48.285c0-4.339.73-8.388 2.192-12.149 1.56-3.76 4.19-7.472 7.894-11.136l6.578 5.062c-2.923 2.893-4.921 5.592-5.993 8.1a21.37 21.37 0 00-1.462 7.81l-4.093-3.183H64V60H46.605z" fill="#fff"/></svg>