<?xml version="1.0" encoding="utf-8"?><svg width="24" height="15" fill="none" xmlns="http://www.w3.org/2000/svg" viewBox="0 0 24 15"><path d="M22.786 14.47H20.22c-.806 0-1.224-.463-1.98-1.305-.313-.348-.702-.781-1.216-1.294-1.64-1.581-2.188-1.581-2.368-1.581-.335 0-.405 0-.405.613v2.302c0 .935-.55 1.265-2.1 1.265-2.942 0-5.951-1.798-8.05-4.811C.73 4.934 0 1.572 0 .993 0 .54.199 0 1.147 0h2.567c.831 0 1.143.432 1.401 1.178C6.462 5.1 8.51 7.853 9.106 7.853c.108 0 .21 0 .21-.713V3.36c-.054-.976-.387-1.388-.654-1.72-.189-.232-.366-.452-.366-.783 0-.422.344-.857.92-.857h4.034c.897 0 1 .69 1 1.21v5.087c0 .349.114.46.142.469.193-.001.395-.108 1-.712 1.785-1.997 3.083-5.13 3.096-5.162.254-.593.713-.892 1.364-.892h2.567c.448 0 .767.123.947.365.17.228.2.535.088.913-.345 1.54-3.367 5.808-3.495 5.99-.238.38-.288.462-.007.824.127.177.417.461.724.762.34.333.726.711 1.037 1.079 1.338 1.505 2.002 2.433 2.216 3.1.154.527.028.85-.106 1.027-.14.187-.435.41-1.037.41z" fill="#fff"/></svg>