<svg><symbol id="bird__main" viewBox="0 0 240 240" fill="none" xmlns="http://www.w3.org/2000/svg"><g clip-path="url(#clip0_164_1475)"><path d="M7.776 67.728c-1.344-.096-2.736-.192-3.984.336-1.248.528-2.304 1.728-2.16 3.072.192 1.872 2.352 2.832 4.176 3.36 9.072 2.688 18.144 5.424 27.168 8.112 5.376 1.584 10.8 3.216 15.552 6.144 2.256 1.392 4.368 3.12 6.816 4.224 8.832 4.128 20.352.144 28.32 5.76 7.536 5.328 8.88 17.376 17.376 21.024 2.784 1.2 6.048 1.296 8.544 2.976 3.456 2.304 4.512 6.768 5.328 10.8A5213.01 5213.01 0 00133.2 118.08c.384-.336.816-.768.768-1.296-.048-.336-.336-.624-.624-.864-7.632-6.768-15.264-13.584-22.944-20.352-3.072-2.736-6.144-5.472-9.504-7.824-10.512-7.488-23.232-11.136-35.664-14.688-9.648-2.736-19.392-5.472-29.376-6.48-10.368-1.008-20.88-.144-31.008 2.208" fill="#BCBCBC"/><path d="M128.688 119.472c-6.192-7.92-13.104-15.264-20.352-22.224A566.405 566.405 0 0097.248 86.88c-1.632-1.488-3.168-3.12-4.944-4.416-1.344-.96-2.832-1.632-4.368-2.256-3.696-1.488-7.584-2.544-11.472-3.408-.912-.192-1.296 1.2-.384 1.392 3.36.768 6.72 1.632 9.936 2.832 1.632.576 3.216 1.248 4.704 2.16 1.728 1.056 3.168 2.592 4.656 3.936 7.344 6.672 14.592 13.44 21.408 20.688 3.84 4.08 7.488 8.304 10.944 12.72.48.672 1.488-.336.96-1.056z" fill="#2D363A"/><path d="M93.216 87.36c-4.56-2.64-9.36-5.088-14.544-6.24-5.328-1.152-10.752-1.056-16.176-.864-3.12.096-6.24.24-9.36.192-.912 0-.912 1.44 0 1.44 5.328.096 10.656-.384 15.984-.288 5.376.096 10.608.864 15.552 2.976 2.688 1.152 5.28 2.544 7.824 4.032.816.48 1.536-.768.72-1.248z" fill="#2D363A"/><path d="M154.56 113.808c11.616-5.808 23.472-11.712 36.288-13.92 16.32-2.832 33.648.624 47.568 9.552-6.912.432-13.824.816-20.736 1.248.672 1.248-.48 2.832-1.872 3.168-1.392.336-2.784-.096-4.224-.288-2.112-.288-4.272-.096-6.384.096a418.252 418.252 0 00-45.648 7.296c-.912.192-1.968.384-2.688-.24-.528-.432-.672-1.152-.864-1.776a6.586 6.586 0 00-4.08-3.984" fill="#BCBCBC"/><path d="M157.057 121.44c3.264-.432 6.528-.912 9.696-1.872a37.051 37.051 0 006.384-2.592c2.352-1.248 4.464-2.88 6.672-4.416 4.8-3.312 9.744-6.336 15.408-7.92 4.896-1.392 9.696-2.592 14.832-2.208.912.048.912-1.392 0-1.44-4.944-.336-9.6.72-14.352 2.016-2.016.528-3.936 1.152-5.856 2.016-3.072 1.344-5.952 3.12-8.736 4.944-2.16 1.44-4.224 3.024-6.432 4.416-2.064 1.344-4.272 2.4-6.624 3.264-3.696 1.344-7.536 1.92-11.424 2.448-.864.096-.48 1.44.432 1.344z" fill="#2D363A"/><path d="M156.769 126.72c1.872-4.368.288-9.936-3.552-12.672-2.88-2.016-6.624-2.496-10.08-1.872-3.456.624-6.672 2.208-9.648 3.984-8.496 5.04-16.176 12-20.448 20.928-.576 1.2-1.152 2.496-2.256 3.168-1.008.624-6.336 5.856-7.392 6.336-9.936 4.512-10.8 7.392-5.376 11.28 2.784 2.016 5.136 4.8 8.4 5.952 1.872.624 3.888.672 5.856.72l11.904.144c2.784.048 5.664.048 8.352-.672 6.096-1.584 4.608-1.2 2.352-10.8-1.536-6.384 6.528-7.872 7.296-8.256 10.992-5.808 13.344-12.864 14.688-19.056" fill="#E8E8E8"/><path d="M142.513 121.92c0 2.88-.912 5.232-2.064 5.232-1.152 0-2.064-2.352-2.064-5.232 0-2.88.912-5.232 2.064-5.232 1.152 0 2.064 2.352 2.064 5.232z" fill="#2D363A"/><path d="M142.513 121.92c0 2.88-.912 5.232-2.064 5.232-1.152 0-2.064-2.352-2.064-5.232 0-2.88.912-5.232 2.064-5.232 1.152 0 2.064 2.352 2.064 5.232zm14.015 0c0 2.88-.912 5.184-2.064 5.184-1.152 0-2.064-2.304-2.064-5.184 0-2.88.912-5.232 2.064-5.232 1.152 0 2.064 2.352 2.064 5.232z" fill="#2D363A"/><path d="M156.528 121.92c0 2.88-.912 5.184-2.064 5.184-1.152 0-2.064-2.304-2.064-5.184 0-2.88.912-5.232 2.064-5.232 1.152 0 2.064 2.352 2.064 5.232z" fill="#2D363A"/><path d="M172.752 137.856c1.44-3.216-.384-5.952-3.6-7.392-9.168-4.08-9.168-4.08-18.384-8.16-3.216-1.44-4.944.816-4.992 4.704 0 .912 2.544 1.536 3.408 1.92 12.432 5.568 23.568 8.928 23.568 8.928zM133.44 149.28c-.288 6.864-6.24 7.008-3.504 13.296 2.736 6.192 6.24 2.736 12 6.288.48.288.864 1.104.384 1.44-2.64 1.92-3.84 2.736-5.328 3.264-.816.288-6.576 1.248-6.768.864-3.504-6.528-2.304-3.696-3.84-10.56-1.728-7.728.864-8.112 4.032-15.408.72-1.584 3.072-.72 3.024.816zm-6.048 24.912c-3.984 6-16.944 3.504-17.136 3.264-.048-.096-.048-.192-.048-.288 3.072-14.496 2.544-14.736 7.536-28.656.576-1.68 3.072-.72 3.024.768-.336 7.056-5.712 6.912-3.6 13.68 2.208 7.152 5.808 4.704 10.848 10.224l.048.048c.336.432-.336.432-.672.96z" fill="#EC8003"/><path d="M192.385 109.152c1.872-1.104 3.744-2.16 5.808-2.832 2.112-.672 4.368-.72 6.576-.816 4.368-.192 8.784-.288 13.056.912.912.24 1.248-1.152.384-1.392-4.464-1.248-9.12-1.152-13.728-.96-2.304.096-4.608.192-6.768.912-2.112.72-4.08 1.824-6.048 2.928-.816.432-.096 1.68.72 1.248z" fill="#2D363A"/></g></symbol><symbol id="bird-transparent-glasses" viewBox="0 0 79 83" fill="none" xmlns="http://www.w3.org/2000/svg"><path d="M43.79 56.26c5.83 4.97 9.9.86 13.6 7.4 3.9 6.89-.83 7.78-.42 15.59.04.67.51.73 1.31.28 6.87-3.8 12.36-6.64 14.58-8.47.91-.76 1.82-1.7 1.16-2.1-13.81-8.41-13.59-8.94-28.49-15.5-1.77-.78-2.97 1.75-1.74 2.8z" fill="#E27C0D"/><path d="M31.83 0h.11c7.53-.01 13.78 5.81 13.9 12.92.07 3.78.26 4.66.26 9.91 0 3.7-.11 3.7-.11 7.39 0 3.29-3.46 5.78-.06 6.51 13.45 2.92 16.15-4.54 26.84-1.11 2.11.68 3.37 2.74 2.95 4.8-2.5 12.04-17.61 20.15-31.1 20.15-9.29 0-17.55-2.98-22.34-9.77-2.82-4-4.3-8.85-4.3-14.02 0-3.29-.1-3.29-.1-6.58 0-3.7.16-3.7.16-7.39 0-5.11-.07-6.08-.09-9.62C17.88 5.96 24.14.01 31.83 0z" fill="#E8E8E8"/><path d="M50.64 25.93c-5.27-1.26-7.27 3.52-6.6 8.95 1.82 14.78 8.79 12.86 26.15 7.19 1.17-.38 7.34-2.69 7.8-3.84 4.11-10.27-15.18-9.38-27.35-12.3z" fill="#BABAB9"/><path d="M23.59 12.66c0 1.9-.81 3.45-1.83 3.45s-1.86-1.55-1.86-3.45c0-1.9.83-3.45 1.86-3.45 1.02.01 1.83 1.55 1.83 3.45z" fill="#2E3539"/><path d="M23.59 12.66c0 1.9-.81 3.45-1.83 3.45s-1.86-1.55-1.86-3.45c0-1.9.83-3.45 1.86-3.45 1.02.01 1.83 1.55 1.83 3.45zm15.19 0c0 1.9-.78 3.44-1.74 3.44s-1.74-1.54-1.74-3.44.78-3.44 1.74-3.44 1.74 1.54 1.74 3.44z" fill="#2E3539"/><path d="M38.78 12.66c0 1.9-.78 3.44-1.74 3.44s-1.74-1.54-1.74-3.44.78-3.44 1.74-3.44 1.74 1.54 1.74 3.44z" fill="#2E3539"/><path d="M40.86 55.85c-1.63 7.05 4.75 8.75.01 14.41-4.66 5.57-7.44 1.11-14.62 3.2-.59.17-1.23.91-.83 1.37 2.31 2.64 3.37 3.79 4.8 4.7.77.5 6.7 2.99 7 2.67 5.57-5.67 3.5-3.15 7.09-9.7 4.04-7.38 1.34-8.44-.03-16.65-.31-1.8-3.07-1.54-3.42 0z" fill="#E27C0D"/><path d="M49.27 33.16a.53.53 0 01-.21-.33c-.07-.31.13-.62.44-.69.51-.12 12.71-3 22.04.79.29.12.42.45.3.75-.12.29-.46.44-.75.32-8.99-3.66-21.23-.77-21.35-.74a.636.636 0 01-.47-.1zm2.95 3.82c-.23-.17-.36-.28-.37-.3a.58.58 0 01-.04-.81c.21-.24.57-.27.81-.06.03.02 2.72 2.36 4.83.78 1.68-1.26 3.03-.12 3.93.63.38.32.85.71 1.09.68.12-.02.26-.18.33-.28 1.09-1.49 2.73-.78 3.82-.32.33.14.82.35 1.02.35.01-.01.01-.03.02-.06a.59.59 0 01.68-.45c.31.06.5.37.43.68-.12.5-.39.74-.6.85-.58.3-1.25.02-2.02-.31-1.62-.7-2.06-.59-2.43-.07-.32.44-.7.69-1.12.75-.73.1-1.35-.42-1.95-.92-.97-.81-1.62-1.28-2.52-.6-1.2.9-2.68 1.03-4.27.38a8.44 8.44 0 01-1.64-.92z" fill="#2E3539"/><path d="M19.35 8.19l.91-2.11-8.31 4.06 3.37-.57 4.03-1.38z" fill="#1E1E1C"/><path d="M47.72 9.61c1.08-.67.45-2-.25-1.5l-6.39 3.78c-6.81-4.66-12.8-.95-12.8-.95-.85-1.21-3.32-.29-3.32-.29-5.73-4.37-11.08-.96-11.08-.96l-1.93.44-.04 1.28 1.71.63c1.04 7.05 5.73 6.99 8.75 6.38 3.56-.72 3.15-5.48 3.15-5.48 1.22-2.1 2.88-.13 2.88-.13.73 7.62 5.6 7.87 8.87 7.34 4.36-.72 3.02-6.94 3.02-6.94l.85.32 6.58-3.92zm-25.16 7.76c-1.63.67-5.59.77-7.06-1.88-.74-1.34-.95-2.99-1.08-3.88-.13-.85.52-1.5 1.35-1.75 1.74-.53 4.81-1.17 7.85 1.15.27.2.46.48.56.8.46 1.35.62 4.64-1.62 5.56zm14.42 1.69c-2.96.18-5.32.03-6.78-2.62-.99-1.79-1.12-3.53-1.07-4.29a.93.93 0 01.57-.8c1.42-.61 5.65-2 9.39 1.16 0 0 1.36 6.34-2.11 6.55z" fill="#203458"/><path d="M23.49 21.25c-11.75 0-11.75-.02-23.49-.02h.02c0-2.85 5.62-4.53 8.63-4.66 9.13-.39 5.5-.48 14.16-.48 1.88 0 2.98 1.55 3.03 3.07" fill="#E27C0D"/><path d="M5.06 28.08c.34.29.75.51 1.21.59 2.17.36 5.62-1.09 7.89-2.35 6.15-3.41 3.51-1.77 9.66-5.17 2.6-1.45 2.61-2.63.59-3.28-.76-.25-.68.39-1.37.78-8.8 4.88-10.12 3.75-18.92 8.64-.01-.02.55.46.94.79z" fill="#E27C0D"/></symbol></svg>