<svg><symbol id="oblique-lines" viewBox="0 0 380 380" xmlns="http://www.w3.org/2000/svg"><path d="M291.308 68.856c0 2.432-1.368 3.952-2.584 5.548-6.232 8.284-12.388 16.644-18.696 24.928-17.328 22.648-33.744 45.904-50.92 68.704-15.276 20.292-31.236 40.052-46.664 60.268-21.356 27.892-42.104 56.392-62.928 84.664-.988 1.368-1.976 2.812-3.268 3.876-2.052 1.748-4.408 1.748-6.384.228s-2.66-3.952-1.444-6.232c1.14-2.204 2.66-4.18 4.104-6.156 31.236-42.636 62.624-85.12 95.456-126.464 18.696-23.56 35.796-48.336 53.808-72.352 9.728-12.996 19.912-25.764 30.172-38.304a16.162 16.162 0 012.28-2.28c1.368-.988 2.888-1.064 4.408-.304 1.748.76 2.584 2.204 2.66 3.876zm-22.343-13.224c0 2.356-1.52 3.952-2.888 5.624-11.324 13.604-22.496 27.208-32.68 41.648-18.544 26.372-39.672 50.692-59.66 76-23.484 29.792-45.6 60.648-68.552 90.896-6.005 7.904-12.237 15.58-18.392 23.332-.76.988-1.596 1.9-2.584 2.66-1.976 1.444-4.409 1.368-5.928-.152-1.596-1.596-1.977-3.496-.989-5.548.457-.988 1.14-1.824 1.825-2.66 28.348-37.772 55.936-76.152 84.968-113.392 6.536-8.436 13.224-16.796 20.14-24.928 15.428-18.012 29.184-37.316 43.396-56.316 8.056-10.792 16.568-21.28 24.852-31.844 1.748-2.204 3.496-4.332 5.092-6.612 1.14-1.52 2.356-2.888 4.18-3.572 3.572-1.292 7.296 1.216 7.22 4.864zM135.129 334.248c-3.724-.076-6.004-3.116-5.168-6.384.38-1.52 1.368-2.736 2.356-3.952 28.728-37.164 55.708-75.544 84.436-112.708 10.412-13.528 19.38-28.044 28.728-42.256 16.036-24.548 33.212-48.184 51.756-70.908 2.66-3.268 5.168-6.536 7.828-9.804.684-.836 1.292-1.748 2.128-2.508 1.9-1.748 4.104-1.9 5.928-.608 1.9 1.368 2.508 3.8 1.292 6.232-.608 1.216-1.52 2.356-2.356 3.496-11.628 15.656-23.256 31.312-34.96 46.968-12.084 16.188-22.952 33.136-33.896 50.008-11.552 17.86-24.624 34.504-37.468 51.452-21.584 28.576-42.256 57.76-64.22 86.032-.836 1.064-1.672 2.204-2.584 3.268-1.14 1.064-2.508 1.748-3.8 1.672zM334.476 115.52c-.152 2.204-.988 3.42-2.052 4.636-18.164 20.064-33.668 42.104-47.576 65.208-16.72 27.816-35.34 54.264-54.568 80.256-19.076 25.764-37.772 51.832-55.632 78.432-.836 1.292-1.748 2.584-2.888 3.648-1.9 1.748-4.484 1.672-6.384.228-1.748-1.368-2.508-3.648-1.596-5.776.608-1.52 1.596-2.964 2.508-4.408 18.544-27.664 38-54.72 57.836-81.472 19.076-25.612 37.164-51.908 53.504-79.344 10.184-17.024 21.812-33.136 34.352-48.488 4.028-4.94 8.208-9.728 12.844-14.06.988-.988 1.976-1.976 3.268-2.584 3.116-1.444 6.46.836 6.384 3.724zM235.6 43.168c.076 1.748-.988 3.04-2.128 4.332-11.476 13.452-22.724 27.056-34.428 40.204-13.908 15.656-26.904 31.996-39.14 48.944C135.128 171 109.288 204.44 83.068 237.652c-4.788 6.08-9.348 12.388-13.984 18.544-.836 1.14-1.672 2.28-2.736 3.116-1.976 1.672-4.484 1.672-6.384.228-1.976-1.52-2.584-3.876-1.52-6.232.608-1.216 1.444-2.356 2.28-3.496 4.18-5.624 8.208-11.248 12.54-16.72 30.78-38.684 60.344-78.204 89.604-118.028 15.504-21.128 33.516-40.204 50.844-59.812 3.952-4.56 8.056-8.968 12.16-13.452 1.064-1.14 2.052-2.356 3.572-2.888 3.04-1.216 6.08.836 6.156 4.256zm-30.628 300.428c-4.18.076-6.612-3.268-5.548-6.688.304-.988.912-1.976 1.596-2.812 21.432-27.664 40.812-56.848 61.636-84.968 13.832-18.696 29.032-36.252 43.32-54.568 10.564-13.528 21.432-26.904 32.832-39.748.988-1.14 2.052-2.356 3.344-3.192 1.824-1.216 3.876-1.216 5.548.304 1.748 1.52 1.976 3.496 1.064 5.472-.684 1.368-1.748 2.508-2.736 3.724-24.016 30.172-48.26 60.192-71.972 90.592-16.264 20.9-31.008 42.94-46.436 64.448-5.852 8.132-12.084 16.112-18.088 24.168-1.292 1.672-2.736 3.268-4.56 3.268zM47.576 221.844c0-1.976 1.216-3.496 2.28-5.016 6.308-8.816 12.692-17.556 18.924-26.448 14.364-20.368 27.436-41.648 41.952-61.94 21.28-29.716 44.992-57.608 68.932-85.196 2.128-2.432 4.256-4.94 7.068-6.688 2.356-1.444 4.788-1.064 6.308.76 1.52 1.9 1.596 4.256-.456 6.308-9.044 8.968-16.34 19.456-24.472 29.184-19.152 22.8-38.076 45.676-54.796 70.3-11.324 16.644-22.344 33.516-33.744 50.084-6.992 10.26-14.364 20.216-21.584 30.248-.836 1.14-1.672 2.204-2.964 2.888-3.42 1.976-7.524-.532-7.448-4.484zM353.4 193.116c-.076 1.52-.684 2.736-1.52 3.876-18.696 27.512-36.48 55.632-57.988 81.168-12.236 14.592-23.636 29.868-36.328 44.08-3.268 3.724-6.688 7.296-10.108 10.868-.608.684-1.292 1.368-1.976 1.9-2.508 1.9-5.168 1.9-7.144-.076s-2.052-4.56-.152-7.144c.456-.608.988-1.216 1.52-1.748 14.288-14.668 26.448-31.16 39.748-46.664 22.496-26.144 40.736-55.328 61.256-82.916 1.596-2.128 3.04-4.332 4.712-6.308 1.444-1.748 3.42-2.052 5.472-1.14 1.672.836 2.356 2.356 2.508 4.104zM44.764 167.808c0-1.976 1.216-3.42 2.28-5.016 11.324-17.176 23.56-33.82 35.948-50.236 17.252-22.724 35.872-44.308 54.72-65.664.38-.456.76-.988 1.292-1.368 2.128-1.9 4.408-2.052 6.308-.608 2.052 1.596 2.432 4.028.76 6.612-1.064 1.672-2.432 3.192-3.724 4.788-15.276 18.696-30.78 37.24-45.828 56.164-14.06 17.708-27.284 36.024-39.824 54.872-1.14 1.672-2.052 3.496-3.724 4.712-1.748 1.292-3.648 1.596-5.624.38-1.748-1.064-2.66-2.66-2.584-4.636z"/></symbol><symbol id="dots" viewBox="0 0 344 344" xmlns="http://www.w3.org/2000/svg"><path d="M272.241 133.334c4.06.138 7.087 1.995 8.807 5.71 1.72 3.716 1.376 7.431-1.307 10.458-3.991 4.403-8.394 8.462-13.21 11.902-3.784 2.752-8.669 1.927-11.765-1.307-3.096-3.165-3.715-8.256-1.032-11.833 3.578-4.748 7.843-8.944 12.247-12.866 1.72-1.582 3.921-2.202 6.26-2.064zm46.991 29.309c-.688 4.747-1.307 9.907-2.683 14.929-.619 2.34-1.995 4.335-3.922 5.848-3.027 2.477-6.536 2.89-10.045 1.376-3.371-1.444-5.297-4.265-5.504-7.98-.068-.895-.068-1.789.069-2.684 1.17-5.091 2.202-10.182 3.647-15.136 1.444-4.678 5.916-7.292 10.32-6.536 4.816.826 8.118 4.748 8.118 10.183zm-159.96 57.31c.069-.55.069-1.582.344-2.614 1.582-5.091 3.578-10.045 6.261-14.723 1.995-3.509 5.297-5.229 9.357-4.61 4.059.619 6.673 3.027 7.843 6.949.55 1.926.413 3.784-.275 5.71-1.376 3.922-2.615 7.843-4.06 11.765-.481 1.376-1.238 2.683-2.132 3.922-2.684 3.784-6.88 5.16-10.94 3.715-4.059-1.445-6.467-4.954-6.398-10.114zm98.109 11.283c-3.922-.137-6.881-1.857-8.601-5.366-2.201-4.541-3.784-9.357-5.091-14.242-1.238-4.747 1.239-9.15 5.504-10.939 4.403-1.857 9.495-.206 11.834 4.197 2.408 4.403 4.541 9.082 5.848 13.898 1.926 6.604-2.89 12.59-9.494 12.452zm-57.38 3.234c2.684-.413 5.367-.481 7.981 0 5.435 1.032 9.082 5.642 8.6 10.733-.55 5.229-4.816 9.013-10.389 8.944-4.265-.069-8.6-.275-12.865-.757-5.573-.619-9.013-4.678-8.807-9.907.207-5.091 4.128-8.738 9.77-9.013 1.858-.069 3.784 0 5.71 0zm-60.269 15.068c-.275 4.059-2.133 7.086-5.848 8.806-3.578 1.651-7.843.688-10.664-2.202-2.408-2.477-3.509-5.504-3.784-8.875-.275-3.44-.482-6.811-.413-10.251.069-5.022 3.578-8.875 8.325-9.494 4.472-.551 8.669 2.339 10.114 7.017.481 1.582.619 3.234.894 4.816.482 3.371.894 6.811 1.376 10.183zm-79.463-55.866c.068 6.329-2.89 10.32-7.706 11.145-4.472.688-9.77-2.339-11.215-7.017a36.338 36.338 0 01-1.032-16.306c.688-4.197 4.266-7.017 8.463-7.293 4.334-.275 8.256 2.271 9.494 6.536 1.376 4.404 1.376 9.082 1.995 12.935zm113.038 99.622c-.138-6.673 3.096-10.939 8.118-11.558 5.298-.619 9.357 2.27 10.664 7.843.826 3.44 1.514 6.949 1.996 10.458.825 5.641-2.821 10.664-8.119 11.42-5.641.826-10.251-2.408-11.283-8.187-.757-3.577-1.032-7.224-1.376-9.976zM68.18 143.31c3.371.482 7.224.826 10.87 2.202 1.583.55 2.96 1.445 4.129 2.545 3.37 3.165 4.403 7.156 2.82 10.871-1.582 3.715-5.297 6.054-9.77 5.641a49.527 49.527 0 01-12.934-3.233c-4.334-1.789-6.467-6.261-5.435-10.595 1.101-4.61 5.023-7.5 10.32-7.431zm168.217 30.891c-.138 3.303-.138 5.848-.757 8.325-.826 3.302-2.546 6.054-5.642 7.706-6.054 3.233-13.209-.826-13.553-7.844-.207-4.472.481-8.944 1.513-13.278 1.101-4.747 5.298-7.499 9.976-7.086 4.61.412 8.05 4.059 8.394 8.944.138 1.307.069 2.683.069 3.233zm-61.095-13.14c-.275 2.408-.413 5.435-.963 8.325-1.032 5.504-5.779 9.15-10.802 8.462-5.504-.757-9.013-5.298-8.531-11.146.206-2.82.757-5.572 1.307-8.393 1.17-5.848 5.504-9.288 10.595-8.669 5.16.688 8.532 5.022 8.394 11.421zm68.732-108.429c-.138 1.926-.207 3.853-.482 5.78-.826 5.366-5.16 8.943-10.182 8.668-5.092-.275-9.22-4.403-9.22-9.7 0-3.854.344-7.775 1.308-11.49 1.238-4.541 5.16-7.43 9.563-7.156 4.472.276 7.912 3.44 8.806 8.119.344 1.926.275 3.853.207 5.779zM109.254 65.29c3.027-.068 5.573 1.17 7.43 3.51 2.133 2.683 4.266 5.366 5.986 8.324 2.89 4.816 1.445 10.458-2.958 13.348-4.404 2.82-9.839 1.926-13.072-2.477-2.133-2.821-4.128-5.848-5.642-9.082-3.234-6.467 1.238-13.553 8.256-13.622zm192.64 158.791c-4.609-1.1-9.976-2.958-14.241-6.811-2.959-2.614-3.303-7.224-1.445-10.733 1.857-3.508 5.848-5.71 9.701-4.884 4.196.894 8.324 2.27 12.04 4.472 3.99 2.339 5.572 6.948 4.334 11.214-1.17 3.99-5.022 6.742-10.389 6.742zM80.977 244.446c-3.715.069-6.605-1.651-8.531-4.747-2.408-3.853-3.784-8.118-4.266-12.522-.482-4.884 2.408-8.737 7.018-9.976 4.334-1.1 8.669.757 10.733 5.023 1.513 3.027 2.89 6.192 3.99 9.425 2.202 6.33-2.34 12.728-8.944 12.797zm37.978 48.092c.138-5.642 9.426-15.48 15.067-15.962 3.715-.275 6.743 1.17 8.807 4.197 2.201 3.233 2.545 6.811.481 10.113a30.03 30.03 0 01-10.939 10.252c-6.192 3.371-13.554-1.583-13.416-8.6zm-34.538-187.55c0 5.573-3.234 9.632-7.912 10.458-4.747.826-9.288-1.789-10.87-6.536-1.445-4.266-1.652-8.806-1.308-13.278.344-4.541 3.853-7.706 8.188-8.119 4.472-.413 8.324 1.858 9.838 6.123 1.376 3.785 1.72 7.844 2.064 11.352zm85.244-8.668c-.069 4.403-2.959 8.187-7.087 9.219-4.403 1.17-9.013-.619-11.008-4.678-1.995-4.128-3.027-8.738-3.44-13.279-.413-3.921 2.477-7.568 6.192-8.875 3.991-1.376 8.119-.137 10.733 3.303 1.926 2.614 4.678 11.145 4.61 14.31zm78.019-7.087c1.238.07 2.614.07 3.784.826 4.816 3.096 9.15 6.742 11.077 12.384 1.513 4.403-.207 8.875-4.06 11.214-3.784 2.271-8.668 1.72-11.833-1.651a79.806 79.806 0 01-6.536-7.912c-2.271-3.165-2.477-6.673-.551-10.113 1.72-3.096 4.472-4.679 8.119-4.748zm-113.176 43.413c-.55 3.578-1.169 7.843-3.233 11.696-2.684 4.885-7.775 6.811-12.453 4.816-4.472-1.857-6.605-6.536-5.298-11.902.826-3.303 1.651-6.674 3.165-9.701 2.064-4.197 6.398-6.054 10.87-4.954 4.128 1.101 6.949 4.816 6.949 10.045zm.55-77.95c-3.853 0-7.293-2.34-8.669-5.917-1.514-3.715-.619-7.912 2.545-10.526 2.959-2.477 6.468-4.335 10.183-5.504 3.99-1.239 8.256.481 10.595 3.921 2.477 3.647 2.202 8.256-.619 11.627-2.202 2.546-10.664 6.399-14.035 6.399zm124.528 215.825c0 2.064.138 4.128-.55 6.192-1.445 4.679-5.367 7.431-10.114 7.018-4.541-.344-8.393-3.922-8.806-8.6-.344-3.853.137-7.775 1.307-11.421 1.376-4.197 5.366-6.536 9.77-6.123 4.265.413 7.705 3.646 8.324 8.049.207 1.583.069 3.234.069 4.885zm-139.457-70.589c-.138 3.303-2.064 6.261-5.848 7.912-3.784 1.652-7.431 1.032-10.32-1.857-2.959-2.959-5.16-6.536-6.605-10.527-1.238-3.371-.138-6.536 2.34-9.012 2.476-2.546 5.503-3.509 9.012-2.615 4.954 1.307 11.49 9.976 11.421 16.099zm99.69-86.343c-.068.344 0 .963-.206 1.513-1.995 5.848-5.573 10.527-11.283 13.004-3.509 1.513-6.811.206-9.357-2.34-2.477-2.476-3.509-5.641-2.339-9.012 1.513-4.472 4.334-8.188 7.981-11.077 3.096-2.408 6.604-2.546 10.113-.688 3.234 1.72 4.885 4.609 5.091 8.6zm-20.089-60.476c-.069 2.202-.069 4.472-.825 6.605-1.514 4.54-5.504 7.155-10.32 6.674-4.472-.482-7.981-3.853-8.463-8.463-.413-3.715 0-7.499 1.032-11.077 1.239-4.403 5.298-7.017 9.907-6.604 4.266.344 7.706 3.509 8.463 7.912.206 1.65.137 3.302.206 4.953zm99.554 40.523c-.207 2.684-.207 5.367-1.032 7.912-1.514 4.816-5.642 7.5-10.596 6.88-4.747-.619-8.118-4.472-8.324-9.494-.069-3.027.688-5.917 1.238-8.806 1.032-5.23 5.366-8.256 10.389-7.706 4.747.482 8.049 4.266 8.325 9.495v1.72z"/></symbol><symbol id="lines" viewBox="0 0 344 344" xmlns="http://www.w3.org/2000/svg"><path d="M318.132 191.195c-1.72 1.239-3.578 1.032-5.367 1.032-9.219-.206-18.438-.344-27.588-.619-25.25-.826-50.568-.757-75.818-1.376-22.498-.619-44.995-1.858-67.562-2.683-31.166-1.032-62.332-1.307-93.568-1.789-1.513 0-3.027 0-4.472-.344-2.339-.55-3.508-2.27-3.44-4.541.07-2.201 1.445-3.99 3.715-4.265 2.133-.276 4.404-.207 6.605-.207 46.853.551 93.706 1.376 140.49 3.784 26.626 1.376 53.32.895 79.946 1.583 14.448.344 28.827 1.1 43.206 2.064.963.068 1.926.206 2.821.481 1.445.482 2.27 1.583 2.477 3.027.275 1.652-.344 2.959-1.445 3.853zm-1.996-22.91c-1.72 1.169-3.646.963-5.572.825-15.618-1.169-31.236-2.201-46.922-2.132-28.621.206-57.104-2.546-85.587-3.853-33.643-1.583-67.287-1.651-100.93-2.615-8.806-.275-17.544-.825-26.35-1.238-1.101-.069-2.202-.138-3.234-.482-2.064-.619-3.233-2.476-2.958-4.334.275-1.995 1.513-3.234 3.509-3.509.963-.137 1.926-.069 2.89-.069 41.898.964 83.798 1.17 125.628 2.89 9.494.413 18.92.826 28.414 1.72 20.984 1.858 41.968 1.789 63.021 2.27 11.971.276 23.874 1.032 35.845 1.514 2.477.138 4.954.275 7.43.275 1.652 0 3.303.207 4.748 1.17 2.614 1.72 2.752 5.71.068 7.568zM46.027 215.206c-1.926-2.752-.825-5.985 1.995-7.017 1.308-.482 2.684-.413 4.06-.344 41.623 1.582 83.248 1.307 124.872 2.821 15.136.55 30.203-.413 45.339-1.032 25.937-1.032 51.944-.826 77.881.825 3.716.207 7.431.344 11.146.551.963.068 1.926.068 2.89.206 2.27.482 3.508 1.926 3.508 3.99s-1.444 3.784-3.852 4.128c-1.239.207-2.477.138-3.716.069l-51.944-1.032c-17.888-.344-35.707.551-53.595 1.307-18.851.826-37.633 0-56.485-.481-31.716-.895-63.502-.757-95.219-1.995-1.238-.069-2.477-.069-3.715-.207-1.376-.206-2.546-.825-3.165-1.789zm260.616 31.167c-1.651 1.032-3.027 1.032-4.403.894-23.874-2.821-47.747-2.614-71.621-.757-28.69 2.202-57.379 2.477-86.069 1.927-28.414-.482-56.897-.551-85.312.275-1.376.069-2.752.069-4.059-.206-2.27-.482-3.509-2.34-3.44-4.541.069-1.995 1.307-3.647 3.371-4.128 1.445-.344 2.959-.413 4.472-.413 29.515-.894 59.099-.757 88.615-.206 28.345.55 56.622.068 84.83-2.202 17.544-1.445 35.157-1.307 52.701-.206 5.641.344 11.214.963 16.787 1.995 1.238.206 2.477.344 3.509 1.032 2.614 1.582 2.752 5.16.619 6.536zm1.238-108.635c-1.17.963-2.683.825-4.197.688-15.618-1.376-31.235-2.477-46.784-4.128-18.438-1.996-36.946-2.959-55.522-3.028-37.496-.206-74.992-1.582-112.419-3.44-6.88-.344-13.76-.344-20.571-.55-1.238-.069-2.477-.069-3.647-.344-2.27-.55-3.508-2.339-3.44-4.541.07-2.201 1.445-3.853 3.716-4.334 1.17-.207 2.477-.207 3.715-.138 6.192.138 12.384.138 18.507.413 43.757 2.27 87.583 3.302 131.408 3.922 23.255.344 46.303 3.508 69.351 5.848 5.297.55 10.664 1.238 15.961 1.857 1.376.138 2.752.275 3.922 1.101 2.408 1.582 2.477 4.885 0 6.674zM75.268 270.453c-2.202-3.027-1.1-6.467 1.995-7.431.895-.275 1.927-.344 2.821-.275 31.029 1.17 62.058.207 93.155.688 20.64.344 41.143 2.271 61.714 3.165 15.205.688 30.478 1.582 45.614 3.234 1.376.137 2.752.275 4.059.756 1.858.688 2.89 2.133 2.684 4.197-.207 2.064-1.514 3.234-3.44 3.578-1.308.206-2.752 0-4.128-.069-34.125-1.789-68.319-3.853-102.444-5.229-23.46-.963-46.99-.206-70.451-.344-8.944-.069-17.819-.413-26.763-.619-1.995-.138-3.922-.344-4.816-1.651zm6.81-176.335c1.445-1.032 3.096-.963 4.747-.963 9.632 0 19.264.138 28.827.069 22.085-.138 44.17-1.72 66.324-1.651 32.473.069 64.74 2.82 97.076 5.848 2.89.275 5.78.55 8.463 1.651 2.27.963 3.233 2.89 2.683 4.954-.55 2.064-2.27 3.371-4.747 2.889-11.146-1.857-22.429-1.72-33.643-2.614-26.282-2.064-52.632-3.922-79.052-3.303-17.819.413-35.707 1.101-53.526 1.514-11.008.206-21.947 0-32.955 0-1.239 0-2.477-.069-3.647-.619-3.164-1.583-3.44-5.78-.55-7.775zm178.331 205.919c-1.17.757-2.339.894-3.578.894-29.515.619-59.03 2.339-88.477-.069-16.856-1.376-33.712-1.72-50.568-3.508-4.334-.482-8.737-1.101-13.072-1.652-.825-.137-1.651-.206-2.408-.481-2.683-.826-4.059-2.821-3.646-5.229.413-2.408 2.202-3.784 5.091-3.853.688 0 1.376.069 2.064.207 17.957 2.752 36.12 3.027 54.146 4.678 30.478 2.752 60.957.894 91.366 1.514 2.339.068 4.679 0 7.018.137 1.995.138 3.233 1.445 3.646 3.371.275 1.72-.413 3.028-1.582 3.991zM119.644 64.19c1.445-1.032 3.165-.894 4.748-.963 18.232-.688 36.532-.413 54.764.138 25.25.757 50.431 3.096 75.611 5.641.551.07 1.101.07 1.652.207 2.476.55 3.784 2.133 3.715 4.265-.138 2.34-1.651 3.853-4.403 3.922-1.789.069-3.578-.138-5.367-.206-21.397-1.376-42.724-3.096-64.121-4.128-20.021-1.032-40.111-1.101-60.131-.482-1.789.069-3.578.275-5.298-.275-1.858-.62-3.027-1.858-3.165-3.853-.206-1.858.482-3.234 1.995-4.266z"/></symbol><symbol id="spiral" viewBox="0 0 402 402" xmlns="http://www.w3.org/2000/svg"><path d="M344.997 78.792c-17.527-25.889-46.069-34.33-72.843-39.637C217 28.14 158.549 40.36 113.204 79.837c-36.18 31.597-75.174 90.852-62.552 146.891 11.176 49.366 31.92 111.676 74.692 133.705 25.728 13.266 56.923 12.703 84.34 8.925 26.934-3.699 54.189-12.06 78.39-26.854 24.361-14.954 41.808-36.984 52.581-66.491 10.693-29.265 21.387-64.239 19.457-96.48-3.618-59.094-49.928-98.249-96.882-106.047-51.536-8.523-110.63 10.853-145.524 57.646-31.035 41.648-40.522 103.636-12.703 150.831 29.024 49.365 95.354 62.792 142.388 49.285 44.301-12.784 83.616-55.878 86.269-111.193 2.734-57.245-32.562-100.098-80.158-105.807-47.999-5.788-109.827 16-125.505 75.657-13.105 49.687 20.743 102.188 62.793 110.711 42.049 8.522 93.264-24.362 106.53-73.084 16.401-59.978-47.115-91.415-87.878-82.008-20.904 4.824-41.968 19.457-50.089 43.496-6.512 19.136-4.743 43.095 6.432 59.496 25.005 36.582 93.184 19.055 103.234-25.969 11.899-53.305-51.697-64.883-75.737-31.195-11.578 16.241-5.226 35.778 12.784 38.11 11.818 1.527 36.099-1.85 38.994-19.055 1.286-7.719-3.136-14.392-8.925-17.367-8.924-4.663-18.251.724-26.21 5.468-3.055 1.849-.322 7.155 2.653 5.306 2.171-1.286 4.342-2.573 6.673-3.618 9.327-4.261 15.437-6.191 18.251 6.432 2.412 10.854-1.93 10.693-9.005 13.588-1.527.643-3.055 1.045-4.663 1.447a46.78 46.78 0 01-14.07 1.929c-9.809-.241-18.01-10.21-15.758-21.708 2.492-12.542 18.411-19.778 27.979-22.351 11.256-2.975 24.843-2.251 33.848 6.995 22.593 23.155 1.447 58.853-20.582 68.42-18.492 8.04-46.793 10.935-62.149-6.19-13.749-15.276-15.678-42.532-7.156-61.667 9.889-22.271 31.356-34.17 51.938-36.743 21.708-2.734 45.668 3.618 61.667 21.708 19.859 22.512 16.965 53.225 1.447 77.425-23.316 36.18-66.973 58.29-104.439 39.879-38.994-19.216-59.416-74.531-35.457-117.947 24.281-44.059 77.988-58.371 119.957-49.768 42.291 8.683 70.35 50.25 67.054 100.581-3.136 47.436-35.778 85.867-73.245 100.098-40.843 15.517-98.409 8.12-131.775-25.648-32.562-33.044-36.824-89.003-18.251-132.419 19.457-45.587 59.496-73.164 101.224-82.49 41.808-9.327 89.646-2.814 121.404 33.205 14.954 17.045 25.728 40.039 27.175 64.642 1.608 26.13-6.111 52.42-13.347 76.782-7.396 25.084-17.366 48.24-35.295 65.284-17.769 16.884-39.879 26.934-61.828 33.849-39.798 12.542-95.354 19.698-131.052-10.05-30.632-25.567-44.622-72.601-55.556-112.721-13.347-49.446 13.426-100.259 43.657-133.223C132.258 65.687 172.7 46.31 214.829 42.21c42.773-4.18 102.832 2.251 129.685 46.23 12.784 20.824 25.889 44.14 28.462 70.028.402 3.86 5.708 3.94 5.306 0-2.974-29.346-17.848-56.842-33.285-79.676z" stroke-width="4.818" stroke-miterlimit="10"/></symbol><symbol id="dandelion" viewBox="0 0 395 395" xmlns="http://www.w3.org/2000/svg"><path d="M181.7 57.67l-1.659-13.983c-.553-4.424-7.505-4.424-6.952 0l1.659 13.983c.553 4.424 7.505 4.424 6.952 0zm-21.805 6.794c-1.343-4.582-3.555-8.61-6.478-12.324-1.185-1.5-3.713-1.185-4.897 0-1.501 1.501-1.185 3.476 0 4.898a27.589 27.589 0 014.66 9.243c1.264 4.345 7.979 2.528 6.715-1.817zm-28.124 7.821c-2.054-2.29-4.108-4.66-6.241-6.952-1.264-1.422-3.634-1.264-4.898 0-1.422 1.422-1.264 3.555 0 4.898 2.054 2.291 4.108 4.661 6.241 6.952 1.264 1.422 3.634 1.264 4.898 0 1.422-1.343 1.264-3.476 0-4.898zm-24.805 13.983c-2.765-3.16-6.162-5.767-10.033-7.505-1.738-.79-3.792-.474-4.74 1.264-.869 1.501-.474 3.95 1.264 4.74 3.318 1.58 6.162 3.634 8.611 6.478 2.923 3.318 7.821-1.659 4.898-4.977zM78.367 99.54c-3.318-2.133-6.715-4.187-10.033-6.32-3.792-2.37-7.347 3.634-3.555 6.004 3.318 2.133 6.715 4.187 10.033 6.32 3.871 2.449 7.347-3.555 3.555-6.004zm-21.172 29.388c-3.397-.79-6.873-1.58-10.27-2.449-4.345-1.027-6.162 5.688-1.817 6.715 3.397.79 6.873 1.58 10.27 2.449 4.345 1.027 6.162-5.688 1.817-6.715zm-6.714 27.65c.474-1.659-.632-3.95-2.449-4.266-3.555-.553-7.11-1.185-10.665-1.738-1.896-.316-3.713.553-4.266 2.449-.474 1.659.632 3.95 2.449 4.266 3.555.553 7.11 1.185 10.665 1.738 1.896.316 3.792-.553 4.266-2.449zm1.106 24.016c-.474-1.975-2.37-2.844-4.266-2.449l-13.035 2.291c-1.896.316-2.923 2.528-2.45 4.266.475 1.975 2.37 2.844 4.267 2.449l13.035-2.291c1.817-.316 2.923-2.528 2.449-4.266zM48.9 204.926c-3.87 1.817-8.057 2.528-12.323 2.37-4.503-.158-4.503 6.794 0 6.952 5.45.237 10.823-.948 15.72-3.318 4.109-1.817.712-7.9-3.396-6.004zm68.888 133.352c-1.975 3.713-3.476 7.584-4.424 11.613-1.027 4.345 5.767 6.241 6.715 1.817.79-3.476 1.975-6.794 3.713-9.954 2.212-3.871-3.871-7.426-6.004-3.476zm24.49 4.74c-1.027 3.634-2.054 7.268-3.002 10.902-1.185 4.345 5.53 6.162 6.715 1.817 1.027-3.634 2.054-7.268 3.002-10.902 1.264-4.345-5.451-6.162-6.715-1.817zm23.148-3.002v12.403c0 4.503 6.952 4.503 6.952 0v-12.403c0-4.503-6.952-4.503-6.952 0zm29.309 2.212c-.316-1.896-2.607-2.923-4.266-2.449-1.975.553-2.765 2.449-2.449 4.266.395 2.291 0 4.661-1.027 6.715-.869 1.659-.474 3.792 1.264 4.74 1.501.869 3.95.474 4.74-1.264 1.896-3.871 2.449-7.821 1.738-12.008zm22.12-.869c-.79-1.738-3.239-2.133-4.74-1.264-1.738 1.027-2.054 3.081-1.264 4.74a20.266 20.266 0 011.896 6.794c.158 1.896 1.501 3.476 3.476 3.476 1.738 0 3.713-1.58 3.476-3.476-.316-3.634-1.264-6.952-2.844-10.27zm33.733 3.16c-1.817-4.266-4.108-8.137-7.11-11.613-2.923-3.397-7.821 1.58-4.898 4.898a30.835 30.835 0 015.293 8.532c.711 1.738 2.291 3.002 4.266 2.449 1.659-.395 3.16-2.528 2.449-4.266zm27.096-8.532c-3.397-2.844-6.715-5.688-10.112-8.453-1.422-1.185-3.555-1.422-4.898 0-1.264 1.264-1.422 3.713 0 4.898 3.397 2.844 6.715 5.688 10.112 8.453 1.422 1.185 3.555 1.422 4.898 0 1.264-1.264 1.422-3.713 0-4.898zm20.857-16.274c-1.58-1.817-3.081-3.634-4.661-5.451-1.264-1.422-3.713-1.264-4.898 0-1.422 1.422-1.264 3.476 0 4.898 1.58 1.817 3.081 3.634 4.661 5.451 1.264 1.422 3.713 1.264 4.898 0 1.422-1.343 1.264-3.476 0-4.898zm26.386-13.588c-5.135-2.607-10.349-5.214-15.484-7.821-4.029-2.054-7.505 4.029-3.555 6.004 5.135 2.607 10.349 5.214 15.484 7.821 4.029 1.975 7.584-4.029 3.555-6.004zm20.223-21.093c-3.397-1.58-6.715-3.081-10.112-4.661-1.738-.79-3.792-.474-4.74 1.264-.869 1.501-.474 3.95 1.264 4.74 3.397 1.58 6.715 3.081 10.112 4.661 1.738.79 3.792.474 4.74-1.264.869-1.501.474-3.95-1.264-4.74zm20.066-21.883c-4.977-1.343-9.875-2.923-14.694-4.898-4.187-1.659-6.004 5.056-1.817 6.715 4.819 1.896 9.717 3.555 14.694 4.898 4.345 1.185 6.162-5.53 1.817-6.715zm.87-28.914c-5.451-1.264-10.823-2.607-16.274-3.871-4.345-1.027-6.241 5.688-1.817 6.715 5.451 1.264 10.823 2.607 16.274 3.871 4.345 1.106 6.162-5.609 1.817-6.715zm-.159-27.255c-3.95.158-7.663-.316-11.455-1.422-4.345-1.264-6.162 5.451-1.817 6.715 4.345 1.264 8.848 1.896 13.351 1.738 4.424-.158 4.424-7.189-.079-7.031zm-6.241-34.918h-14.773c-4.503 0-4.503 6.952 0 6.952h14.773c4.503.079 4.503-6.952 0-6.952zm-4.819-20.145l-16.274 2.449c-4.424.632-2.528 7.426 1.817 6.715 5.451-.79 10.823-1.659 16.274-2.449 4.503-.632 2.607-7.347-1.817-6.715zm-6.952-34.128c-5.451.869-10.586 2.607-15.563 5.135-4.029 2.054-.474 8.058 3.555 6.004 4.424-2.212 9.006-3.634 13.904-4.424 4.345-.632 2.528-7.347-1.896-6.715zm-15.484-18.486a3022.247 3022.247 0 01-14.773 5.451c-4.187 1.501-2.37 8.295 1.817 6.715 4.898-1.817 9.796-3.634 14.773-5.451 4.187-1.501 2.37-8.295-1.817-6.715zm-25.043-21.567c-4.661 3.397-9.243 6.794-13.904 10.191-3.555 2.607-.079 8.69 3.555 6.004 4.661-3.397 9.243-6.794 13.904-10.19 3.555-2.529.079-8.612-3.555-6.005zM280.371 56.17c-5.135 3.791-9.796 8.057-13.904 12.955-2.923 3.397 2.054 8.374 4.898 4.898 3.713-4.424 7.9-8.453 12.482-11.85 3.634-2.607.158-8.69-3.476-6.004zm-29.626-12.72c-4.898 2.844-9.243 6.557-12.877 10.981-1.185 1.501-1.422 3.476 0 4.898 1.185 1.264 3.792 1.501 4.898 0 3.239-4.029 7.031-7.347 11.455-9.875 3.871-2.212.395-8.295-3.476-6.004zm-44.792-7.505a846.393 846.393 0 00-3.239 13.588c-1.027 4.345 5.846 5.61 6.873 1.264a846.393 846.393 0 003.239-13.588c1.106-4.424-5.767-5.688-6.873-1.264zm7.031 33.733c-1.264 3.634-2.607 7.268-3.871 10.823-1.501 4.266 5.214 6.083 6.715 1.817 1.264-3.634 2.607-7.268 3.871-10.823 1.501-4.187-5.214-6.004-6.715-1.817zm-21.252-1.343c-1.738-.474-3.95.553-4.266 2.45-.553 2.843-1.106 5.687-1.58 8.531-.316 1.817.553 3.792 2.449 4.266 1.738.474 3.95-.553 4.266-2.449l1.58-8.532c.316-1.896-.553-3.792-2.449-4.266zm-27.175 26.386c-.553-3.634-1.106-7.268-1.659-10.823-.316-1.896-2.607-2.923-4.266-2.449-1.975.553-2.686 2.45-2.449 4.266l1.659 10.823c.316 1.896 2.607 2.923 4.266 2.45 2.054-.475 2.765-2.37 2.449-4.267zm-24.885 13.193c-1.58-4.424-3.713-8.69-6.478-12.482-2.607-3.634-8.611-.158-6.004 3.555 2.37 3.397 4.345 6.952 5.767 10.823 1.501 4.187 8.216 2.37 6.715-1.896zm-25.834 14.852c-2.607-3.318-5.214-6.715-7.821-10.033-1.185-1.501-3.713-1.185-4.898 0-1.5 1.501-1.185 3.476 0 4.898 2.607 3.318 5.214 6.715 7.821 10.033 1.185 1.501 3.713 1.185 4.898 0 1.422-1.422 1.185-3.397 0-4.898zM90.77 142.279c-4.897-3.397-9.795-6.715-14.772-10.112-3.713-2.528-7.19 3.476-3.555 6.004 4.898 3.397 9.796 6.715 14.773 10.112 3.713 2.607 7.189-3.476 3.555-6.004zm-6.32 26.86c-3.634-1.027-7.268-2.054-10.823-3.081-4.345-1.264-6.162 5.53-1.817 6.715 3.634 1.027 7.268 2.054 10.823 3.081 4.345 1.185 6.162-5.53 1.817-6.715zm7.663 29.309c-5.45.237-10.823.553-16.274.79-4.503.237-4.503 7.189 0 6.952 5.451-.237 10.823-.553 16.274-.79 4.424-.158 4.503-7.189 0-6.952zm.001 28.677H76.551c-4.503 0-4.503 6.952 0 6.952h15.484c4.582.079 4.582-6.952.08-6.952zm4.503 31.995c-4.898 1.817-9.796 3.634-14.773 5.451-4.187 1.501-2.37 8.295 1.817 6.715 4.898-1.817 9.796-3.634 14.773-5.451 4.187-1.58 2.37-8.295-1.817-6.715zm15.404 25.833c-3.397 2.291-6.715 4.661-10.112 6.952-3.713 2.528-.158 8.611 3.555 6.004 3.397-2.291 6.715-4.661 10.112-6.952 3.634-2.449.158-8.532-3.555-6.004zm15.485 19.987c-1.106 3.634-2.133 7.189-3.239 10.823-1.264 4.345 5.451 6.162 6.715 1.817 1.106-3.634 2.133-7.189 3.239-10.823 1.343-4.266-5.451-6.083-6.715-1.817zm31.442 4.661l-7.11 12.324c-2.212 3.871 3.792 7.426 6.004 3.555l7.11-12.324c2.291-3.95-3.792-7.426-6.004-3.555zm27.966 2.212c-1.975-.553-3.634.632-4.266 2.449-1.343 3.476-1.896 7.268-1.659 10.981.237 4.503 7.189 4.503 6.952 0-.158-3.239.316-6.162 1.422-9.164.632-1.738-.79-3.792-2.449-4.266zm34.207 7.9c-.553-2.607-1.027-5.135-1.58-7.742-.395-1.817-2.607-2.923-4.266-2.449-1.896.553-2.844 2.449-2.449 4.266.553 2.607 1.027 5.135 1.58 7.742.395 1.817 2.607 2.923 4.266 2.449 1.975-.474 2.844-2.449 2.449-4.266zm24.49-23.305c-2.212-3.871-8.295-.395-6.004 3.555 1.343 2.37 1.975 4.819 1.975 7.505-.079 4.503 6.952 4.503 6.952 0 0-3.95-1.027-7.663-2.923-11.06zm36.418-.79c-2.291-3.081-4.661-6.241-6.952-9.322-1.106-1.501-3.002-2.291-4.74-1.264-1.501.869-2.37 3.239-1.264 4.74 2.291 3.081 4.661 6.241 6.952 9.322 1.106 1.501 3.002 2.291 4.74 1.264 1.501-.869 2.449-3.239 1.264-4.74zm22.041-16.748c-2.607-1.58-5.135-3.081-7.742-4.661-3.871-2.291-7.347 3.713-3.555 6.004 2.607 1.58 5.135 3.081 7.742 4.661 3.871 2.291 7.426-3.713 3.555-6.004zm17.064-19.434c-4.977-2.37-10.191-4.345-15.563-5.767-4.345-1.185-6.241 5.609-1.817 6.715a79.079 79.079 0 0113.904 5.056c3.95 1.975 7.505-4.029 3.476-6.004zm9.244-20.54c-2.054-.553-4.108-1.027-6.241-1.58-1.817-.474-3.792.553-4.266 2.449-.474 1.817.632 3.871 2.449 4.266 2.054.553 4.108 1.027 6.241 1.58 1.817.474 3.792-.553 4.266-2.449.474-1.738-.632-3.792-2.449-4.266zm2.212-31.126h-10.112c-4.503 0-4.503 6.952 0 6.952h10.112c4.503 0 4.503-6.952 0-6.952zm-3.872-19.434h-6.952c-4.503 0-4.503 6.952 0 6.952h6.952c4.424.079 4.503-6.952 0-6.952zm-7.189-28.519c-5.372 1.027-10.744 1.422-16.116 1.422-4.503 0-4.503 6.952 0 6.952 6.083.079 12.008-.553 18.012-1.659 4.424-.79 2.528-7.505-1.896-6.715zm-16.273-21.646c-5.135 2.054-10.349 4.187-15.484 6.241-4.108 1.659-2.291 8.453 1.817 6.715 5.135-2.054 10.349-4.187 15.484-6.241 4.187-1.659 2.37-8.453-1.817-6.715zm-24.174-22.436c-6.399 3.239-12.798 6.557-19.118 9.796-4.029 2.054-.474 8.058 3.555 6.004 6.399-3.239 12.798-6.557 19.118-9.796 3.95-2.054.395-8.058-3.555-6.004zm-15.011-26.149c-5.214 3.713-10.112 7.742-14.615 12.245-3.239 3.16 1.738 8.058 4.898 4.898 4.108-4.029 8.532-7.821 13.193-11.139 3.713-2.528.237-8.611-3.476-6.004zm-30.02-6.636c-2.844 3.318-4.898 7.268-5.53 11.613-.237 1.896.474 3.713 2.449 4.266 1.659.474 4.029-.553 4.266-2.449.474-3.16 1.58-6.083 3.713-8.532 3.002-3.318-1.975-8.295-4.898-4.898zm-35.944 23.305c-1.659-.474-4.029.553-4.266 2.449-.553 3.634-1.027 7.268-1.58 10.823-.237 1.896.474 3.713 2.449 4.266 1.659.474 4.029-.553 4.266-2.449.553-3.634 1.027-7.268 1.58-10.823.237-1.896-.474-3.792-2.449-4.266zm-30.889 24.964c-.79-3.397-1.58-6.715-2.37-10.112-1.027-4.345-7.742-2.528-6.715 1.817.79 3.397 1.58 6.715 2.37 10.112 1.027 4.345 7.742 2.528 6.715-1.817zm-21.409 16.985c-2.923-4.424-6.399-8.374-10.586-11.613-1.501-1.185-3.476-1.422-4.898 0-1.185 1.185-1.501 3.792 0 4.898 3.713 2.923 6.873 6.241 9.48 10.191 2.449 3.792 8.532.316 6.004-3.476zm-12.087 20.461c-4.898-3.239-10.112-5.925-15.563-8.137-4.187-1.659-6.004 5.056-1.817 6.715 4.898 1.975 9.559 4.503 13.904 7.426 3.713 2.528 7.189-3.476 3.476-6.004zm-4.188 32.232a75.137 75.137 0 01-14.615 1.422c-4.503 0-4.503 7.031 0 6.952 5.53 0 10.981-.632 16.432-1.659 4.424-.869 2.528-7.584-1.817-6.715zm5.373 35.629c-6.399 1.738-12.561 4.029-18.644 6.636-4.108 1.817-.553 7.821 3.555 6.004 5.53-2.449 11.218-4.345 16.985-5.925 4.266-1.185 2.449-7.9-1.896-6.715zm11.139 33.496c-1.264-1.264-3.634-1.422-4.898 0l-6.241 6.952c-1.264 1.422-1.422 3.555 0 4.898 1.264 1.264 3.634 1.422 4.898 0l6.241-6.952c1.264-1.343 1.422-3.476 0-4.898zm30.651 9.322c-1.58 4.661-3.081 9.322-4.661 13.983-1.422 4.266 5.293 6.083 6.715 1.817 1.58-4.661 3.081-9.322 4.661-13.983 1.422-4.187-5.293-6.083-6.715-1.817zm-85.794 37.288l-10.665 10.191c-3.239 3.081 1.897 7.9 5.056 4.819l10.666-10.191c3.317-3.16-1.817-7.9-5.056-4.819zm117.474-33.259c-.158-1.896-1.501-3.476-3.476-3.476-1.738 0-3.713 1.58-3.476 3.476.237 2.607.553 5.135.79 7.742.158 1.896 1.501 3.476 3.476 3.476 1.738 0 3.713-1.58 3.476-3.476-.237-2.528-.553-5.135-.79-7.742zm23.147-7.11c-.553-3.081-1.817-6.004-3.476-8.611-2.449-3.792-8.453-.237-6.004 3.555 1.422 2.133 2.291 4.424 2.765 6.952.395 1.817 2.607 2.923 4.266 2.449 1.975-.553 2.844-2.449 2.449-4.345zm30.889-11.534l-8.532-8.532c-3.16-3.16-8.137 1.738-4.898 4.898l8.532 8.532c3.081 3.16 8.058-1.738 4.898-4.898zm25.595-13.983c-6.478-1.58-12.877-3.16-19.355-4.74-4.345-1.106-6.241 5.688-1.817 6.715 6.478 1.58 12.877 3.16 19.355 4.74 4.345 1.106 6.162-5.609 1.817-6.715zm7.821-26.544l-12.403-3.081c-4.345-1.106-6.241 5.609-1.817 6.715 4.108 1.027 8.295 2.054 12.403 3.081 4.266 1.106 6.162-5.609 1.817-6.715zm-7.9-28.835c-4.898-.553-9.796-1.027-14.773-1.58-4.424-.474-4.424 6.478 0 6.952 4.898.553 9.796 1.027 14.773 1.58 4.424.474 4.424-6.478 0-6.952zM52.851 243.636c-4.819.948-9.717 1.896-14.536 2.844-4.424.869-2.291 7.505 2.054 6.636 4.819-.948 9.717-1.896 14.536-2.844 4.345-.79 2.291-7.505-2.054-6.636zm225.386-82.397c-3.871.553-7.742 1.027-11.613 1.58-1.896.237-3.476 1.422-3.476 3.476 0 1.659 1.58 3.713 3.476 3.476 3.871-.553 7.742-1.027 11.613-1.58 1.896-.237 3.476-1.422 3.476-3.476.079-1.659-1.58-3.713-3.476-3.476zM61.224 266.23c-3.476 1.896-6.873 3.713-10.349 5.609-1.659.869-2.765 2.607-1.975 4.503.632 1.58 2.844 2.923 4.503 1.975 3.476-1.896 6.873-3.713 10.35-5.609 1.658-.869 2.764-2.607 1.974-4.503-.632-1.501-2.844-2.844-4.503-1.975zm164.083-148.994l-2.37 8.532c-1.185 4.345 5.53 6.162 6.715 1.817l2.37-8.532c1.185-4.266-5.53-6.162-6.715-1.817zM68.492 295.934c-2.37 1.738-4.74 3.555-7.11 5.293-3.634 2.686.553 8.295 4.187 5.609 2.37-1.738 4.74-3.555 7.11-5.293 3.555-2.686-.553-8.295-4.187-5.609zM254.143 135.09c-.869-1.501-3.239-2.37-4.74-1.264a657.067 657.067 0 00-7.742 5.451c-1.58 1.106-2.291 3.081-1.264 4.74.869 1.501 3.239 2.37 4.739 1.264 2.607-1.817 5.215-3.634 7.743-5.451 1.58-1.027 2.291-3.002 1.264-4.74zm-58.619 23.305c-1.343-5.53-3.554-10.744-6.477-15.642-2.291-3.871-8.374-.316-6.004 3.555a52.78 52.78 0 015.767 13.983c1.027 4.266 7.82 2.449 6.714-1.896zm-19.513 7.742a68.151 68.151 0 00-9.164-8.69c-1.501-1.185-3.476-1.422-4.898 0-1.185 1.185-1.501 3.792 0 4.898a68.151 68.151 0 019.164 8.69c2.923 3.476 7.821-1.501 4.898-4.898zm-11.613 17.617a68.82 68.82 0 00-14.773-3.792c-4.424-.632-6.32 6.083-1.817 6.715a79.536 79.536 0 0114.773 3.792c4.187 1.659 6.004-5.135 1.817-6.715zm5.926 23.384a98.422 98.422 0 00-14.773 4.977c-1.738.711-2.133 3.318-1.264 4.74 1.027 1.817 3.081 1.975 4.74 1.264a77.034 77.034 0 0113.114-4.266c4.345-1.027 2.528-7.821-1.817-6.715zm8.532 33.417c-.869-1.501-3.239-2.37-4.74-1.264-2.054 1.58-4.108 3.081-6.241 4.661-1.501 1.106-2.291 3.002-1.264 4.74.869 1.501 3.239 2.37 4.74 1.264 2.054-1.58 4.108-3.081 6.241-4.661 1.58-1.106 2.291-3.002 1.264-4.74zm21.646 3.95l-2.37 14.694c-.711 4.424 6.004 6.32 6.715 1.817l2.37-14.694c.711-4.424-6.004-6.241-6.715-1.817zm26.939 5.372c-.553-3.95-2.054-7.663-4.345-10.902-1.106-1.501-3.002-2.291-4.74-1.264-1.501.869-2.37 3.239-1.264 4.74 2.054 2.844 3.239 5.767 3.713 9.243.237 1.896 2.686 2.923 4.266 2.449 1.975-.553 2.607-2.37 2.37-4.266zm34.048-19.197c-4.424-2.054-8.769-4.108-13.193-6.162-4.029-1.896-7.584 4.108-3.555 6.004 4.424 2.054 8.769 4.108 13.193 6.162 4.029 1.896 7.584-4.108 3.555-6.004zm-4.186-28.282c-4.661-.237-9.322-.553-13.983-.79-4.503-.237-4.503 6.715 0 6.952 4.661.237 9.322.553 13.983.79 4.503.316 4.503-6.715 0-6.952zm-18.013-29.862c-3.397 2.054-6.952 3.397-10.823 4.266-4.345.948-2.528 7.742 1.817 6.715 4.424-1.027 8.611-2.686 12.482-4.977 3.871-2.291.395-8.295-3.476-6.004zm-21.724-17.222c-.948 3.081-2.449 5.846-4.424 8.453-1.185 1.501-.237 3.871 1.264 4.74 1.817 1.027 3.634.237 4.74-1.264 2.37-3.002 4.029-6.478 5.135-10.112 1.343-4.266-5.372-6.162-6.715-1.817zm-15.721 21.646c-1.58-4.187-8.295-2.37-6.715 1.817 1.185 3.318 1.58 6.478 1.264 9.954-.158 1.896 1.738 3.476 3.476 3.476 2.054 0 3.318-1.58 3.476-3.476.474-3.95-.079-8.058-1.501-11.771zm26.78 17.617c-4.898-.237-9.796-.553-14.773-.79-4.503-.237-4.503 6.715 0 6.952 4.898.237 9.796.553 14.773.79 4.503.237 4.503-6.715 0-6.952zm-3.633 25.991c-3.081-2.054-6.241-4.108-9.322-6.162-3.792-2.449-7.268 3.555-3.555 6.004 3.081 2.054 6.241 4.108 9.322 6.162 3.792 2.528 7.347-3.555 3.555-6.004zm-23.385 1.422c-1.422-1.422-3.476-1.185-4.898 0-2.844 2.37-5.609 4.74-8.453 7.11-1.422 1.185-1.264 3.713 0 4.898 1.422 1.422 3.476 1.185 4.898 0l8.453-7.11c1.422-1.185 1.264-3.634 0-4.898zM189.6 209.824c-3.081 1.817-6.241 3.634-9.322 5.451-3.871 2.291-.395 8.295 3.555 6.004 3.081-1.817 6.241-3.634 9.322-5.451 3.871-2.291.395-8.295-3.555-6.004zm1.185-15.563c-3.792-1.738-7.663-2.765-11.85-2.844-4.503-.079-4.503 6.873 0 6.952 2.844.079 5.688.632 8.295 1.896 1.738.79 3.792.474 4.74-1.264.948-1.422.553-3.871-1.185-4.74z" stroke-width="4.818" stroke-miterlimit="10"/></symbol></svg>